SplineFontDB: 3.0
FontName: msbm10
FullName: msbm10
FamilyName: msbm10
Weight: Book
Copyright: Copyright (C) 1994, 1995, Basil K. Malyshev. All Rights Reserved.012BaKoMa Fonts Collection, Level-C.
Version: 1.2/19-Jan-95
ItalicAngle: 0
UnderlinePosition: -123
UnderlineWidth: 20
Ascent: 1638
Descent: 410
sfntRevision: 0x00013333
LayerCount: 2
Layer: 0 1 "Back"  1
Layer: 1 1 "Fore"  0
XUID: [1021 99 1815243471 3305824]
FSType: 0
OS2Version: 1
OS2_WeightWidthSlopeOnly: 0
OS2_UseTypoMetrics: 1
CreationTime: -2082844800
ModificationTime: 1421634402
PfmFamily: 17
TTFWeight: 400
TTFWidth: 5
LineGap: 0
VLineGap: 0
Panose: 2 11 5 0 0 0 0 0 0 0
OS2TypoAscent: -196
OS2TypoAOffset: 1
OS2TypoDescent: -450
OS2TypoDOffset: 1
OS2TypoLinegap: 0
OS2WinAscent: 0
OS2WinAOffset: 1
OS2WinDescent: 0
OS2WinDOffset: 1
HheadAscent: 0
HheadAOffset: 1
HheadDescent: 0
HheadDOffset: 1
OS2SubXSize: 410
OS2SubYSize: 369
OS2SubXOff: 0
OS2SubYOff: 0
OS2SupXSize: 410
OS2SupYSize: 369
OS2SupXOff: 0
OS2SupYOff: 721
OS2StrikeYSize: 102
OS2StrikeYPos: 530
OS2Vendor: 'PfEd'
OS2CodePages: 00000001.00000000
OS2UnicodeRanges: 00000000.00000000.00000000.00000000
MarkAttachClasses: 1
DEI: 91125
TtTable: prep
NPUSHB
 28
 7
 30
 5
 28
 3
 23
 9
 19
 4
 28
 63
 12
 13
 2
 65
 3
 63
 12
 61
 14
 47
 4
 63
 63
 36
 13
 48
 0
SCANTYPE
PUSHW_1
 828
SCANCTRL
SCVTCI
CALL
CALL
EndTTInstrs
TtTable: fpgm
NPUSHB
 22
 21
 20
 19
 18
 17
 16
 15
 14
 13
 12
 11
 10
 9
 8
 7
 6
 5
 4
 3
 2
 1
 0
FDEF
PUSHB_3
 0
 128
 0
RS
DUP
ROLL
DIV
ROLL
SWAP
WS
FLOOR
ODD
ENDF
FDEF
PUSHB_3
 42
 0
 0
RS
EQ
JROT
PUSHB_1
 0
CALL
IF
SLOOP
IP
EIF
PUSHB_1
 0
CALL
IF
SLOOP
ALIGNRP
EIF
PUSHB_1
 0
CALL
IF
PUSHB_1
 10
LOOPCALL
EIF
PUSHB_1
 1
RS
SRP0
PUSHB_1
 0
CALL
IF
SLOOP
ALIGNRP
EIF
PUSHB_1
 0
CALL
IF
PUSHB_1
 10
LOOPCALL
EIF
ENDF
FDEF
CALL
ENDF
FDEF
CALL
PUSHB_1
 2
LOOPCALL
ENDF
FDEF
PUSHB_1
 2
LOOPCALL
ENDF
FDEF
PUSHB_1
 1
DIV
PUSHB_1
 0
SWAP
WS
PUSHB_2
 1
 3
CINDEX
WS
DUP
GC[cur]
DUP
ROUND[Grey]
SUB
ABS
PUSHB_1
 3
CINDEX
GC[cur]
DUP
ROUND[Grey]

StartChar: .notdef
Encoding: 65536 -1 0
Width: 1536
Flags: W
LayerCount: 2
Fore
SplineSet
256 0 m 1,0,-1
 256 1280 l 1,1,-1
 1280 1280 l 1,2,-1
 1280 0 l 1,3,-1
 256 0 l 1,0,-1
1247 33 m 1,4,-1
 1247 1247 l 1,5,-1
 289 1247 l 1,6,-1
 289 33 l 1,7,-1
 1247 33 l 1,4,-1
EndSplineSet
EndChar

StartChar: exclam
Encoding: 33 33 4
Width: 1591
GlyphClass: 2
Flags: W
LayerCount: 2
Fore
SplineSet
170 -467 m 0,0,1
 170 -457 170 -457 176 -446 c 1,2,-1
 287 -281 l 1,3,-1
 209 -281 l 2,4,5
 192 -281 192 -281 181 -268 c 128,-1,6
 170 -255 170 -255 170 -240 c 0,7,8
 170 -223 170 -223 181 -211 c 128,-1,9
 192 -199 192 -199 209 -199 c 2,10,-1
 340 -199 l 1,11,-1
 551 117 l 1,12,-1
 209 117 l 2,13,14
 192 117 192 117 181 129 c 128,-1,15
 170 141 170 141 170 158 c 0,16,17
 170 173 170 173 181 186 c 128,-1,18
 192 199 192 199 209 199 c 2,19,-1
 606 199 l 1,20,-1
 750 414 l 2,21,22
 759 426 759 426 780 426 c 0,23,24
 798 426 798 426 809.5 415 c 128,-1,25
 821 404 821 404 821 385 c 0,26,27
 821 374 821 374 815 365 c 2,28,-1
 705 199 l 1,29,-1
 793 199 l 2,30,31
 937 199 937 199 1062 265 c 128,-1,32
 1187 331 1187 331 1263 449.5 c 128,-1,33
 1339 568 1339 568 1339 711 c 0,34,35
 1339 821 1339 821 1295 914.5 c 128,-1,36
 1251 1008 1251 1008 1174 1077.5 c 128,-1,37
 1097 1147 1097 1147 999.5 1184 c 128,-1,38
 902 1221 902 1221 793 1221 c 2,39,-1
 209 1221 l 2,40,41
 192 1221 192 1221 181 1233 c 128,-1,42
 170 1245 170 1245 170 1262 c 0,43,44
 170 1277 170 1277 181 1290 c 128,-1,45
 192 1303 192 1303 209 1303 c 2,46,-1
 799 1303 l 2,47,48
 922 1303 922 1303 1034.5 1258.5 c 128,-1,49
 1147 1214 1147 1214 1235 1133 c 128,-1,50
 1323 1052 1323 1052 1372 944 c 128,-1,51
 1421 836 1421 836 1421 711 c 0,52,53
 1421 546 1421 546 1335 409.5 c 128,-1,54
 1249 273 1249 273 1106 195 c 128,-1,55
 963 117 963 117 799 117 c 2,56,-1
 649 117 l 1,57,-1
 440 -199 l 1,58,-1
 1343 -199 l 2,59,60
 1359 -199 1359 -199 1369.5 -211 c 128,-1,61
 1380 -223 1380 -223 1380 -240 c 0,62,63
 1380 -255 1380 -255 1369.5 -268 c 128,-1,64
 1359 -281 1359 -281 1343 -281 c 2,65,-1
 385 -281 l 1,66,-1
 242 -496 l 2,67,68
 233 -508 233 -508 211 -508 c 0,69,70
 194 -508 194 -508 182 -495 c 128,-1,71
 170 -482 170 -482 170 -467 c 0,0,1
EndSplineSet
EndChar

StartChar: quotedbl
Encoding: 34 34 5
Width: 1591
GlyphClass: 2
Flags: W
LayerCount: 2
Fore
SplineSet
244 -633 m 0,0,1
 244 -621 244 -621 246 -616 c 2,2,-1
 326 -438 l 1,3,-1
 209 -438 l 2,4,5
 192 -438 192 -438 181 -426 c 128,-1,6
 170 -414 170 -414 170 -397 c 0,7,8
 170 -382 170 -382 181 -369 c 128,-1,9
 192 -356 192 -356 209 -356 c 2,10,-1
 362 -356 l 1,11,-1
 504 -41 l 1,12,-1
 209 -41 l 2,13,14
 192 -41 192 -41 181 -28 c 128,-1,15
 170 -15 170 -15 170 0 c 256,16,17
 170 15 170 15 181 28 c 128,-1,18
 192 41 192 41 209 41 c 2,19,-1
 541 41 l 1,20,-1
 686 367 l 1,21,22
 581 385 581 385 486.5 436 c 128,-1,23
 392 487 392 487 320 567 c 128,-1,24
 248 647 248 647 209 744 c 128,-1,25
 170 841 170 841 170 950 c 0,26,27
 170 1114 170 1114 256 1249.5 c 128,-1,28
 342 1385 342 1385 486 1463.5 c 128,-1,29
 630 1542 630 1542 793 1542 c 2,30,-1
 1210 1542 l 1,31,-1
 1270 1671 l 1,32,33
 1280 1698 1280 1698 1307 1698 c 0,34,35
 1322 1698 1322 1698 1335 1685 c 128,-1,36
 1348 1672 1348 1672 1348 1657 c 0,37,38
 1348 1645 1348 1645 1346 1640 c 2,39,-1
 1300 1542 l 1,40,-1
 1384 1542 l 2,41,42
 1400 1542 1400 1542 1410.5 1530 c 128,-1,43
 1421 1518 1421 1518 1421 1501 c 0,44,45
 1421 1486 1421 1486 1410.5 1473 c 128,-1,46
 1400 1460 1400 1460 1384 1460 c 2,47,-1
 1264 1460 l 1,48,-1
 807 438 l 1,49,-1
 1384 438 l 2,50,51
 1400 438 1400 438 1410.5 426 c 128,-1,52
 1421 414 1421 414 1421 397 c 0,53,54
 1421 382 1421 382 1410.5 369 c 128,-1,55
 1400 356 1400 356 1384 356 c 2,56,-1
 770 356 l 1,57,-1
 631 41 l 1,58,-1
 1384 41 l 2,59,60
 1400 41 1400 41 1410.5 28 c 128,-1,61
 1421 15 1421 15 1421 0 c 256,62,63
 1421 -15 1421 -15 1410.5 -28 c 128,-1,64
 1400 -41 1400 -41 1384 -41 c 2,65,-1
 594 -41 l 1,66,-1
 453 -356 l 1,67,-1
 1384 -356 l 2,68,69
 1400 -356 1400 -356 1410.5 -369 c 128,-1,70
 1421 -382 1421 -382 1421 -397 c 0,71,72
 1421 -414 1421 -414 1410.5 -426 c 128,-1,73
 1400 -438 1400 -438 1384 -438 c 2,74,-1
 416 -438 l 1,75,-1
 322 -647 l 1,76,77
 311 -674 311 -674 285 -674 c 0,78,79
 268 -674 268 -674 256 -661 c 128,-1,80
 244 -648 244 -648 244 -633 c 0,0,1
721 442 m 1,81,-1
 1176 1460 l 1,82,-1
 799 1460 l 2,83,84
 692 1460 692 1460 594 1423 c 128,-1,85
 496 1386 496 1386 417.5 1315.5 c 128,-1,86
 339 1245 339 1245 295.5 1152.5 c 128,-1,87
 252 1060 252 1060 252 950 c 0,88,89
 252 821 252 821 315 710.5 c 128,-1,90
 378 600 378 600 487 529 c 128,-1,91
 596 458 596 458 721 442 c 1,81,-1
EndSplineSet
EndChar

StartChar: numbersign
Encoding: 35 35 6
Width: 1591
GlyphClass: 2
Flags: W
LayerCount: 2
Fore
SplineSet
244 -633 m 0,0,1
 244 -621 244 -621 246 -616 c 2,2,-1
 326 -438 l 1,3,-1
 209 -438 l 2,4,5
 192 -438 192 -438 181 -426 c 128,-1,6
 170 -414 170 -414 170 -397 c 0,7,8
 170 -382 170 -382 181 -369 c 128,-1,9
 192 -356 192 -356 209 -356 c 2,10,-1
 362 -356 l 1,11,-1
 504 -41 l 1,12,-1
 209 -41 l 2,13,14
 192 -41 192 -41 181 -28 c 128,-1,15
 170 -15 170 -15 170 0 c 256,16,17
 170 15 170 15 181 28 c 128,-1,18
 192 41 192 41 209 41 c 2,19,-1
 541 41 l 1,20,-1
 682 356 l 1,21,-1
 209 356 l 2,22,23
 192 356 192 356 181 369 c 128,-1,24
 170 382 170 382 170 397 c 0,25,26
 170 414 170 414 181 426 c 128,-1,27
 192 438 192 438 209 438 c 2,28,-1
 719 438 l 1,29,-1
 1128 1354 l 1,30,31
 982 1460 982 1460 793 1460 c 2,32,-1
 209 1460 l 2,33,34
 192 1460 192 1460 181 1473 c 128,-1,35
 170 1486 170 1486 170 1501 c 0,36,37
 170 1518 170 1518 181 1530 c 128,-1,38
 192 1542 192 1542 209 1542 c 2,39,-1
 799 1542 l 2,40,41
 992 1542 992 1542 1161 1432 c 1,42,-1
 1270 1671 l 1,43,44
 1280 1698 1280 1698 1307 1698 c 0,45,46
 1322 1698 1322 1698 1335 1685 c 128,-1,47
 1348 1672 1348 1672 1348 1657 c 0,48,49
 1348 1645 1348 1645 1346 1640 c 2,50,-1
 1229 1378 l 1,51,52
 1290 1324 1290 1324 1332.5 1256 c 128,-1,53
 1375 1188 1375 1188 1398 1108.5 c 128,-1,54
 1421 1029 1421 1029 1421 950 c 0,55,56
 1421 785 1421 785 1335 648.5 c 128,-1,57
 1249 512 1249 512 1106 434 c 128,-1,58
 963 356 963 356 799 356 c 2,59,-1
 770 356 l 1,60,-1
 631 41 l 1,61,-1
 1384 41 l 2,62,63
 1400 41 1400 41 1410.5 28 c 128,-1,64
 1421 15 1421 15 1421 0 c 256,65,66
 1421 -15 1421 -15 1410.5 -28 c 128,-1,67
 1400 -41 1400 -41 1384 -41 c 2,68,-1
 594 -41 l 1,69,-1
 453 -356 l 1,70,-1
 1384 -356 l 2,71,72
 1400 -356 1400 -356 1410.5 -369 c 128,-1,73
 1421 -382 1421 -382 1421 -397 c 0,74,75
 1421 -414 1421 -414 1410.5 -426 c 128,-1,76
 1400 -438 1400 -438 1384 -438 c 2,77,-1
 416 -438 l 1,78,-1
 322 -647 l 1,79,80
 311 -674 311 -674 285 -674 c 0,81,82
 268 -674 268 -674 256 -661 c 128,-1,83
 244 -648 244 -648 244 -633 c 0,0,1
807 438 m 1,84,85
 911 438 911 438 1007.5 478 c 128,-1,86
 1104 518 1104 518 1178.5 587.5 c 128,-1,87
 1253 657 1253 657 1296 751.5 c 128,-1,88
 1339 846 1339 846 1339 950 c 0,89,90
 1339 1047 1339 1047 1301 1137 c 128,-1,91
 1263 1227 1263 1227 1192 1298 c 1,92,-1
 807 438 l 1,84,85
EndSplineSet
EndChar

StartChar: dollar
Encoding: 36 36 7
Width: 1591
GlyphClass: 2
Flags: W
LayerCount: 2
Fore
SplineSet
356 -727 m 0,0,1
 356 -711 356 -711 367 -700 c 1,2,-1
 535 -504 l 1,3,-1
 209 -504 l 2,4,5
 192 -504 192 -504 181 -491 c 128,-1,6
 170 -478 170 -478 170 -463 c 0,7,8
 170 -446 170 -446 181 -434 c 128,-1,9
 192 -422 192 -422 209 -422 c 2,10,-1
 606 -422 l 1,11,-1
 877 -106 l 1,12,-1
 209 -106 l 2,13,14
 192 -106 192 -106 181 -94 c 128,-1,15
 170 -82 170 -82 170 -66 c 0,16,17
 170 -49 170 -49 181 -37 c 128,-1,18
 192 -25 192 -25 209 -25 c 2,19,-1
 946 -25 l 1,20,-1
 1163 225 l 1,21,22
 1171 240 1171 240 1194 240 c 0,23,24
 1211 240 1211 240 1223 228 c 128,-1,25
 1235 216 1235 216 1235 199 c 0,26,27
 1235 183 1235 183 1225 170 c 2,28,-1
 1057 -25 l 1,29,-1
 1384 -25 l 2,30,31
 1400 -25 1400 -25 1410.5 -37 c 128,-1,32
 1421 -49 1421 -49 1421 -66 c 0,33,34
 1421 -82 1421 -82 1410.5 -94 c 128,-1,35
 1400 -106 1400 -106 1384 -106 c 2,36,-1
 985 -106 l 1,37,-1
 715 -422 l 1,38,-1
 1384 -422 l 2,39,40
 1400 -422 1400 -422 1410.5 -434 c 128,-1,41
 1421 -446 1421 -446 1421 -463 c 0,42,43
 1421 -478 1421 -478 1410.5 -491 c 128,-1,44
 1400 -504 1400 -504 1384 -504 c 2,45,-1
 645 -504 l 1,46,-1
 428 -756 l 1,47,48
 419 -768 419 -768 397 -768 c 0,49,50
 382 -768 382 -768 369 -756 c 128,-1,51
 356 -744 356 -744 356 -727 c 0,0,1
170 1016 m 0,52,53
 170 1180 170 1180 256 1315.5 c 128,-1,54
 342 1451 342 1451 486 1529.5 c 128,-1,55
 630 1608 630 1608 793 1608 c 2,56,-1
 1384 1608 l 2,57,58
 1400 1608 1400 1608 1410.5 1595 c 128,-1,59
 1421 1582 1421 1582 1421 1567 c 0,60,61
 1421 1550 1421 1550 1410.5 1538 c 128,-1,62
 1400 1526 1400 1526 1384 1526 c 2,63,-1
 799 1526 l 2,64,65
 692 1526 692 1526 594 1489 c 128,-1,66
 496 1452 496 1452 417.5 1381.5 c 128,-1,67
 339 1311 339 1311 295.5 1218.5 c 128,-1,68
 252 1126 252 1126 252 1016 c 256,69,70
 252 906 252 906 295.5 813.5 c 128,-1,71
 339 721 339 721 417.5 650 c 128,-1,72
 496 579 496 579 594 541.5 c 128,-1,73
 692 504 692 504 799 504 c 2,74,-1
 1384 504 l 2,75,76
 1400 504 1400 504 1410.5 491 c 128,-1,77
 1421 478 1421 478 1421 463 c 0,78,79
 1421 446 1421 446 1410.5 434 c 128,-1,80
 1400 422 1400 422 1384 422 c 2,81,-1
 793 422 l 2,82,83
 630 422 630 422 486 500 c 128,-1,84
 342 578 342 578 256 714 c 128,-1,85
 170 850 170 850 170 1016 c 0,52,53
EndSplineSet
EndChar

StartChar: percent
Encoding: 37 37 8
Width: 1591
GlyphClass: 2
Flags: W
LayerCount: 2
Fore
SplineSet
356 -727 m 0,0,1
 356 -711 356 -711 367 -700 c 1,2,-1
 535 -504 l 1,3,-1
 209 -504 l 2,4,5
 192 -504 192 -504 181 -491 c 128,-1,6
 170 -478 170 -478 170 -463 c 0,7,8
 170 -446 170 -446 181 -434 c 128,-1,9
 192 -422 192 -422 209 -422 c 2,10,-1
 606 -422 l 1,11,-1
 877 -106 l 1,12,-1
 209 -106 l 2,13,14
 192 -106 192 -106 181 -94 c 128,-1,15
 170 -82 170 -82 170 -66 c 0,16,17
 170 -49 170 -49 181 -37 c 128,-1,18
 192 -25 192 -25 209 -25 c 2,19,-1
 946 -25 l 1,20,-1
 1163 225 l 1,21,22
 1171 240 1171 240 1194 240 c 0,23,24
 1211 240 1211 240 1223 228 c 128,-1,25
 1235 216 1235 216 1235 199 c 0,26,27
 1235 183 1235 183 1225 170 c 2,28,-1
 1057 -25 l 1,29,-1
 1384 -25 l 2,30,31
 1400 -25 1400 -25 1410.5 -37 c 128,-1,32
 1421 -49 1421 -49 1421 -66 c 0,33,34
 1421 -82 1421 -82 1410.5 -94 c 128,-1,35
 1400 -106 1400 -106 1384 -106 c 2,36,-1
 985 -106 l 1,37,-1
 715 -422 l 1,38,-1
 1384 -422 l 2,39,40
 1400 -422 1400 -422 1410.5 -434 c 128,-1,41
 1421 -446 1421 -446 1421 -463 c 0,42,43
 1421 -478 1421 -478 1410.5 -491 c 128,-1,44
 1400 -504 1400 -504 1384 -504 c 2,45,-1
 645 -504 l 1,46,-1
 428 -756 l 1,47,48
 419 -768 419 -768 397 -768 c 0,49,50
 382 -768 382 -768 369 -756 c 128,-1,51
 356 -744 356 -744 356 -727 c 0,0,1
209 422 m 2,52,53
 192 422 192 422 181 434 c 128,-1,54
 170 446 170 446 170 463 c 0,55,56
 170 478 170 478 181 491 c 128,-1,57
 192 504 192 504 209 504 c 2,58,-1
 793 504 l 2,59,60
 937 504 937 504 1062 570 c 128,-1,61
 1187 636 1187 636 1263 754.5 c 128,-1,62
 1339 873 1339 873 1339 1016 c 0,63,64
 1339 1126 1339 1126 1295 1219.5 c 128,-1,65
 1251 1313 1251 1313 1174 1382.5 c 128,-1,66
 1097 1452 1097 1452 999.5 1489 c 128,-1,67
 902 1526 902 1526 793 1526 c 2,68,-1
 209 1526 l 2,69,70
 192 1526 192 1526 181 1538 c 128,-1,71
 170 1550 170 1550 170 1567 c 0,72,73
 170 1582 170 1582 181 1595 c 128,-1,74
 192 1608 192 1608 209 1608 c 2,75,-1
 799 1608 l 2,76,77
 922 1608 922 1608 1034.5 1563.5 c 128,-1,78
 1147 1519 1147 1519 1235 1438 c 128,-1,79
 1323 1357 1323 1357 1372 1249 c 128,-1,80
 1421 1141 1421 1141 1421 1016 c 0,81,82
 1421 851 1421 851 1335 714.5 c 128,-1,83
 1249 578 1249 578 1106 500 c 128,-1,84
 963 422 963 422 799 422 c 2,85,-1
 209 422 l 2,52,53
EndSplineSet
EndChar

StartChar: ampersand
Encoding: 38 38 9
Width: 1591
GlyphClass: 2
Flags: W
LayerCount: 2
Fore
SplineSet
209 -438 m 2,0,1
 192 -438 192 -438 181 -426 c 128,-1,2
 170 -414 170 -414 170 -397 c 0,3,4
 170 -382 170 -382 181 -369 c 128,-1,5
 192 -356 192 -356 209 -356 c 2,6,-1
 627 -356 l 1,7,-1
 829 -41 l 1,8,-1
 209 -41 l 2,9,10
 192 -41 192 -41 181 -28 c 128,-1,11
 170 -15 170 -15 170 0 c 256,12,13
 170 15 170 15 181 28 c 128,-1,14
 192 41 192 41 209 41 c 2,15,-1
 883 41 l 1,16,-1
 1085 356 l 1,17,-1
 793 356 l 2,18,19
 630 356 630 356 486 434 c 128,-1,20
 342 512 342 512 256 648 c 128,-1,21
 170 784 170 784 170 950 c 0,22,23
 170 1114 170 1114 256 1249.5 c 128,-1,24
 342 1385 342 1385 486 1463.5 c 128,-1,25
 630 1542 630 1542 793 1542 c 2,26,-1
 1384 1542 l 2,27,28
 1400 1542 1400 1542 1410.5 1530 c 128,-1,29
 1421 1518 1421 1518 1421 1501 c 0,30,31
 1421 1486 1421 1486 1410.5 1473 c 128,-1,32
 1400 1460 1400 1460 1384 1460 c 2,33,-1
 799 1460 l 2,34,35
 692 1460 692 1460 594 1423 c 128,-1,36
 496 1386 496 1386 417.5 1315.5 c 128,-1,37
 339 1245 339 1245 295.5 1152.5 c 128,-1,38
 252 1060 252 1060 252 950 c 256,39,40
 252 840 252 840 295.5 747.5 c 128,-1,41
 339 655 339 655 417.5 584 c 128,-1,42
 496 513 496 513 594 475.5 c 128,-1,43
 692 438 692 438 799 438 c 2,44,-1
 1139 438 l 1,45,-1
 1276 653 l 2,46,47
 1285 666 1285 666 1307 666 c 0,48,49
 1322 666 1322 666 1335 653 c 128,-1,50
 1348 640 1348 640 1348 625 c 0,51,52
 1348 612 1348 612 1341 604 c 1,53,-1
 1235 438 l 1,54,-1
 1384 438 l 2,55,56
 1400 438 1400 438 1410.5 426 c 128,-1,57
 1421 414 1421 414 1421 397 c 0,58,59
 1421 382 1421 382 1410.5 369 c 128,-1,60
 1400 356 1400 356 1384 356 c 2,61,-1
 1184 356 l 1,62,-1
 981 41 l 1,63,-1
 1384 41 l 2,64,65
 1400 41 1400 41 1410.5 28 c 128,-1,66
 1421 15 1421 15 1421 0 c 256,67,68
 1421 -15 1421 -15 1410.5 -28 c 128,-1,69
 1400 -41 1400 -41 1384 -41 c 2,70,-1
 928 -41 l 1,71,-1
 725 -356 l 1,72,-1
 1384 -356 l 2,73,74
 1400 -356 1400 -356 1410.5 -369 c 128,-1,75
 1421 -382 1421 -382 1421 -397 c 0,76,77
 1421 -414 1421 -414 1410.5 -426 c 128,-1,78
 1400 -438 1400 -438 1384 -438 c 2,79,-1
 672 -438 l 1,80,-1
 535 -653 l 1,81,82
 525 -666 525 -666 504 -666 c 0,83,84
 487 -666 487 -666 475 -653 c 128,-1,85
 463 -640 463 -640 463 -625 c 0,86,87
 463 -613 463 -613 469 -604 c 2,88,-1
 575 -438 l 1,89,-1
 209 -438 l 2,0,1
EndSplineSet
EndChar

StartChar: quotesingle
Encoding: 39 39 10
Width: 1591
GlyphClass: 2
Flags: W
LayerCount: 2
Fore
SplineSet
244 -625 m 0,0,1
 244 -614 244 -614 246 -610 c 2,2,-1
 317 -438 l 1,3,-1
 209 -438 l 2,4,5
 192 -438 192 -438 181 -426 c 128,-1,6
 170 -414 170 -414 170 -397 c 0,7,8
 170 -382 170 -382 181 -369 c 128,-1,9
 192 -356 192 -356 209 -356 c 2,10,-1
 350 -356 l 1,11,-1
 479 -41 l 1,12,-1
 209 -41 l 2,13,14
 192 -41 192 -41 181 -28 c 128,-1,15
 170 -15 170 -15 170 0 c 256,16,17
 170 15 170 15 181 28 c 128,-1,18
 192 41 192 41 209 41 c 2,19,-1
 512 41 l 1,20,-1
 641 356 l 1,21,-1
 209 356 l 2,22,23
 192 356 192 356 181 369 c 128,-1,24
 170 382 170 382 170 397 c 0,25,26
 170 414 170 414 181 426 c 128,-1,27
 192 438 192 438 209 438 c 2,28,-1
 676 438 l 1,29,-1
 758 641 l 2,30,31
 769 666 769 666 797 666 c 0,32,33
 811 666 811 666 824.5 653.5 c 128,-1,34
 838 641 838 641 838 625 c 0,35,36
 838 618 838 618 834 610 c 2,37,-1
 764 438 l 1,38,-1
 793 438 l 2,39,40
 937 438 937 438 1062 504 c 128,-1,41
 1187 570 1187 570 1263 688.5 c 128,-1,42
 1339 807 1339 807 1339 950 c 0,43,44
 1339 1060 1339 1060 1295 1153.5 c 128,-1,45
 1251 1247 1251 1247 1174 1316.5 c 128,-1,46
 1097 1386 1097 1386 999.5 1423 c 128,-1,47
 902 1460 902 1460 793 1460 c 2,48,-1
 209 1460 l 2,49,50
 192 1460 192 1460 181 1473 c 128,-1,51
 170 1486 170 1486 170 1501 c 0,52,53
 170 1518 170 1518 181 1530 c 128,-1,54
 192 1542 192 1542 209 1542 c 2,55,-1
 799 1542 l 2,56,57
 922 1542 922 1542 1034.5 1497.5 c 128,-1,58
 1147 1453 1147 1453 1235 1372 c 128,-1,59
 1323 1291 1323 1291 1372 1183 c 128,-1,60
 1421 1075 1421 1075 1421 950 c 0,61,62
 1421 785 1421 785 1335 648.5 c 128,-1,63
 1249 512 1249 512 1106 434 c 128,-1,64
 963 356 963 356 799 356 c 2,65,-1
 729 356 l 1,66,-1
 600 41 l 1,67,-1
 1384 41 l 2,68,69
 1400 41 1400 41 1410.5 28 c 128,-1,70
 1421 15 1421 15 1421 0 c 256,71,72
 1421 -15 1421 -15 1410.5 -28 c 128,-1,73
 1400 -41 1400 -41 1384 -41 c 2,74,-1
 567 -41 l 1,75,-1
 438 -356 l 1,76,-1
 1384 -356 l 2,77,78
 1400 -356 1400 -356 1410.5 -369 c 128,-1,79
 1421 -382 1421 -382 1421 -397 c 0,80,81
 1421 -414 1421 -414 1410.5 -426 c 128,-1,82
 1400 -438 1400 -438 1384 -438 c 2,83,-1
 406 -438 l 1,84,-1
 322 -641 l 1,85,86
 310 -666 310 -666 285 -666 c 0,87,88
 268 -666 268 -666 256 -653 c 128,-1,89
 244 -640 244 -640 244 -625 c 0,0,1
EndSplineSet
EndChar

StartChar: parenleft
Encoding: 40 40 11
Width: 1591
GlyphClass: 2
Flags: W
LayerCount: 2
Fore
SplineSet
250 -281 m 2,0,1
 233 -281 233 -281 222 -268 c 128,-1,2
 211 -255 211 -255 211 -240 c 0,3,4
 211 -223 211 -223 222 -211 c 128,-1,5
 233 -199 233 -199 250 -199 c 2,6,-1
 780 -199 l 1,7,-1
 985 -14 l 1,8,9
 999 0 999 0 1016 0 c 0,10,11
 1032 0 1032 0 1044.5 -11.5 c 128,-1,12
 1057 -23 1057 -23 1057 -41 c 0,13,14
 1057 -55 1057 -55 1047 -70 c 1,15,-1
 901 -199 l 1,16,-1
 1384 -199 l 2,17,18
 1400 -199 1400 -199 1410.5 -211 c 128,-1,19
 1421 -223 1421 -223 1421 -240 c 0,20,21
 1421 -255 1421 -255 1410.5 -268 c 128,-1,22
 1400 -281 1400 -281 1384 -281 c 2,23,-1
 811 -281 l 1,24,-1
 608 -467 l 1,25,26
 588 -479 588 -479 578 -479 c 0,27,28
 561 -479 561 -479 549 -467 c 128,-1,29
 537 -455 537 -455 537 -438 c 0,30,31
 537 -420 537 -420 547 -412 c 2,32,-1
 690 -281 l 1,33,-1
 250 -281 l 2,0,1
170 711 m 0,34,35
 170 875 170 875 256 1010.5 c 128,-1,36
 342 1146 342 1146 486 1224.5 c 128,-1,37
 630 1303 630 1303 793 1303 c 2,38,-1
 1384 1303 l 2,39,40
 1400 1303 1400 1303 1410.5 1290 c 128,-1,41
 1421 1277 1421 1277 1421 1262 c 0,42,43
 1421 1245 1421 1245 1410.5 1233 c 128,-1,44
 1400 1221 1400 1221 1384 1221 c 2,45,-1
 799 1221 l 2,46,47
 692 1221 692 1221 594 1184 c 128,-1,48
 496 1147 496 1147 417.5 1076.5 c 128,-1,49
 339 1006 339 1006 295.5 913.5 c 128,-1,50
 252 821 252 821 252 711 c 256,51,52
 252 601 252 601 295.5 508.5 c 128,-1,53
 339 416 339 416 417.5 345 c 128,-1,54
 496 274 496 274 594 236.5 c 128,-1,55
 692 199 692 199 799 199 c 2,56,-1
 1384 199 l 2,57,58
 1400 199 1400 199 1410.5 186 c 128,-1,59
 1421 173 1421 173 1421 158 c 0,60,61
 1421 141 1421 141 1410.5 129 c 128,-1,62
 1400 117 1400 117 1384 117 c 2,63,-1
 793 117 l 2,64,65
 630 117 630 117 486 195 c 128,-1,66
 342 273 342 273 256 409 c 128,-1,67
 170 545 170 545 170 711 c 0,34,35
EndSplineSet
EndChar

StartChar: parenright
Encoding: 41 41 12
Width: 1591
GlyphClass: 2
Flags: W
LayerCount: 2
Fore
SplineSet
209 -281 m 2,0,1
 192 -281 192 -281 181 -268 c 128,-1,2
 170 -255 170 -255 170 -240 c 0,3,4
 170 -223 170 -223 181 -211 c 128,-1,5
 192 -199 192 -199 209 -199 c 2,6,-1
 776 -199 l 1,7,-1
 944 -14 l 1,8,9
 952 0 952 0 975 0 c 0,10,11
 991 0 991 0 1003.5 -11.5 c 128,-1,12
 1016 -23 1016 -23 1016 -41 c 0,13,14
 1016 -55 1016 -55 1006 -70 c 1,15,-1
 889 -199 l 1,16,-1
 1343 -199 l 2,17,18
 1359 -199 1359 -199 1369.5 -211 c 128,-1,19
 1380 -223 1380 -223 1380 -240 c 0,20,21
 1380 -255 1380 -255 1369.5 -268 c 128,-1,22
 1359 -281 1359 -281 1343 -281 c 2,23,-1
 815 -281 l 1,24,-1
 649 -467 l 2,25,26
 637 -479 637 -479 618 -479 c 0,27,28
 602 -479 602 -479 590 -467 c 128,-1,29
 578 -455 578 -455 578 -438 c 0,30,31
 578 -420 578 -420 588 -412 c 1,32,-1
 702 -281 l 1,33,-1
 209 -281 l 2,0,1
209 117 m 2,34,35
 192 117 192 117 181 129 c 128,-1,36
 170 141 170 141 170 158 c 0,37,38
 170 173 170 173 181 186 c 128,-1,39
 192 199 192 199 209 199 c 2,40,-1
 793 199 l 2,41,42
 937 199 937 199 1062 265 c 128,-1,43
 1187 331 1187 331 1263 449.5 c 128,-1,44
 1339 568 1339 568 1339 711 c 0,45,46
 1339 821 1339 821 1295 914.5 c 128,-1,47
 1251 1008 1251 1008 1174 1077.5 c 128,-1,48
 1097 1147 1097 1147 999.5 1184 c 128,-1,49
 902 1221 902 1221 793 1221 c 2,50,-1
 209 1221 l 2,51,52
 192 1221 192 1221 181 1233 c 128,-1,53
 170 1245 170 1245 170 1262 c 0,54,55
 170 1277 170 1277 181 1290 c 128,-1,56
 192 1303 192 1303 209 1303 c 2,57,-1
 799 1303 l 2,58,59
 922 1303 922 1303 1034.5 1258.5 c 128,-1,60
 1147 1214 1147 1214 1235 1133 c 128,-1,61
 1323 1052 1323 1052 1372 944 c 128,-1,62
 1421 836 1421 836 1421 711 c 0,63,64
 1421 546 1421 546 1335 409.5 c 128,-1,65
 1249 273 1249 273 1106 195 c 128,-1,66
 963 117 963 117 799 117 c 2,67,-1
 209 117 l 2,34,35
EndSplineSet
EndChar

StartChar: asterisk
Encoding: 42 42 13
Width: 1591
GlyphClass: 2
Flags: W
LayerCount: 2
Fore
SplineSet
301 -580 m 0,0,1
 301 -569 301 -569 303 -565 c 2,2,-1
 422 -281 l 1,3,-1
 250 -281 l 2,4,5
 233 -281 233 -281 222 -268 c 128,-1,6
 211 -255 211 -255 211 -240 c 0,7,8
 211 -223 211 -223 222 -211 c 128,-1,9
 233 -199 233 -199 250 -199 c 2,10,-1
 455 -199 l 1,11,-1
 600 147 l 1,12,13
 475 186 475 186 377 268.5 c 128,-1,14
 279 351 279 351 224.5 466 c 128,-1,15
 170 581 170 581 170 711 c 0,16,17
 170 875 170 875 256 1010.5 c 128,-1,18
 342 1146 342 1146 486 1224.5 c 128,-1,19
 630 1303 630 1303 793 1303 c 2,20,-1
 1081 1303 l 1,21,-1
 1212 1620 l 1,22,23
 1224 1645 1224 1645 1249 1645 c 0,24,25
 1266 1645 1266 1645 1278 1633 c 128,-1,26
 1290 1621 1290 1621 1290 1604 c 0,27,28
 1290 1593 1290 1593 1288 1589 c 2,29,-1
 1169 1303 l 1,30,-1
 1384 1303 l 2,31,32
 1400 1303 1400 1303 1410.5 1290 c 128,-1,33
 1421 1277 1421 1277 1421 1262 c 0,34,35
 1421 1245 1421 1245 1410.5 1233 c 128,-1,36
 1400 1221 1400 1221 1384 1221 c 2,37,-1
 1135 1221 l 1,38,-1
 713 205 l 1,39,40
 755 199 755 199 799 199 c 2,41,-1
 1384 199 l 2,42,43
 1400 199 1400 199 1410.5 186 c 128,-1,44
 1421 173 1421 173 1421 158 c 0,45,46
 1421 141 1421 141 1410.5 129 c 128,-1,47
 1400 117 1400 117 1384 117 c 2,48,-1
 793 117 l 2,49,50
 742 117 742 117 680 127 c 1,51,-1
 545 -199 l 1,52,-1
 1384 -199 l 2,53,54
 1400 -199 1400 -199 1410.5 -211 c 128,-1,55
 1421 -223 1421 -223 1421 -240 c 0,56,57
 1421 -255 1421 -255 1410.5 -268 c 128,-1,58
 1400 -281 1400 -281 1384 -281 c 2,59,-1
 510 -281 l 1,60,-1
 379 -596 l 2,61,62
 368 -621 368 -621 342 -621 c 0,63,64
 325 -621 325 -621 313 -608 c 128,-1,65
 301 -595 301 -595 301 -580 c 0,0,1
631 223 m 1,66,-1
 1047 1221 l 1,67,-1
 799 1221 l 2,68,69
 692 1221 692 1221 594 1184 c 128,-1,70
 496 1147 496 1147 417.5 1076.5 c 128,-1,71
 339 1006 339 1006 295.5 913.5 c 128,-1,72
 252 821 252 821 252 711 c 0,73,74
 252 599 252 599 302 498.5 c 128,-1,75
 352 398 352 398 438.5 326 c 128,-1,76
 525 254 525 254 631 223 c 1,66,-1
EndSplineSet
EndChar

StartChar: plus
Encoding: 43 43 14
Width: 1591
GlyphClass: 2
Flags: W
LayerCount: 2
Fore
SplineSet
301 -580 m 0,0,1
 301 -569 301 -569 303 -565 c 2,2,-1
 422 -281 l 1,3,-1
 209 -281 l 2,4,5
 192 -281 192 -281 181 -268 c 128,-1,6
 170 -255 170 -255 170 -240 c 0,7,8
 170 -223 170 -223 181 -211 c 128,-1,9
 192 -199 192 -199 209 -199 c 2,10,-1
 455 -199 l 1,11,-1
 588 117 l 1,12,-1
 209 117 l 2,13,14
 192 117 192 117 181 129 c 128,-1,15
 170 141 170 141 170 158 c 0,16,17
 170 173 170 173 181 186 c 128,-1,18
 192 199 192 199 209 199 c 2,19,-1
 621 199 l 1,20,-1
 1026 1174 l 1,21,22
 910 1221 910 1221 793 1221 c 2,23,-1
 209 1221 l 2,24,25
 192 1221 192 1221 181 1233 c 128,-1,26
 170 1245 170 1245 170 1262 c 0,27,28
 170 1277 170 1277 181 1290 c 128,-1,29
 192 1303 192 1303 209 1303 c 2,30,-1
 799 1303 l 2,31,32
 936 1303 936 1303 1057 1247 c 1,33,-1
 1212 1620 l 1,34,35
 1224 1645 1224 1645 1249 1645 c 0,36,37
 1266 1645 1266 1645 1278 1633 c 128,-1,38
 1290 1621 1290 1621 1290 1604 c 0,39,40
 1290 1593 1290 1593 1288 1589 c 2,41,-1
 1130 1210 l 1,42,43
 1219 1157 1219 1157 1284 1080 c 128,-1,44
 1349 1003 1349 1003 1385 906.5 c 128,-1,45
 1421 810 1421 810 1421 711 c 0,46,47
 1421 546 1421 546 1335 409.5 c 128,-1,48
 1249 273 1249 273 1106 195 c 128,-1,49
 963 117 963 117 799 117 c 2,50,-1
 676 117 l 1,51,-1
 545 -199 l 1,52,-1
 1343 -199 l 2,53,54
 1359 -199 1359 -199 1369.5 -211 c 128,-1,55
 1380 -223 1380 -223 1380 -240 c 0,56,57
 1380 -255 1380 -255 1369.5 -268 c 128,-1,58
 1359 -281 1359 -281 1343 -281 c 2,59,-1
 510 -281 l 1,60,-1
 379 -596 l 2,61,62
 368 -621 368 -621 342 -621 c 0,63,64
 325 -621 325 -621 313 -608 c 128,-1,65
 301 -595 301 -595 301 -580 c 0,0,1
709 199 m 1,66,-1
 793 199 l 2,67,68
 937 199 937 199 1062 265 c 128,-1,69
 1187 331 1187 331 1263 449.5 c 128,-1,70
 1339 568 1339 568 1339 711 c 0,71,72
 1339 774 1339 774 1322 836.5 c 128,-1,73
 1305 899 1305 899 1273.5 954.5 c 128,-1,74
 1242 1010 1242 1010 1199 1055 c 128,-1,75
 1156 1100 1156 1100 1100 1135 c 1,76,-1
 709 199 l 1,66,-1
EndSplineSet
EndChar

StartChar: comma
Encoding: 44 44 15
Width: 1024
GlyphClass: 2
Flags: W
LayerCount: 2
Fore
SplineSet
272 -475 m 2,0,-1
 272 213 l 1,1,-1
 31 -29 l 1,2,3
 15 -41 15 -41 0 -41 c 0,4,5
 -17 -41 -17 -41 -29 -29 c 128,-1,6
 -41 -17 -41 -17 -41 0 c 0,7,8
 -41 14 -41 14 -31 29 c 1,9,-1
 272 330 l 1,10,-1
 272 1499 l 2,11,12
 272 1515 272 1515 285 1525.5 c 128,-1,13
 298 1536 298 1536 313 1536 c 256,14,15
 328 1536 328 1536 341 1525.5 c 128,-1,16
 354 1515 354 1515 354 1499 c 2,17,-1
 354 412 l 1,18,-1
 670 729 l 1,19,-1
 670 1499 l 2,20,21
 670 1515 670 1515 682 1525.5 c 128,-1,22
 694 1536 694 1536 711 1536 c 0,23,24
 725 1536 725 1536 738.5 1525.5 c 128,-1,25
 752 1515 752 1515 752 1499 c 2,26,-1
 752 811 l 1,27,-1
 991 1053 l 1,28,29
 1007 1065 1007 1065 1022 1065 c 0,30,31
 1039 1065 1039 1065 1051 1053 c 128,-1,32
 1063 1041 1063 1041 1063 1024 c 0,33,34
 1063 1009 1063 1009 1053 997 c 1,35,-1
 752 694 l 1,36,-1
 752 -475 l 2,37,38
 752 -490 752 -490 738.5 -501 c 128,-1,39
 725 -512 725 -512 711 -512 c 0,40,41
 694 -512 694 -512 682 -501.5 c 128,-1,42
 670 -491 670 -491 670 -475 c 2,43,-1
 670 612 l 1,44,-1
 354 295 l 1,45,-1
 354 -475 l 2,46,47
 354 -491 354 -491 341 -501.5 c 128,-1,48
 328 -512 328 -512 313 -512 c 256,49,50
 298 -512 298 -512 285 -501.5 c 128,-1,51
 272 -491 272 -491 272 -475 c 2,0,-1
EndSplineSet
EndChar

StartChar: hyphen
Encoding: 45 45 16
Width: 567
GlyphClass: 2
Flags: W
LayerCount: 2
Fore
SplineSet
244 -475 m 2,0,-1
 244 676 l 1,1,-1
 31 485 l 1,2,3
 17 471 17 471 0 471 c 256,4,5
 -17 471 -17 471 -29 483 c 128,-1,6
 -41 495 -41 495 -41 512 c 0,7,8
 -41 526 -41 526 -31 541 c 1,9,-1
 244 786 l 1,10,-1
 244 1499 l 2,11,12
 244 1515 244 1515 256 1525.5 c 128,-1,13
 268 1536 268 1536 285 1536 c 0,14,15
 300 1536 300 1536 313 1525.5 c 128,-1,16
 326 1515 326 1515 326 1499 c 2,17,-1
 326 862 l 1,18,-1
 537 1053 l 1,19,20
 553 1065 553 1065 567 1065 c 0,21,22
 585 1065 585 1065 596.5 1054 c 128,-1,23
 608 1043 608 1043 608 1024 c 0,24,25
 608 1009 608 1009 598 997 c 1,26,-1
 326 750 l 1,27,-1
 326 -475 l 2,28,29
 326 -491 326 -491 313 -501.5 c 128,-1,30
 300 -512 300 -512 285 -512 c 0,31,32
 268 -512 268 -512 256 -501.5 c 128,-1,33
 244 -491 244 -491 244 -475 c 2,0,-1
EndSplineSet
EndChar

StartChar: period
Encoding: 46 46 17
Width: 455
GlyphClass: 2
Flags: W
LayerCount: 2
Fore
SplineSet
186 -8 m 2,0,-1
 186 412 l 1,1,-1
 31 250 l 2,2,3
 19 238 19 238 0 238 c 0,4,5
 -17 238 -17 238 -29 250 c 128,-1,6
 -41 262 -41 262 -41 279 c 0,7,8
 -41 295 -41 295 -31 305 c 2,9,-1
 186 530 l 1,10,-1
 186 846 l 2,11,12
 186 861 186 861 199 872 c 128,-1,13
 212 883 212 883 227 883 c 0,14,15
 244 883 244 883 256 872 c 128,-1,16
 268 861 268 861 268 846 c 2,17,-1
 268 614 l 1,18,-1
 422 774 l 2,19,20
 434 786 434 786 453 786 c 0,21,22
 470 786 470 786 482 774 c 128,-1,23
 494 762 494 762 494 745 c 0,24,25
 494 730 494 730 483 719 c 2,26,-1
 268 496 l 1,27,-1
 268 -8 l 2,28,29
 268 -24 268 -24 256 -34.5 c 128,-1,30
 244 -45 244 -45 227 -45 c 0,31,32
 212 -45 212 -45 199 -34.5 c 128,-1,33
 186 -24 186 -24 186 -8 c 2,0,-1
EndSplineSet
EndChar

StartChar: slash
Encoding: 47 47 18
Width: 795
GlyphClass: 2
Flags: W
LayerCount: 2
Fore
SplineSet
115 -8 m 2,0,-1
 115 297 l 1,1,-1
 23 244 l 1,2,3
 10 238 10 238 0 238 c 0,4,5
 -17 238 -17 238 -29 250 c 128,-1,6
 -41 262 -41 262 -41 279 c 0,7,8
 -41 301 -41 301 -25 311 c 2,9,-1
 115 393 l 1,10,-1
 115 846 l 2,11,12
 115 861 115 861 127 872 c 128,-1,13
 139 883 139 883 156 883 c 0,14,15
 170 883 170 883 183.5 871.5 c 128,-1,16
 197 860 197 860 197 846 c 2,17,-1
 197 440 l 1,18,-1
 598 678 l 1,19,-1
 598 846 l 2,20,21
 598 860 598 860 611.5 871.5 c 128,-1,22
 625 883 625 883 639 883 c 0,23,24
 654 883 654 883 667 872 c 128,-1,25
 680 861 680 861 680 846 c 2,26,-1
 680 727 l 1,27,-1
 774 780 l 2,28,29
 783 786 783 786 795 786 c 0,30,31
 812 786 812 786 824 774 c 128,-1,32
 836 762 836 762 836 745 c 0,33,34
 836 723 836 723 819 713 c 2,35,-1
 680 631 l 1,36,-1
 680 -8 l 2,37,38
 680 -24 680 -24 667 -34.5 c 128,-1,39
 654 -45 654 -45 639 -45 c 0,40,41
 625 -45 625 -45 611.5 -34.5 c 128,-1,42
 598 -24 598 -24 598 -8 c 2,43,-1
 598 584 l 1,44,-1
 197 346 l 1,45,-1
 197 -8 l 2,46,47
 197 -23 197 -23 183.5 -34 c 128,-1,48
 170 -45 170 -45 156 -45 c 0,49,50
 139 -45 139 -45 127 -34.5 c 128,-1,51
 115 -24 115 -24 115 -8 c 2,0,-1
EndSplineSet
EndChar

StartChar: zero
Encoding: 48 48 19
Width: 1251
GlyphClass: 2
Flags: W
LayerCount: 2
Fore
SplineSet
-115 41 m 0,0,1
 -115 56 -115 56 -104 70 c 2,2,-1
 115 319 l 1,3,-1
 115 1384 l 2,4,5
 115 1400 115 1400 127 1410.5 c 128,-1,6
 139 1421 139 1421 156 1421 c 0,7,8
 171 1421 171 1421 184 1410.5 c 128,-1,9
 197 1400 197 1400 197 1384 c 2,10,-1
 197 752 l 1,11,-1
 492 752 l 1,12,-1
 1063 1409 l 1,13,14
 1075 1421 1075 1421 1094 1421 c 0,15,16
 1111 1421 1111 1421 1123 1409 c 128,-1,17
 1135 1397 1135 1397 1135 1380 c 0,18,19
 1135 1361 1135 1361 1124 1354 c 1,20,-1
 602 752 l 1,21,-1
 1098 752 l 2,22,23
 1113 752 1113 752 1124 739 c 128,-1,24
 1135 726 1135 726 1135 711 c 0,25,26
 1135 694 1135 694 1124 682 c 128,-1,27
 1113 670 1113 670 1098 670 c 2,28,-1
 530 670 l 1,29,-1
 197 287 l 1,30,-1
 197 39 l 2,31,32
 197 22 197 22 184 11 c 128,-1,33
 171 0 171 0 156 0 c 0,34,35
 139 0 139 0 127 11 c 128,-1,36
 115 22 115 22 115 39 c 2,37,-1
 115 193 l 1,38,-1
 -43 14 l 1,39,40
 -51 0 -51 0 -74 0 c 0,41,42
 -88 0 -88 0 -101.5 11.5 c 128,-1,43
 -115 23 -115 23 -115 41 c 0,0,1
197 414 m 1,44,-1
 420 670 l 1,45,-1
 197 670 l 1,46,-1
 197 414 l 1,44,-1
EndSplineSet
EndChar

StartChar: one
Encoding: 49 49 20
Width: 1479
GlyphClass: 2
Flags: W
LayerCount: 2
Fore
SplineSet
-115 41 m 0,0,1
 -115 56 -115 56 -104 70 c 1,2,-1
 115 279 l 1,3,-1
 115 1384 l 2,4,5
 115 1400 115 1400 127 1410.5 c 128,-1,6
 139 1421 139 1421 156 1421 c 0,7,8
 171 1421 171 1421 184 1410.5 c 128,-1,9
 197 1400 197 1400 197 1384 c 2,10,-1
 197 356 l 1,11,-1
 512 659 l 1,12,-1
 512 1384 l 2,13,14
 512 1400 512 1400 524 1410.5 c 128,-1,15
 536 1421 536 1421 553 1421 c 0,16,17
 568 1421 568 1421 581 1410.5 c 128,-1,18
 594 1400 594 1400 594 1384 c 2,19,-1
 594 752 l 1,20,-1
 608 752 l 1,21,-1
 1290 1409 l 1,22,23
 1310 1421 1310 1421 1321 1421 c 0,24,25
 1338 1421 1338 1421 1350 1409 c 128,-1,26
 1362 1397 1362 1397 1362 1380 c 0,27,28
 1362 1362 1362 1362 1352 1354 c 1,29,-1
 727 752 l 1,30,-1
 1325 752 l 2,31,32
 1341 752 1341 752 1351.5 739 c 128,-1,33
 1362 726 1362 726 1362 711 c 0,34,35
 1362 694 1362 694 1351.5 682 c 128,-1,36
 1341 670 1341 670 1325 670 c 2,37,-1
 641 670 l 1,38,-1
 594 625 l 1,39,-1
 594 39 l 2,40,41
 594 22 594 22 581 11 c 128,-1,42
 568 0 568 0 553 0 c 0,43,44
 536 0 536 0 524 11 c 128,-1,45
 512 22 512 22 512 39 c 2,46,-1
 512 545 l 1,47,-1
 197 242 l 1,48,-1
 197 39 l 2,49,50
 197 22 197 22 184 11 c 128,-1,51
 171 0 171 0 156 0 c 0,52,53
 139 0 139 0 127 11 c 128,-1,54
 115 22 115 22 115 39 c 2,55,-1
 115 164 l 1,56,-1
 -43 14 l 2,57,58
 -57 0 -57 0 -74 0 c 0,59,60
 -88 0 -88 0 -101.5 11.5 c 128,-1,61
 -115 23 -115 23 -115 41 c 0,0,1
EndSplineSet
EndChar

StartChar: two
Encoding: 50 50 21
Width: 1251
GlyphClass: 2
Flags: W
LayerCount: 2
Fore
SplineSet
-115 41 m 0,0,1
 -115 56 -115 56 -104 70 c 2,2,-1
 115 319 l 1,3,-1
 115 1384 l 2,4,5
 115 1400 115 1400 127 1410.5 c 128,-1,6
 139 1421 139 1421 156 1421 c 0,7,8
 171 1421 171 1421 184 1410.5 c 128,-1,9
 197 1400 197 1400 197 1384 c 2,10,-1
 197 950 l 1,11,-1
 666 950 l 1,12,-1
 1063 1409 l 1,13,14
 1075 1421 1075 1421 1094 1421 c 0,15,16
 1111 1421 1111 1421 1123 1409 c 128,-1,17
 1135 1397 1135 1397 1135 1380 c 0,18,19
 1135 1361 1135 1361 1124 1354 c 1,20,-1
 774 950 l 1,21,-1
 1098 950 l 2,22,23
 1113 950 1113 950 1124 938 c 128,-1,24
 1135 926 1135 926 1135 909 c 0,25,26
 1135 894 1135 894 1124 881 c 128,-1,27
 1113 868 1113 868 1098 868 c 2,28,-1
 702 868 l 1,29,-1
 428 553 l 1,30,-1
 1098 553 l 2,31,32
 1113 553 1113 553 1124 540 c 128,-1,33
 1135 527 1135 527 1135 512 c 256,34,35
 1135 497 1135 497 1124 484 c 128,-1,36
 1113 471 1113 471 1098 471 c 2,37,-1
 356 471 l 1,38,-1
 197 287 l 1,39,-1
 197 39 l 2,40,41
 197 22 197 22 184 11 c 128,-1,42
 171 0 171 0 156 0 c 0,43,44
 139 0 139 0 127 11 c 128,-1,45
 115 22 115 22 115 39 c 2,46,-1
 115 193 l 1,47,-1
 -43 14 l 1,48,49
 -51 0 -51 0 -74 0 c 0,50,51
 -88 0 -88 0 -101.5 11.5 c 128,-1,52
 -115 23 -115 23 -115 41 c 0,0,1
197 414 m 1,53,-1
 248 471 l 1,54,-1
 197 471 l 1,55,-1
 197 414 l 1,53,-1
197 553 m 1,56,-1
 319 553 l 1,57,-1
 594 868 l 1,58,-1
 197 868 l 1,59,-1
 197 553 l 1,56,-1
EndSplineSet
EndChar

StartChar: three
Encoding: 51 51 22
Width: 1479
GlyphClass: 2
Flags: W
LayerCount: 2
Fore
SplineSet
-115 41 m 0,0,1
 -115 56 -115 56 -104 70 c 1,2,-1
 115 279 l 1,3,-1
 115 1384 l 2,4,5
 115 1400 115 1400 127 1410.5 c 128,-1,6
 139 1421 139 1421 156 1421 c 0,7,8
 171 1421 171 1421 184 1410.5 c 128,-1,9
 197 1400 197 1400 197 1384 c 2,10,-1
 197 356 l 1,11,-1
 512 659 l 1,12,-1
 512 1384 l 2,13,14
 512 1400 512 1400 524 1410.5 c 128,-1,15
 536 1421 536 1421 553 1421 c 0,16,17
 568 1421 568 1421 581 1410.5 c 128,-1,18
 594 1400 594 1400 594 1384 c 2,19,-1
 594 950 l 1,20,-1
 815 950 l 1,21,-1
 1290 1409 l 1,22,23
 1310 1421 1310 1421 1321 1421 c 0,24,25
 1338 1421 1338 1421 1350 1409 c 128,-1,26
 1362 1397 1362 1397 1362 1380 c 0,27,28
 1362 1362 1362 1362 1352 1354 c 1,29,-1
 934 950 l 1,30,-1
 1325 950 l 2,31,32
 1341 950 1341 950 1351.5 938 c 128,-1,33
 1362 926 1362 926 1362 909 c 0,34,35
 1362 894 1362 894 1351.5 881 c 128,-1,36
 1341 868 1341 868 1325 868 c 2,37,-1
 848 868 l 1,38,-1
 594 625 l 1,39,-1
 594 553 l 1,40,-1
 1325 553 l 2,41,42
 1341 553 1341 553 1351.5 540 c 128,-1,43
 1362 527 1362 527 1362 512 c 256,44,45
 1362 497 1362 497 1351.5 484 c 128,-1,46
 1341 471 1341 471 1325 471 c 2,47,-1
 594 471 l 1,48,-1
 594 39 l 2,49,50
 594 22 594 22 581 11 c 128,-1,51
 568 0 568 0 553 0 c 0,52,53
 536 0 536 0 524 11 c 128,-1,54
 512 22 512 22 512 39 c 2,55,-1
 512 545 l 1,56,-1
 197 242 l 1,57,-1
 197 39 l 2,58,59
 197 22 197 22 184 11 c 128,-1,60
 171 0 171 0 156 0 c 0,61,62
 139 0 139 0 127 11 c 128,-1,63
 115 22 115 22 115 39 c 2,64,-1
 115 164 l 1,65,-1
 -43 14 l 2,66,67
 -57 0 -57 0 -74 0 c 0,68,69
 -88 0 -88 0 -101.5 11.5 c 128,-1,70
 -115 23 -115 23 -115 41 c 0,0,1
594 739 m 1,71,-1
 729 868 l 1,72,-1
 594 868 l 1,73,-1
 594 739 l 1,71,-1
EndSplineSet
EndChar

StartChar: four
Encoding: 52 52 23
Width: 1591
GlyphClass: 2
Flags: W
LayerCount: 2
Fore
SplineSet
356 -580 m 0,0,1
 356 -573 356 -573 358 -571 c 1,2,-1
 463 -281 l 1,3,-1
 209 -281 l 2,4,5
 193 -281 193 -281 181.5 -267.5 c 128,-1,6
 170 -254 170 -254 170 -240 c 0,7,8
 170 -223 170 -223 181 -211 c 128,-1,9
 192 -199 192 -199 209 -199 c 2,10,-1
 494 -199 l 1,11,-1
 688 338 l 1,12,-1
 227 121 l 1,13,14
 215 117 215 117 211 117 c 0,15,16
 194 117 194 117 182 128 c 128,-1,17
 170 139 170 139 170 156 c 2,18,-1
 170 1266 l 2,19,20
 170 1281 170 1281 182 1292 c 128,-1,21
 194 1303 194 1303 211 1303 c 0,22,23
 221 1303 221 1303 227 1300 c 2,24,-1
 920 973 l 1,25,-1
 1155 1620 l 1,26,27
 1166 1645 1166 1645 1194 1645 c 0,28,29
 1211 1645 1211 1645 1223 1633 c 128,-1,30
 1235 1621 1235 1621 1235 1604 c 0,31,32
 1235 1597 1235 1597 1233 1595 c 1,33,-1
 993 938 l 1,34,-1
 1397 748 l 2,35,36
 1421 736 1421 736 1421 711 c 0,37,38
 1421 685 1421 685 1403 676 c 2,39,-1
 795 389 l 1,40,-1
 580 -199 l 1,41,-1
 1384 -199 l 2,42,43
 1400 -199 1400 -199 1410.5 -211 c 128,-1,44
 1421 -223 1421 -223 1421 -240 c 0,45,46
 1421 -254 1421 -254 1410.5 -267.5 c 128,-1,47
 1400 -281 1400 -281 1384 -281 c 2,48,-1
 551 -281 l 1,49,-1
 436 -596 l 1,50,51
 425 -621 425 -621 397 -621 c 0,52,53
 382 -621 382 -621 369 -608 c 128,-1,54
 356 -595 356 -595 356 -580 c 0,0,1
252 223 m 1,55,-1
 729 449 l 1,56,-1
 893 895 l 1,57,-1
 252 1198 l 1,58,-1
 252 223 l 1,55,-1
834 498 m 1,59,-1
 1284 711 l 1,60,-1
 967 860 l 1,61,-1
 834 498 l 1,59,-1
EndSplineSet
EndChar

StartChar: five
Encoding: 53 53 24
Width: 1591
GlyphClass: 2
Flags: W
LayerCount: 2
Fore
SplineSet
356 -580 m 0,0,1
 356 -573 356 -573 358 -571 c 1,2,-1
 463 -281 l 1,3,-1
 209 -281 l 2,4,5
 193 -281 193 -281 181.5 -267.5 c 128,-1,6
 170 -254 170 -254 170 -240 c 0,7,8
 170 -223 170 -223 181 -211 c 128,-1,9
 192 -199 192 -199 209 -199 c 2,10,-1
 494 -199 l 1,11,-1
 721 424 l 1,12,-1
 197 672 l 2,13,14
 170 685 170 685 170 711 c 0,15,16
 170 736 170 736 190 745 c 2,17,-1
 971 1114 l 1,18,-1
 1155 1620 l 1,19,20
 1166 1645 1166 1645 1194 1645 c 0,21,22
 1211 1645 1211 1645 1223 1633 c 128,-1,23
 1235 1621 1235 1621 1235 1604 c 0,24,25
 1235 1597 1235 1597 1233 1595 c 1,26,-1
 1077 1163 l 1,27,-1
 1366 1300 l 2,28,29
 1370 1303 1370 1303 1380 1303 c 0,30,31
 1397 1303 1397 1303 1409 1292 c 128,-1,32
 1421 1281 1421 1281 1421 1266 c 2,33,-1
 1421 156 l 2,34,35
 1421 139 1421 139 1409 128 c 128,-1,36
 1397 117 1397 117 1380 117 c 0,37,38
 1374 117 1374 117 1366 121 c 2,39,-1
 795 389 l 1,40,-1
 580 -199 l 1,41,-1
 1384 -199 l 2,42,43
 1400 -199 1400 -199 1410.5 -211 c 128,-1,44
 1421 -223 1421 -223 1421 -240 c 0,45,46
 1421 -254 1421 -254 1410.5 -267.5 c 128,-1,47
 1400 -281 1400 -281 1384 -281 c 2,48,-1
 551 -281 l 1,49,-1
 436 -596 l 1,50,51
 425 -621 425 -621 397 -621 c 0,52,53
 382 -621 382 -621 369 -608 c 128,-1,54
 356 -595 356 -595 356 -580 c 0,0,1
823 467 m 1,55,-1
 1339 223 l 1,56,-1
 1339 1198 l 1,57,-1
 1036 1055 l 1,58,-1
 823 467 l 1,55,-1
307 711 m 1,59,-1
 748 502 l 1,60,-1
 932 1006 l 1,61,-1
 307 711 l 1,59,-1
EndSplineSet
EndChar

StartChar: six
Encoding: 54 54 25
Width: 1591
GlyphClass: 2
Flags: W
LayerCount: 2
Fore
SplineSet
356 -381 m 0,0,1
 356 -375 356 -375 360 -367 c 2,2,-1
 641 264 l 1,3,-1
 197 473 l 2,4,5
 170 486 170 486 170 512 c 256,6,7
 170 538 170 538 190 547 c 2,8,-1
 920 891 l 1,9,-1
 1155 1421 l 1,10,11
 1168 1446 1168 1446 1194 1446 c 0,12,13
 1211 1446 1211 1446 1223 1434 c 128,-1,14
 1235 1422 1235 1422 1235 1405 c 0,15,16
 1235 1399 1235 1399 1231 1391 c 2,17,-1
 1034 944 l 1,18,-1
 1366 1102 l 2,19,20
 1370 1104 1370 1104 1380 1104 c 0,21,22
 1397 1104 1397 1104 1409 1093 c 128,-1,23
 1421 1082 1421 1082 1421 1067 c 2,24,-1
 1421 -43 l 2,25,26
 1421 -60 1421 -60 1409 -71 c 128,-1,27
 1397 -82 1397 -82 1380 -82 c 0,28,29
 1374 -82 1374 -82 1366 -78 c 2,30,-1
 715 229 l 1,31,-1
 436 -397 l 1,32,33
 423 -422 423 -422 397 -422 c 0,34,35
 382 -422 382 -422 369 -409 c 128,-1,36
 356 -396 356 -396 356 -381 c 0,0,1
748 303 m 1,37,-1
 1339 25 l 1,38,-1
 1339 999 l 1,39,-1
 983 831 l 1,40,-1
 748 303 l 1,37,-1
307 512 m 1,41,-1
 674 338 l 1,42,-1
 868 776 l 1,43,-1
 307 512 l 1,41,-1
EndSplineSet
EndChar

StartChar: seven
Encoding: 55 55 26
Width: 1591
GlyphClass: 2
Flags: W
LayerCount: 2
Fore
SplineSet
356 -381 m 0,0,1
 356 -375 356 -375 360 -367 c 2,2,-1
 557 78 l 1,3,-1
 227 -78 l 1,4,5
 215 -82 215 -82 211 -82 c 0,6,7
 194 -82 194 -82 182 -71 c 128,-1,8
 170 -60 170 -60 170 -43 c 2,9,-1
 170 1067 l 2,10,11
 170 1082 170 1082 182 1093 c 128,-1,12
 194 1104 194 1104 211 1104 c 0,13,14
 221 1104 221 1104 227 1102 c 2,15,-1
 877 795 l 1,16,-1
 1155 1421 l 1,17,18
 1168 1446 1168 1446 1194 1446 c 0,19,20
 1211 1446 1211 1446 1223 1434 c 128,-1,21
 1235 1422 1235 1422 1235 1405 c 0,22,23
 1235 1399 1235 1399 1231 1391 c 2,24,-1
 950 760 l 1,25,-1
 1397 549 l 1,26,27
 1421 539 1421 539 1421 512 c 0,28,29
 1421 486 1421 486 1403 477 c 2,30,-1
 672 131 l 1,31,-1
 436 -397 l 1,32,33
 423 -422 423 -422 397 -422 c 0,34,35
 382 -422 382 -422 369 -409 c 128,-1,36
 356 -396 356 -396 356 -381 c 0,0,1
252 25 m 1,37,-1
 608 193 l 1,38,-1
 844 721 l 1,39,-1
 252 999 l 1,40,-1
 252 25 l 1,37,-1
721 246 m 1,41,-1
 1284 512 l 1,42,-1
 918 684 l 1,43,-1
 721 246 l 1,41,-1
EndSplineSet
EndChar

StartChar: eight
Encoding: 56 56 27
Width: 2048
GlyphClass: 2
Flags: W
LayerCount: 2
Fore
SplineSet
420 170 m 1,0,1
 381 278 381 278 300 368.5 c 128,-1,2
 219 459 219 459 115 512 c 1,3,4
 219 565 219 565 299.5 655 c 128,-1,5
 380 745 380 745 420 854 c 1,6,-1
 492 854 l 1,7,8
 473 802 473 802 441 745.5 c 128,-1,9
 409 689 409 689 370.5 641.5 c 128,-1,10
 332 594 332 594 287 553 c 1,11,-1
 1001 553 l 1,12,-1
 1221 881 l 1,13,14
 1224 888 1224 888 1233 891.5 c 128,-1,15
 1242 895 1242 895 1251 895 c 0,16,17
 1269 895 1269 895 1280.5 884 c 128,-1,18
 1292 873 1292 873 1292 854 c 0,19,20
 1292 842 1292 842 1286 831 c 1,21,-1
 1100 553 l 1,22,-1
 1890 553 l 2,23,24
 1908 553 1908 553 1919.5 542 c 128,-1,25
 1931 531 1931 531 1931 512 c 0,26,27
 1931 494 1931 494 1919 482.5 c 128,-1,28
 1907 471 1907 471 1890 471 c 2,29,-1
 1044 471 l 1,30,-1
 825 143 l 1,31,32
 818 129 818 129 795 129 c 0,33,34
 777 129 777 129 765.5 142.5 c 128,-1,35
 754 156 754 156 754 170 c 0,36,37
 754 182 754 182 760 193 c 1,38,-1
 946 471 l 1,39,-1
 287 471 l 1,40,41
 358 406 358 406 410 329.5 c 128,-1,42
 462 253 462 253 492 170 c 1,43,-1
 420 170 l 1,0,1
EndSplineSet
EndChar

StartChar: nine
Encoding: 57 57 28
Width: 2048
GlyphClass: 2
Flags: W
LayerCount: 2
Fore
SplineSet
156 471 m 2,0,1
 139 471 139 471 127 483 c 128,-1,2
 115 495 115 495 115 512 c 256,3,4
 115 529 115 529 126 541 c 128,-1,5
 137 553 137 553 156 553 c 2,6,-1
 1001 553 l 1,7,-1
 1221 881 l 1,8,9
 1224 888 1224 888 1233 891.5 c 128,-1,10
 1242 895 1242 895 1251 895 c 0,11,12
 1269 895 1269 895 1280.5 884 c 128,-1,13
 1292 873 1292 873 1292 854 c 0,14,15
 1292 842 1292 842 1286 831 c 1,16,-1
 1100 553 l 1,17,-1
 1759 553 l 1,18,19
 1714 594 1714 594 1675.5 641.5 c 128,-1,20
 1637 689 1637 689 1605 745.5 c 128,-1,21
 1573 802 1573 802 1554 854 c 1,22,-1
 1626 854 l 1,23,24
 1669 742 1669 742 1747.5 654.5 c 128,-1,25
 1826 567 1826 567 1931 512 c 1,26,27
 1826 457 1826 457 1747 369 c 128,-1,28
 1668 281 1668 281 1626 170 c 1,29,-1
 1554 170 l 1,30,31
 1587 258 1587 258 1639 333.5 c 128,-1,32
 1691 409 1691 409 1759 471 c 1,33,-1
 1044 471 l 1,34,-1
 825 143 l 1,35,36
 818 129 818 129 795 129 c 0,37,38
 777 129 777 129 765.5 142.5 c 128,-1,39
 754 156 754 156 754 170 c 0,40,41
 754 182 754 182 760 193 c 1,42,-1
 946 471 l 1,43,-1
 156 471 l 2,0,1
EndSplineSet
EndChar

StartChar: colon
Encoding: 58 58 29
Width: 2048
GlyphClass: 2
Flags: W
LayerCount: 2
Fore
SplineSet
115 512 m 1,0,1
 217 541 217 541 314.5 594 c 128,-1,2
 412 647 412 647 494 716 c 128,-1,3
 576 785 576 785 642 869 c 128,-1,4
 708 953 708 953 756 1053 c 1,5,-1
 838 1053 l 1,6,7
 796 966 796 966 745.5 893 c 128,-1,8
 695 820 695 820 629 752 c 1,9,-1
 1270 752 l 1,10,-1
 1403 1067 l 1,11,12
 1413 1094 1413 1094 1442 1094 c 0,13,14
 1457 1094 1457 1094 1470 1081 c 128,-1,15
 1483 1068 1483 1068 1483 1053 c 0,16,17
 1483 1044 1483 1044 1479 1036 c 2,18,-1
 1358 752 l 1,19,-1
 1894 752 l 2,20,21
 1910 752 1910 752 1920.5 739 c 128,-1,22
 1931 726 1931 726 1931 711 c 0,23,24
 1931 694 1931 694 1920.5 682 c 128,-1,25
 1910 670 1910 670 1894 670 c 2,26,-1
 1325 670 l 1,27,-1
 1192 354 l 1,28,-1
 1894 354 l 2,29,30
 1910 354 1910 354 1920.5 342 c 128,-1,31
 1931 330 1931 330 1931 313 c 0,32,33
 1931 298 1931 298 1920.5 285 c 128,-1,34
 1910 272 1910 272 1894 272 c 2,35,-1
 1157 272 l 1,36,-1
 1024 -43 l 1,37,38
 1014 -70 1014 -70 985 -70 c 0,39,40
 970 -70 970 -70 957 -57 c 128,-1,41
 944 -44 944 -44 944 -29 c 0,42,43
 944 -20 944 -20 948 -12 c 2,44,-1
 1069 272 l 1,45,-1
 629 272 l 1,46,47
 695 204 695 204 746.5 129.5 c 128,-1,48
 798 55 798 55 838 -29 c 1,49,-1
 756 -29 l 1,50,51
 710 69 710 69 643 155 c 128,-1,52
 576 241 576 241 492.5 310.5 c 128,-1,53
 409 380 409 380 315 431 c 128,-1,54
 221 482 221 482 115 512 c 1,0,1
301 512 m 1,55,56
 433 446 433 446 543 354 c 1,57,-1
 1102 354 l 1,58,-1
 1235 670 l 1,59,-1
 543 670 l 1,60,61
 433 578 433 578 301 512 c 1,55,56
EndSplineSet
EndChar

StartChar: semicolon
Encoding: 59 59 30
Width: 2048
GlyphClass: 2
Flags: W
LayerCount: 2
Fore
SplineSet
154 272 m 2,0,1
 137 272 137 272 126 285 c 128,-1,2
 115 298 115 298 115 313 c 0,3,4
 115 330 115 330 126 342 c 128,-1,5
 137 354 137 354 154 354 c 2,6,-1
 721 354 l 1,7,-1
 854 670 l 1,8,-1
 154 670 l 2,9,10
 137 670 137 670 126 682 c 128,-1,11
 115 694 115 694 115 711 c 0,12,13
 115 726 115 726 126 739 c 128,-1,14
 137 752 137 752 154 752 c 2,15,-1
 889 752 l 1,16,-1
 1022 1067 l 1,17,18
 1032 1094 1032 1094 1061 1094 c 0,19,20
 1076 1094 1076 1094 1089 1081 c 128,-1,21
 1102 1068 1102 1068 1102 1053 c 0,22,23
 1102 1044 1102 1044 1098 1036 c 2,24,-1
 977 752 l 1,25,-1
 1417 752 l 1,26,27
 1287 889 1287 889 1208 1053 c 1,28,-1
 1290 1053 l 1,29,30
 1339 953 1339 953 1404.5 869 c 128,-1,31
 1470 785 1470 785 1552 716 c 128,-1,32
 1634 647 1634 647 1732.5 594 c 128,-1,33
 1831 541 1831 541 1931 512 c 1,34,35
 1826 482 1826 482 1731.5 431 c 128,-1,36
 1637 380 1637 380 1553.5 310.5 c 128,-1,37
 1470 241 1470 241 1403.5 155 c 128,-1,38
 1337 69 1337 69 1290 -29 c 1,39,-1
 1208 -29 l 1,40,41
 1287 135 1287 135 1417 272 c 1,42,-1
 776 272 l 1,43,-1
 643 -43 l 1,44,45
 633 -70 633 -70 604 -70 c 0,46,47
 589 -70 589 -70 576 -57 c 128,-1,48
 563 -44 563 -44 563 -29 c 0,49,50
 563 -20 563 -20 567 -12 c 2,51,-1
 688 272 l 1,52,-1
 154 272 l 2,0,1
811 354 m 1,53,-1
 1503 354 l 1,54,55
 1613 446 1613 446 1745 512 c 1,56,57
 1613 578 1613 578 1503 670 c 1,58,-1
 944 670 l 1,59,-1
 811 354 l 1,53,-1
EndSplineSet
EndChar

StartChar: less
Encoding: 60 60 31
Width: 2048
GlyphClass: 2
Flags: W
LayerCount: 2
Fore
SplineSet
598 -29 m 1,0,1
 524 154 524 154 386 295.5 c 128,-1,2
 248 437 248 437 70 512 c 1,3,4
 248 587 248 587 386 728.5 c 128,-1,5
 524 870 524 870 598 1053 c 1,6,-1
 680 1053 l 1,7,8
 614 890 614 890 502 752 c 1,9,-1
 1057 752 l 1,10,-1
 1155 1067 l 1,11,12
 1165 1094 1165 1094 1194 1094 c 0,13,14
 1211 1094 1211 1094 1223 1082 c 128,-1,15
 1235 1070 1235 1070 1235 1053 c 0,16,17
 1235 1047 1235 1047 1233 1042 c 2,18,-1
 1141 752 l 1,19,-1
 1544 752 l 1,20,21
 1491 816 1491 816 1446 892.5 c 128,-1,22
 1401 969 1401 969 1366 1053 c 1,23,-1
 1448 1053 l 1,24,25
 1522 870 1522 870 1659.5 729.5 c 128,-1,26
 1797 589 1797 589 1976 512 c 1,27,28
 1797 435 1797 435 1659.5 294.5 c 128,-1,29
 1522 154 1522 154 1448 -29 c 1,30,-1
 1366 -29 l 1,31,32
 1399 52 1399 52 1443.5 128 c 128,-1,33
 1488 204 1488 204 1544 272 c 1,34,-1
 989 272 l 1,35,-1
 891 -43 l 1,36,37
 881 -70 881 -70 852 -70 c 0,38,39
 835 -70 835 -70 823 -57 c 128,-1,40
 811 -44 811 -44 811 -29 c 0,41,42
 811 -23 811 -23 813 -18 c 2,43,-1
 905 272 l 1,44,-1
 502 272 l 1,45,46
 614 134 614 134 680 -29 c 1,47,-1
 598 -29 l 1,0,1
229 512 m 1,48,49
 337 444 337 444 426 354 c 1,50,-1
 930 354 l 1,51,-1
 1030 670 l 1,52,-1
 426 670 l 1,53,54
 337 580 337 580 229 512 c 1,48,49
1016 354 m 1,55,-1
 1620 354 l 1,56,57
 1709 444 1709 444 1817 512 c 1,58,59
 1709 580 1709 580 1620 670 c 1,60,-1
 1116 670 l 1,61,-1
 1016 354 l 1,55,-1
EndSplineSet
EndChar

StartChar: equal
Encoding: 61 61 32
Width: 2048
GlyphClass: 2
Flags: W
LayerCount: 2
Fore
SplineSet
420 170 m 1,0,1
 381 278 381 278 300 368.5 c 128,-1,2
 219 459 219 459 115 512 c 1,3,4
 219 565 219 565 299.5 655 c 128,-1,5
 380 745 380 745 420 854 c 1,6,-1
 492 854 l 1,7,8
 473 802 473 802 441 745.5 c 128,-1,9
 409 689 409 689 370.5 641.5 c 128,-1,10
 332 594 332 594 287 553 c 1,11,-1
 1001 553 l 1,12,-1
 1221 881 l 1,13,14
 1224 888 1224 888 1233 891.5 c 128,-1,15
 1242 895 1242 895 1251 895 c 0,16,17
 1269 895 1269 895 1280.5 884 c 128,-1,18
 1292 873 1292 873 1292 854 c 0,19,20
 1292 842 1292 842 1286 831 c 1,21,-1
 1100 553 l 1,22,-1
 1759 553 l 1,23,24
 1714 594 1714 594 1675.5 641.5 c 128,-1,25
 1637 689 1637 689 1605 745.5 c 128,-1,26
 1573 802 1573 802 1554 854 c 1,27,-1
 1626 854 l 1,28,29
 1669 742 1669 742 1747.5 654.5 c 128,-1,30
 1826 567 1826 567 1931 512 c 1,31,32
 1826 457 1826 457 1747 369 c 128,-1,33
 1668 281 1668 281 1626 170 c 1,34,-1
 1554 170 l 1,35,36
 1587 258 1587 258 1639 333.5 c 128,-1,37
 1691 409 1691 409 1759 471 c 1,38,-1
 1044 471 l 1,39,-1
 825 143 l 1,40,41
 818 129 818 129 795 129 c 0,42,43
 777 129 777 129 765.5 142.5 c 128,-1,44
 754 156 754 156 754 170 c 0,45,46
 754 182 754 182 760 193 c 1,47,-1
 946 471 l 1,48,-1
 287 471 l 1,49,50
 358 406 358 406 410 329.5 c 128,-1,51
 462 253 462 253 492 170 c 1,52,-1
 420 170 l 1,0,1
EndSplineSet
EndChar

StartChar: greater
Encoding: 62 62 33
Width: 1591
GlyphClass: 2
Flags: W
LayerCount: 2
Fore
SplineSet
643 70 m 256,0,1
 643 132 643 132 688.5 177.5 c 128,-1,2
 734 223 734 223 797 223 c 0,3,4
 837 223 837 223 873 202.5 c 128,-1,5
 909 182 909 182 929.5 146 c 128,-1,6
 950 110 950 110 950 70 c 0,7,8
 950 7 950 7 904.5 -38.5 c 128,-1,9
 859 -84 859 -84 797 -84 c 256,10,11
 735 -84 735 -84 689 -38 c 128,-1,12
 643 8 643 8 643 70 c 256,0,1
301 59 m 0,13,14
 301 75 301 75 311 88 c 1,15,-1
 696 471 l 1,16,-1
 154 471 l 2,17,18
 137 471 137 471 126 484 c 128,-1,19
 115 497 115 497 115 512 c 256,20,21
 115 527 115 527 126 540 c 128,-1,22
 137 553 137 553 154 553 c 2,23,-1
 696 553 l 1,24,-1
 311 938 l 2,25,26
 301 948 301 948 301 965 c 0,27,28
 301 980 301 980 313 993 c 128,-1,29
 325 1006 325 1006 342 1006 c 0,30,31
 356 1006 356 1006 373 993 c 1,32,-1
 797 569 l 1,33,-1
 1219 993 l 1,34,35
 1236 1006 1236 1006 1249 1006 c 0,36,37
 1266 1006 1266 1006 1278 994 c 128,-1,38
 1290 982 1290 982 1290 965 c 256,39,40
 1290 948 1290 948 1280 938 c 2,41,-1
 895 553 l 1,42,-1
 1440 553 l 2,43,44
 1455 553 1455 553 1466 540 c 128,-1,45
 1477 527 1477 527 1477 512 c 256,46,47
 1477 497 1477 497 1466 484 c 128,-1,48
 1455 471 1455 471 1440 471 c 2,49,-1
 895 471 l 1,50,-1
 1280 88 l 1,51,52
 1290 75 1290 75 1290 59 c 0,53,54
 1290 42 1290 42 1278 30 c 128,-1,55
 1266 18 1266 18 1249 18 c 0,56,57
 1234 18 1234 18 1219 33 c 2,58,-1
 797 455 l 1,59,-1
 373 33 l 2,60,61
 358 18 358 18 342 18 c 0,62,63
 325 18 325 18 313 31 c 128,-1,64
 301 44 301 44 301 59 c 0,13,14
643 954 m 0,65,66
 643 1017 643 1017 688.5 1062.5 c 128,-1,67
 734 1108 734 1108 797 1108 c 0,68,69
 837 1108 837 1108 873 1087 c 128,-1,70
 909 1066 909 1066 929.5 1030 c 128,-1,71
 950 994 950 994 950 954 c 0,72,73
 950 891 950 891 905 846 c 128,-1,74
 860 801 860 801 797 801 c 256,75,76
 734 801 734 801 688.5 846.5 c 128,-1,77
 643 892 643 892 643 954 c 0,65,66
EndSplineSet
EndChar

StartChar: question
Encoding: 63 63 34
Width: 1591
GlyphClass: 2
Flags: W
LayerCount: 2
Fore
SplineSet
115 37 m 0,0,1
 115 55 115 55 125 63 c 2,2,-1
 317 231 l 1,3,4
 195 393 195 393 195 598 c 0,5,6
 195 721 195 721 241 829.5 c 128,-1,7
 287 938 287 938 372 1023 c 128,-1,8
 457 1108 457 1108 565.5 1154 c 128,-1,9
 674 1200 674 1200 797 1200 c 0,10,11
 876 1200 876 1200 951 1179.5 c 128,-1,12
 1026 1159 1026 1159 1094.5 1119.5 c 128,-1,13
 1163 1080 1163 1080 1221 1024 c 1,14,-1
 1405 1186 l 2,15,16
 1422 1200 1422 1200 1436 1200 c 0,17,18
 1452 1200 1452 1200 1464.5 1187.5 c 128,-1,19
 1477 1175 1477 1175 1477 1159 c 0,20,21
 1477 1139 1477 1139 1466 1130 c 2,22,-1
 1274 963 l 1,23,24
 1399 799 1399 799 1399 598 c 0,25,26
 1399 435 1399 435 1318 296 c 128,-1,27
 1237 157 1237 157 1097.5 75.5 c 128,-1,28
 958 -6 958 -6 797 -6 c 0,29,30
 678 -6 678 -6 566 41 c 128,-1,31
 454 88 454 88 371 170 c 1,32,-1
 186 8 l 2,33,34
 169 -6 169 -6 156 -6 c 0,35,36
 138 -6 138 -6 126.5 7.5 c 128,-1,37
 115 21 115 21 115 37 c 0,0,1
432 225 m 1,38,39
 481 178 481 178 539.5 145 c 128,-1,40
 598 112 598 112 664 95 c 128,-1,41
 730 78 730 78 797 78 c 0,42,43
 936 78 936 78 1056 148 c 128,-1,44
 1176 218 1176 218 1246.5 337.5 c 128,-1,45
 1317 457 1317 457 1317 598 c 0,46,47
 1317 683 1317 683 1290 762 c 128,-1,48
 1263 841 1263 841 1212 907 c 1,49,-1
 432 225 l 1,38,39
379 287 m 1,50,-1
 1159 969 l 1,51,52
 1088 1039 1088 1039 991.5 1078.5 c 128,-1,53
 895 1118 895 1118 797 1118 c 0,54,55
 656 1118 656 1118 536 1047.5 c 128,-1,56
 416 977 416 977 346 857.5 c 128,-1,57
 276 738 276 738 276 598 c 0,58,59
 276 420 276 420 379 287 c 1,50,-1
EndSplineSet
EndChar

StartChar: at
Encoding: 64 64 35
Width: 1137
GlyphClass: 2
Flags: W
LayerCount: 2
Fore
SplineSet
301 -301 m 2,0,-1
 301 -291 l 1,1,-1
 367 0 l 1,2,-1
 154 0 l 2,3,4
 137 0 137 0 126 12 c 128,-1,5
 115 24 115 24 115 41 c 0,6,7
 115 56 115 56 126 69 c 128,-1,8
 137 82 137 82 154 82 c 2,9,-1
 385 82 l 1,10,-1
 518 670 l 1,11,-1
 180 670 l 2,12,13
 165 670 165 670 154 682 c 128,-1,14
 143 694 143 694 143 711 c 0,15,16
 143 726 143 726 154 739 c 128,-1,17
 165 752 165 752 180 752 c 2,18,-1
 535 752 l 1,19,-1
 668 1339 l 1,20,-1
 154 1339 l 2,21,22
 137 1339 137 1339 126 1352 c 128,-1,23
 115 1365 115 1365 115 1380 c 0,24,25
 115 1397 115 1397 126 1409 c 128,-1,26
 137 1421 137 1421 154 1421 c 2,27,-1
 686 1421 l 1,28,-1
 756 1731 l 2,29,30
 759 1745 759 1745 769.5 1754 c 128,-1,31
 780 1763 780 1763 795 1763 c 0,32,33
 812 1763 812 1763 824 1751 c 128,-1,34
 836 1739 836 1739 836 1722 c 2,35,-1
 836 1712 l 1,36,-1
 770 1421 l 1,37,-1
 985 1421 l 2,38,39
 1000 1421 1000 1421 1011 1410 c 128,-1,40
 1022 1399 1022 1399 1022 1384 c 2,41,-1
 1022 39 l 2,42,43
 1022 23 1022 23 1010.5 11.5 c 128,-1,44
 999 0 999 0 985 0 c 2,45,-1
 451 0 l 1,46,-1
 381 -309 l 2,47,48
 378 -324 378 -324 366 -333 c 128,-1,49
 354 -342 354 -342 342 -342 c 0,50,51
 325 -342 325 -342 313 -330 c 128,-1,52
 301 -318 301 -318 301 -301 c 2,0,-1
469 82 m 1,53,-1
 940 82 l 1,54,-1
 940 670 l 1,55,-1
 602 670 l 1,56,-1
 469 82 l 1,53,-1
621 752 m 1,57,-1
 940 752 l 1,58,-1
 940 1339 l 1,59,-1
 752 1339 l 1,60,-1
 621 752 l 1,57,-1
EndSplineSet
EndChar

StartChar: A
Encoding: 65 65 36
Width: 1479
GlyphClass: 2
Flags: W
LayerCount: 2
Fore
SplineSet
68 0 m 1,0,1
 35 7 35 7 35 37 c 0,2,3
 35 49 35 49 44.5 60.5 c 128,-1,4
 54 72 54 72 68 72 c 0,5,6
 111 72 111 72 145.5 97 c 128,-1,7
 180 122 180 122 195 162 c 2,8,-1
 678 1421 l 1,9,10
 684 1442 684 1442 711 1442 c 0,11,12
 733 1442 733 1442 743 1421 c 2,13,-1
 1274 205 l 2,14,15
 1292 164 1292 164 1307.5 138 c 128,-1,16
 1323 112 1323 112 1349 92 c 128,-1,17
 1375 72 1375 72 1407 72 c 1,18,19
 1421 69 1421 69 1430.5 59.5 c 128,-1,20
 1440 50 1440 50 1440 37 c 0,21,22
 1440 23 1440 23 1429.5 11.5 c 128,-1,23
 1419 0 1419 0 1407 0 c 2,24,-1
 801 0 l 1,25,26
 768 7 768 7 768 37 c 0,27,28
 768 49 768 49 777.5 60.5 c 128,-1,29
 787 72 787 72 801 72 c 0,30,31
 831 72 831 72 881.5 92 c 128,-1,32
 932 112 932 112 932 135 c 0,33,34
 932 179 932 179 909 253 c 128,-1,35
 886 327 886 327 856 403 c 1,36,-1
 406 403 l 1,37,38
 377 277 377 277 377 203 c 0,39,40
 377 143 377 143 395.5 107.5 c 128,-1,41
 414 72 414 72 469 72 c 1,42,43
 502 64 502 64 502 37 c 0,44,45
 502 22 502 22 491 11 c 128,-1,46
 480 0 480 0 469 0 c 2,47,-1
 68 0 l 1,0,1
223 72 m 1,48,-1
 334 72 l 1,49,50
 305 124 305 124 305 203 c 0,51,52
 305 213 305 213 307 230 c 128,-1,53
 309 247 309 247 309 256 c 1,54,-1
 262 135 l 1,55,56
 243 93 243 93 223 72 c 1,48,-1
977 72 m 1,57,-1
 1270 72 l 1,58,59
 1241 104 1241 104 1208 176 c 1,60,-1
 713 1311 l 1,61,-1
 637 1114 l 1,62,63
 681 1027 681 1027 772.5 809 c 128,-1,64
 864 591 864 591 934 395 c 128,-1,65
 1004 199 1004 199 1004 135 c 0,66,67
 1004 99 1004 99 977 72 c 1,57,-1
424 475 m 1,68,-1
 829 475 l 1,69,70
 795 563 795 563 735.5 704.5 c 128,-1,71
 676 846 676 846 606 1004 c 1,72,73
 573 914 573 914 538.5 819.5 c 128,-1,74
 504 725 504 725 472.5 630.5 c 128,-1,75
 441 536 441 536 424 475 c 1,68,-1
EndSplineSet
EndChar

StartChar: B
Encoding: 66 66 37
Width: 1364
GlyphClass: 2
Flags: W
LayerCount: 2
Fore
SplineSet
51 0 m 2,0,1
 39 0 39 0 28.5 11.5 c 128,-1,2
 18 23 18 23 18 37 c 0,3,4
 18 50 18 50 27.5 59.5 c 128,-1,5
 37 69 37 69 51 72 c 1,6,-1
 57 72 l 2,7,8
 127 72 127 72 156.5 77.5 c 128,-1,9
 186 83 186 83 200.5 108 c 128,-1,10
 215 133 215 133 215 193 c 2,11,-1
 215 1210 l 2,12,13
 215 1269 215 1269 199.5 1294.5 c 128,-1,14
 184 1320 184 1320 153.5 1325.5 c 128,-1,15
 123 1331 123 1331 51 1331 c 0,16,17
 38 1331 38 1331 28 1343 c 128,-1,18
 18 1355 18 1355 18 1368 c 256,19,20
 18 1381 18 1381 27.5 1390.5 c 128,-1,21
 37 1400 37 1400 51 1403 c 1,22,-1
 692 1403 l 2,23,24
 832 1403 832 1403 943.5 1375.5 c 128,-1,25
 1055 1348 1055 1348 1124.5 1269 c 128,-1,26
 1194 1190 1194 1190 1194 1047 c 0,27,28
 1194 952 1194 952 1128 876.5 c 128,-1,29
 1062 801 1062 801 965 752 c 1,30,31
 1105 713 1105 713 1188.5 616 c 128,-1,32
 1272 519 1272 519 1272 381 c 0,33,34
 1272 277 1272 277 1217.5 202.5 c 128,-1,35
 1163 128 1163 128 1074 83 c 128,-1,36
 985 38 985 38 884.5 19 c 128,-1,37
 784 0 784 0 692 0 c 2,38,-1
 51 0 l 2,0,1
268 72 m 1,39,-1
 492 72 l 1,40,41
 465 107 465 107 465 150 c 2,42,-1
 465 1253 l 2,43,44
 465 1296 465 1296 492 1331 c 1,45,-1
 268 1331 l 1,46,47
 287 1290 287 1290 287 1214 c 2,48,-1
 287 188 l 2,49,50
 287 109 287 109 268 72 c 1,39,-1
537 154 m 2,51,52
 537 115 537 115 572.5 93.5 c 128,-1,53
 608 72 608 72 651 72 c 0,54,55
 792 72 792 72 856 155 c 128,-1,56
 920 238 920 238 920 381 c 0,57,58
 920 486 920 486 896.5 553 c 128,-1,59
 873 620 873 620 813.5 655 c 128,-1,60
 754 690 754 690 649 690 c 2,61,-1
 537 690 l 1,62,-1
 537 154 l 2,51,52
899 94 m 1,63,64
 1028 126 1028 126 1114 195 c 128,-1,65
 1200 264 1200 264 1200 381 c 0,66,67
 1200 469 1200 469 1157 536.5 c 128,-1,68
 1114 604 1114 604 1041.5 644 c 128,-1,69
 969 684 969 684 879 698 c 1,70,71
 991 611 991 611 991 381 c 0,72,73
 991 191 991 191 899 94 c 1,63,64
537 762 m 1,74,75
 701 762 701 762 778.5 825 c 128,-1,76
 856 888 856 888 856 1047 c 0,77,78
 856 1116 856 1116 836 1181 c 128,-1,79
 816 1246 816 1246 770 1288.5 c 128,-1,80
 724 1331 724 1331 651 1331 c 0,81,82
 608 1331 608 1331 572.5 1310.5 c 128,-1,83
 537 1290 537 1290 537 1249 c 2,84,-1
 537 762 l 1,74,75
844 786 m 1,85,86
 949 811 949 811 1035.5 882 c 128,-1,87
 1122 953 1122 953 1122 1047 c 0,88,89
 1122 1181 1122 1181 1049 1244 c 128,-1,90
 976 1307 976 1307 836 1323 c 1,91,92
 885 1272 885 1272 906.5 1198.5 c 128,-1,93
 928 1125 928 1125 928 1047 c 0,94,95
 928 871 928 871 844 786 c 1,85,86
EndSplineSet
EndChar

StartChar: C
Encoding: 67 67 38
Width: 1479
GlyphClass: 2
Flags: W
LayerCount: 2
Fore
SplineSet
803 -39 m 0,0,1
 640 -39 640 -39 504.5 15 c 128,-1,2
 369 69 369 69 273.5 167.5 c 128,-1,3
 178 266 178 266 127 403.5 c 128,-1,4
 76 541 76 541 76 702 c 0,5,6
 76 864 76 864 127.5 1001.5 c 128,-1,7
 179 1139 179 1139 275.5 1237.5 c 128,-1,8
 372 1336 372 1336 506 1389 c 128,-1,9
 640 1442 640 1442 803 1442 c 0,10,11
 923 1442 923 1442 1032 1393 c 1,12,13
 1129 1348 1129 1348 1214 1348 c 0,14,15
 1239 1348 1239 1348 1256.5 1365.5 c 128,-1,16
 1274 1383 1274 1383 1274 1409 c 0,17,18
 1274 1421 1274 1421 1285.5 1431.5 c 128,-1,19
 1297 1442 1297 1442 1311 1442 c 0,20,21
 1324 1442 1324 1442 1335 1432 c 128,-1,22
 1346 1422 1346 1422 1346 1409 c 2,23,-1
 1346 999 l 2,24,25
 1346 985 1346 985 1335 975 c 128,-1,26
 1324 965 1324 965 1311 965 c 0,27,28
 1279 965 1279 965 1276 991 c 1,29,30
 1262 1056 1262 1056 1213.5 1124.5 c 128,-1,31
 1165 1193 1165 1193 1096 1248.5 c 128,-1,32
 1027 1304 1027 1304 950 1337 c 128,-1,33
 873 1370 873 1370 803 1370 c 0,34,35
 697 1370 697 1370 625 1303.5 c 128,-1,36
 553 1237 553 1237 511 1131 c 128,-1,37
 469 1025 469 1025 452.5 913 c 128,-1,38
 436 801 436 801 436 700 c 0,39,40
 436 442 436 442 520 250.5 c 128,-1,41
 604 59 604 59 829 59 c 0,42,43
 973 59 973 59 1107 121.5 c 128,-1,44
 1241 184 1241 184 1331 293 c 1,45,46
 1349 307 1349 307 1360 307 c 0,47,48
 1377 307 1377 307 1390 295 c 128,-1,49
 1403 283 1403 283 1403 266 c 0,50,51
 1403 253 1403 253 1397 244 c 1,52,53
 1286 109 1286 109 1131 35 c 128,-1,54
 976 -39 976 -39 803 -39 c 0,0,1
584 63 m 1,55,56
 457 158 457 158 411 328.5 c 128,-1,57
 365 499 365 499 365 702 c 0,58,59
 365 790 365 790 374 874.5 c 128,-1,60
 383 959 383 959 403.5 1039.5 c 128,-1,61
 424 1120 424 1120 460 1195.5 c 128,-1,62
 496 1271 496 1271 551 1329 c 1,63,64
 351 1257 351 1257 249 1089.5 c 128,-1,65
 147 922 147 922 147 702 c 0,66,67
 147 469 147 469 256.5 300 c 128,-1,68
 366 131 366 131 584 63 c 1,55,56
1274 1161 m 1,69,-1
 1274 1290 l 1,70,71
 1265 1285 1265 1285 1251 1280 c 1,72,73
 1227 1276 1227 1276 1217 1276 c 0,74,75
 1186 1276 1186 1276 1169 1278 c 1,76,77
 1235 1219 1235 1219 1274 1161 c 1,69,-1
EndSplineSet
EndChar

StartChar: D
Encoding: 68 68 39
Width: 1479
GlyphClass: 2
Flags: W
LayerCount: 2
Fore
SplineSet
41 12 m 1,0,1
 33 28 33 28 33 37 c 0,2,3
 33 45 33 45 41 61 c 1,4,5
 53 70 53 70 66 74 c 1,6,7
 132 74 132 74 158 79.5 c 128,-1,8
 184 85 184 85 194.5 109.5 c 128,-1,9
 205 134 205 134 205 193 c 2,10,-1
 205 1208 l 2,11,12
 205 1267 205 1267 194.5 1291.5 c 128,-1,13
 184 1316 184 1316 158 1321.5 c 128,-1,14
 132 1327 132 1327 66 1327 c 1,15,16
 53 1332 53 1332 41 1339 c 1,17,18
 33 1357 33 1357 33 1364 c 256,19,20
 33 1371 33 1371 41 1389 c 1,21,22
 53 1396 53 1396 66 1401 c 1,23,-1
 700 1401 l 2,24,25
 904 1401 904 1401 1065.5 1319.5 c 128,-1,26
 1227 1238 1227 1238 1318 1085 c 128,-1,27
 1409 932 1409 932 1409 729 c 0,28,29
 1409 570 1409 570 1359.5 435.5 c 128,-1,30
 1310 301 1310 301 1217.5 203.5 c 128,-1,31
 1125 106 1125 106 993 53 c 128,-1,32
 861 0 861 0 700 0 c 2,33,-1
 66 0 l 1,34,35
 53 5 53 5 41 12 c 1,0,1
262 74 m 1,36,-1
 494 74 l 1,37,38
 467 109 467 109 467 152 c 2,39,-1
 467 1249 l 2,40,41
 467 1292 467 1292 494 1327 c 1,42,-1
 262 1327 l 1,43,44
 279 1282 279 1282 279 1217 c 2,45,-1
 279 184 l 2,46,47
 279 119 279 119 262 74 c 1,36,-1
541 160 m 2,48,49
 541 119 541 119 576.5 96.5 c 128,-1,50
 612 74 612 74 655 74 c 0,51,52
 814 74 814 74 901.5 174.5 c 128,-1,53
 989 275 989 275 1019 422.5 c 128,-1,54
 1049 570 1049 570 1049 727 c 0,55,56
 1049 862 1049 862 1014 999.5 c 128,-1,57
 979 1137 979 1137 894 1232 c 128,-1,58
 809 1327 809 1327 672 1327 c 0,59,60
 641 1327 641 1327 612 1319 c 128,-1,61
 583 1311 583 1311 562 1292 c 128,-1,62
 541 1273 541 1273 541 1241 c 2,63,-1
 541 160 l 2,48,49
950 119 m 1,64,65
 1048 156 1048 156 1122 217.5 c 128,-1,66
 1196 279 1196 279 1243 358 c 128,-1,67
 1290 437 1290 437 1312.5 530.5 c 128,-1,68
 1335 624 1335 624 1335 729 c 0,69,70
 1335 831 1335 831 1310 918.5 c 128,-1,71
 1285 1006 1285 1006 1237 1076 c 128,-1,72
 1189 1146 1189 1146 1116.5 1200.5 c 128,-1,73
 1044 1255 1044 1255 948 1288 c 0,74,75
 946 1289 946 1289 944 1289.5 c 128,-1,76
 942 1290 942 1290 938 1290 c 1,77,78
 1006 1227 1006 1227 1047 1133 c 128,-1,79
 1088 1039 1088 1039 1105 933.5 c 128,-1,80
 1122 828 1122 828 1122 729 c 0,81,82
 1122 292 1122 292 950 119 c 1,64,65
EndSplineSet
EndChar

StartChar: E
Encoding: 69 69 40
Width: 1364
GlyphClass: 2
Flags: W
LayerCount: 2
Fore
SplineSet
33 12 m 1,0,1
 25 28 25 28 25 37 c 0,2,3
 25 45 25 45 33 61 c 1,4,5
 46 70 46 70 57 74 c 1,6,7
 126 74 126 74 153.5 79.5 c 128,-1,8
 181 85 181 85 193 109 c 128,-1,9
 205 133 205 133 205 193 c 2,10,-1
 205 1217 l 2,11,12
 205 1294 205 1294 177 1310.5 c 128,-1,13
 149 1327 149 1327 57 1327 c 1,14,15
 45 1332 45 1332 33 1339 c 1,16,17
 25 1357 25 1357 25 1364 c 256,18,19
 25 1371 25 1371 33 1389 c 1,20,21
 45 1397 45 1397 57 1401 c 1,22,-1
 1180 1401 l 1,23,24
 1192 1396 1192 1396 1204 1389 c 1,25,26
 1209 1378 1209 1378 1212 1368 c 1,27,-1
 1212 1032 l 1,28,29
 1209 1023 1209 1023 1204 1012 c 1,30,31
 1182 999 1182 999 1176 999 c 0,32,33
 1169 999 1169 999 1147 1012 c 1,34,35
 1142 1023 1142 1023 1139 1032 c 1,36,37
 1139 1177 1139 1177 1008 1252 c 128,-1,38
 877 1327 877 1327 717 1327 c 2,39,-1
 586 1327 l 2,40,41
 524 1327 524 1327 524 1208 c 2,42,-1
 524 758 l 1,43,44
 625 758 625 758 700 788.5 c 128,-1,45
 775 819 775 819 816.5 885 c 128,-1,46
 858 951 858 951 858 1053 c 1,47,48
 862 1062 862 1062 862.5 1064 c 128,-1,49
 863 1066 863 1066 866 1073 c 1,50,51
 888 1085 888 1085 895 1085 c 0,52,53
 906 1085 906 1085 924 1073 c 1,54,55
 929 1062 929 1062 932 1053 c 1,56,-1
 932 430 l 1,57,58
 929 421 929 421 924 410 c 1,59,60
 907 397 907 397 895 397 c 0,61,62
 886 397 886 397 866 410 c 1,63,64
 863 417 863 417 862.5 419 c 128,-1,65
 862 421 862 421 858 430 c 1,66,67
 858 684 858 684 524 684 c 1,68,-1
 524 193 l 2,69,70
 524 74 524 74 586 74 c 2,71,-1
 737 74 l 2,72,73
 903 74 903 74 1055 205 c 1,74,75
 1161 304 1161 304 1202 383 c 0,76,77
 1214 406 1214 406 1227 458 c 128,-1,78
 1240 510 1240 510 1245 520 c 1,79,80
 1265 532 1265 532 1274 532 c 0,81,82
 1281 532 1281 532 1303 520 c 1,83,84
 1311 504 1311 504 1311 494 c 1,85,-1
 1253 33 l 2,86,87
 1251 24 1251 24 1245 12 c 1,88,89
 1233 4 1233 4 1221 0 c 1,90,-1
 57 0 l 1,91,92
 45 5 45 5 33 12 c 1,0,1
262 74 m 1,93,-1
 475 74 l 1,94,95
 451 129 451 129 451 184 c 2,96,-1
 451 717 l 1,97,98
 453 708 453 708 459 696 c 1,99,100
 479 684 479 684 487 684 c 2,101,-1
 524 684 l 1,102,-1
 524 758 l 1,103,-1
 487 758 l 2,104,105
 478 758 478 758 459 745 c 1,106,107
 454 734 454 734 451 725 c 1,108,-1
 451 1217 l 2,109,110
 451 1271 451 1271 475 1327 c 1,111,-1
 262 1327 l 1,112,113
 279 1282 279 1282 279 1217 c 2,114,-1
 279 184 l 2,115,116
 279 119 279 119 262 74 c 1,93,-1
997 74 m 1,117,-1
 1184 74 l 1,118,-1
 1206 252 l 1,119,120
 1124 149 1124 149 997 74 c 1,117,-1
EndSplineSet
EndChar

StartChar: F
Encoding: 70 70 41
Width: 1251
GlyphClass: 2
Flags: W
LayerCount: 2
Fore
SplineSet
61 0 m 1,0,1
 29 7 29 7 29 37 c 0,2,3
 29 65 29 65 61 72 c 1,4,-1
 68 72 l 2,5,6
 135 72 135 72 161 77.5 c 128,-1,7
 187 83 187 83 198 108 c 128,-1,8
 209 133 209 133 209 193 c 2,9,-1
 209 1214 l 2,10,11
 209 1271 209 1271 196.5 1295.5 c 128,-1,12
 184 1320 184 1320 156 1325.5 c 128,-1,13
 128 1331 128 1331 61 1331 c 1,14,15
 29 1338 29 1338 29 1368 c 0,16,17
 29 1380 29 1380 38.5 1391.5 c 128,-1,18
 48 1403 48 1403 61 1403 c 2,19,-1
 1161 1403 l 1,20,21
 1194 1395 1194 1395 1194 1370 c 2,22,-1
 1194 1036 l 2,23,24
 1194 1020 1194 1020 1182.5 1010.5 c 128,-1,25
 1171 1001 1171 1001 1159 1001 c 0,26,27
 1146 1001 1146 1001 1134 1011 c 128,-1,28
 1122 1021 1122 1021 1122 1036 c 0,29,30
 1122 1131 1122 1131 1060.5 1198.5 c 128,-1,31
 999 1266 999 1266 905.5 1298.5 c 128,-1,32
 812 1331 812 1331 719 1331 c 2,33,-1
 592 1331 l 2,34,35
 557 1331 557 1331 543.5 1292.5 c 128,-1,36
 530 1254 530 1254 530 1210 c 2,37,-1
 530 762 l 1,38,39
 676 762 676 762 756 837 c 128,-1,40
 836 912 836 912 836 1057 c 0,41,42
 836 1070 836 1070 847 1081 c 128,-1,43
 858 1092 858 1092 872 1092 c 0,44,45
 885 1092 885 1092 896 1082 c 128,-1,46
 907 1072 907 1072 907 1057 c 2,47,-1
 907 436 l 2,48,49
 907 422 907 422 895.5 412.5 c 128,-1,50
 884 403 884 403 872 403 c 0,51,52
 859 403 859 403 847.5 413.5 c 128,-1,53
 836 424 836 424 836 436 c 0,54,55
 836 570 836 570 752.5 629 c 128,-1,56
 669 688 669 688 530 688 c 1,57,-1
 530 193 l 2,58,59
 530 142 530 142 539.5 115 c 128,-1,60
 549 88 549 88 586 80 c 0,61,62
 627 72 627 72 725 72 c 1,63,64
 739 69 739 69 748.5 59.5 c 128,-1,65
 758 50 758 50 758 37 c 0,66,67
 758 23 758 23 747.5 11.5 c 128,-1,68
 737 0 737 0 725 0 c 2,69,-1
 61 0 l 1,0,1
262 72 m 1,70,-1
 479 72 l 1,71,72
 459 113 459 113 459 188 c 2,73,-1
 459 1214 l 2,74,75
 459 1275 459 1275 483 1331 c 1,76,-1
 262 1331 l 1,77,78
 281 1290 281 1290 281 1214 c 2,79,-1
 281 188 l 2,80,81
 281 113 281 113 262 72 c 1,70,-1
725 729 m 1,82,83
 789 702 789 702 836 649 c 1,84,-1
 836 817 l 1,85,86
 797 764 797 764 725 729 c 1,82,83
1010 1331 m 1,87,88
 1078 1293 1078 1293 1122 1233 c 1,89,-1
 1122 1331 l 1,90,-1
 1010 1331 l 1,87,88
EndSplineSet
EndChar

StartChar: G
Encoding: 71 71 42
Width: 1591
GlyphClass: 2
Flags: W
LayerCount: 2
Fore
SplineSet
803 -39 m 0,0,1
 640 -39 640 -39 504.5 15 c 128,-1,2
 369 69 369 69 273.5 167.5 c 128,-1,3
 178 266 178 266 127 403.5 c 128,-1,4
 76 541 76 541 76 702 c 0,5,6
 76 864 76 864 127.5 1001.5 c 128,-1,7
 179 1139 179 1139 275.5 1237.5 c 128,-1,8
 372 1336 372 1336 506 1389 c 128,-1,9
 640 1442 640 1442 803 1442 c 0,10,11
 924 1442 924 1442 1030 1393 c 0,12,13
 1125 1348 1125 1348 1212 1348 c 0,14,15
 1237 1348 1237 1348 1254.5 1365.5 c 128,-1,16
 1272 1383 1272 1383 1272 1409 c 0,17,18
 1272 1421 1272 1421 1283.5 1431.5 c 128,-1,19
 1295 1442 1295 1442 1309 1442 c 0,20,21
 1322 1442 1322 1442 1332.5 1432.5 c 128,-1,22
 1343 1423 1343 1423 1343 1409 c 2,23,-1
 1343 999 l 2,24,25
 1343 984 1343 984 1332.5 974.5 c 128,-1,26
 1322 965 1322 965 1309 965 c 0,27,28
 1277 965 1277 965 1274 991 c 1,29,30
 1260 1057 1260 1057 1212.5 1125 c 128,-1,31
 1165 1193 1165 1193 1096 1248.5 c 128,-1,32
 1027 1304 1027 1304 950 1337 c 128,-1,33
 873 1370 873 1370 803 1370 c 0,34,35
 666 1370 666 1370 584 1258.5 c 128,-1,36
 502 1147 502 1147 469 994 c 128,-1,37
 436 841 436 841 436 700 c 0,38,39
 436 541 436 541 462.5 394 c 128,-1,40
 489 247 489 247 571 140 c 128,-1,41
 653 33 653 33 803 33 c 0,42,43
 899 33 899 33 974 50 c 128,-1,44
 1049 67 1049 67 1049 129 c 2,45,-1
 1049 365 l 2,46,47
 1049 432 1049 432 995 477 c 128,-1,48
 941 522 941 522 872 522 c 0,49,50
 860 522 860 522 850 534 c 128,-1,51
 840 546 840 546 840 557 c 0,52,53
 840 587 840 587 872 594 c 1,54,-1
 1501 594 l 2,55,56
 1514 594 1514 594 1524 581.5 c 128,-1,57
 1534 569 1534 569 1534 557 c 0,58,59
 1534 526 1534 526 1501 522 c 1,60,61
 1462 522 1462 522 1430 499.5 c 128,-1,62
 1398 477 1398 477 1381 439.5 c 128,-1,63
 1364 402 1364 402 1364 365 c 2,64,-1
 1364 125 l 2,65,66
 1364 103 1364 103 1346 96 c 1,67,68
 1082 -39 1082 -39 803 -39 c 0,0,1
1112 78 m 1,69,70
 1201 104 1201 104 1292 147 c 1,71,-1
 1292 369 l 2,72,73
 1292 456 1292 456 1346 522 c 1,74,-1
 1053 522 l 1,75,76
 1120 455 1120 455 1120 369 c 2,77,-1
 1120 125 l 2,78,79
 1120 106 1120 106 1112 78 c 1,69,70
524 84 m 1,80,81
 460 157 460 157 424.5 261 c 128,-1,82
 389 365 389 365 377 471.5 c 128,-1,83
 365 578 365 578 365 702 c 0,84,85
 365 790 365 790 374 874.5 c 128,-1,86
 383 959 383 959 403.5 1039.5 c 128,-1,87
 424 1120 424 1120 460 1195.5 c 128,-1,88
 496 1271 496 1271 551 1329 c 1,89,90
 351 1257 351 1257 249 1089.5 c 128,-1,91
 147 922 147 922 147 702 c 0,92,93
 147 565 147 565 187.5 443.5 c 128,-1,94
 228 322 228 322 312.5 229 c 128,-1,95
 397 136 397 136 524 84 c 1,80,81
1272 1163 m 1,96,-1
 1272 1290 l 1,97,98
 1263 1285 1263 1285 1249 1280 c 1,99,100
 1225 1276 1225 1276 1214 1276 c 0,101,102
 1184 1276 1184 1276 1169 1278 c 1,103,104
 1234 1216 1234 1216 1272 1163 c 1,96,-1
EndSplineSet
EndChar

StartChar: H
Encoding: 72 72 43
Width: 1591
GlyphClass: 2
Flags: W
LayerCount: 2
Fore
SplineSet
68 0 m 1,0,1
 35 7 35 7 35 37 c 0,2,3
 35 65 35 65 68 72 c 1,4,-1
 74 72 l 2,5,6
 141 72 141 72 167 77.5 c 128,-1,7
 193 83 193 83 204 108 c 128,-1,8
 215 133 215 133 215 193 c 2,9,-1
 215 1214 l 2,10,11
 215 1271 215 1271 202.5 1295.5 c 128,-1,12
 190 1320 190 1320 162.5 1325.5 c 128,-1,13
 135 1331 135 1331 68 1331 c 1,14,15
 35 1338 35 1338 35 1368 c 0,16,17
 35 1380 35 1380 44.5 1391.5 c 128,-1,18
 54 1403 54 1403 68 1403 c 2,19,-1
 696 1403 l 1,20,21
 729 1396 729 1396 729 1368 c 0,22,23
 729 1338 729 1338 696 1331 c 1,24,-1
 690 1331 l 2,25,26
 623 1331 623 1331 596.5 1325.5 c 128,-1,27
 570 1320 570 1320 559.5 1294.5 c 128,-1,28
 549 1269 549 1269 549 1210 c 2,29,-1
 549 758 l 1,30,-1
 1044 758 l 1,31,-1
 1044 1214 l 2,32,33
 1044 1270 1044 1270 1032 1295 c 128,-1,34
 1020 1320 1020 1320 992 1325.5 c 128,-1,35
 964 1331 964 1331 897 1331 c 1,36,37
 864 1338 864 1338 864 1368 c 0,38,39
 864 1381 864 1381 874 1392 c 128,-1,40
 884 1403 884 1403 897 1403 c 2,41,-1
 1526 1403 l 1,42,43
 1540 1400 1540 1400 1549.5 1390.5 c 128,-1,44
 1559 1381 1559 1381 1559 1368 c 0,45,46
 1559 1338 1559 1338 1526 1331 c 1,47,-1
 1520 1331 l 2,48,49
 1452 1331 1452 1331 1426 1325.5 c 128,-1,50
 1400 1320 1400 1320 1389 1295 c 128,-1,51
 1378 1270 1378 1270 1378 1210 c 2,52,-1
 1378 188 l 2,53,54
 1378 132 1378 132 1390.5 107.5 c 128,-1,55
 1403 83 1403 83 1431 77.5 c 128,-1,56
 1459 72 1459 72 1526 72 c 1,57,58
 1540 69 1540 69 1549.5 59.5 c 128,-1,59
 1559 50 1559 50 1559 37 c 0,60,61
 1559 23 1559 23 1548.5 11.5 c 128,-1,62
 1538 0 1538 0 1526 0 c 2,63,-1
 897 0 l 1,64,65
 864 7 864 7 864 37 c 0,66,67
 864 50 864 50 873.5 59.5 c 128,-1,68
 883 69 883 69 897 72 c 1,69,-1
 903 72 l 2,70,71
 970 72 970 72 996.5 77.5 c 128,-1,72
 1023 83 1023 83 1033.5 108.5 c 128,-1,73
 1044 134 1044 134 1044 193 c 2,74,-1
 1044 664 l 1,75,-1
 549 664 l 1,76,-1
 549 188 l 2,77,78
 549 132 549 132 561.5 107.5 c 128,-1,79
 574 83 574 83 601.5 77.5 c 128,-1,80
 629 72 629 72 696 72 c 1,81,82
 729 65 729 65 729 37 c 0,83,84
 729 22 729 22 719 11 c 128,-1,85
 709 0 709 0 696 0 c 2,86,-1
 68 0 l 1,0,1
268 72 m 1,87,-1
 496 72 l 1,88,89
 477 113 477 113 477 188 c 2,90,-1
 477 1214 l 2,91,92
 477 1290 477 1290 496 1331 c 1,93,-1
 268 1331 l 1,94,95
 287 1290 287 1290 287 1214 c 2,96,-1
 287 188 l 2,97,98
 287 113 287 113 268 72 c 1,87,-1
1098 72 m 1,99,-1
 1325 72 l 1,100,101
 1307 114 1307 114 1307 188 c 2,102,-1
 1307 1214 l 2,103,104
 1307 1289 1307 1289 1325 1331 c 1,105,-1
 1098 1331 l 1,106,107
 1116 1289 1116 1289 1116 1214 c 2,108,-1
 1116 188 l 2,109,110
 1116 114 1116 114 1098 72 c 1,99,-1
EndSplineSet
EndChar

StartChar: I
Encoding: 73 73 44
Width: 795
GlyphClass: 2
Flags: W
LayerCount: 2
Fore
SplineSet
74 0 m 1,0,1
 41 7 41 7 41 37 c 0,2,3
 41 49 41 49 50.5 60.5 c 128,-1,4
 60 72 60 72 74 72 c 0,5,6
 145 72 145 72 174.5 77.5 c 128,-1,7
 204 83 204 83 217.5 108 c 128,-1,8
 231 133 231 133 231 193 c 2,9,-1
 231 1214 l 2,10,11
 231 1270 231 1270 216.5 1295 c 128,-1,12
 202 1320 202 1320 172.5 1325.5 c 128,-1,13
 143 1331 143 1331 74 1331 c 1,14,15
 41 1338 41 1338 41 1368 c 0,16,17
 41 1380 41 1380 50.5 1391.5 c 128,-1,18
 60 1403 60 1403 74 1403 c 2,19,-1
 723 1403 l 1,20,21
 737 1400 737 1400 746.5 1390.5 c 128,-1,22
 756 1381 756 1381 756 1368 c 256,23,24
 756 1355 756 1355 746 1343 c 128,-1,25
 736 1331 736 1331 723 1331 c 0,26,27
 652 1331 652 1331 622.5 1325.5 c 128,-1,28
 593 1320 593 1320 579 1295 c 128,-1,29
 565 1270 565 1270 565 1210 c 2,30,-1
 565 193 l 2,31,32
 565 133 565 133 579 108 c 128,-1,33
 593 83 593 83 622.5 77.5 c 128,-1,34
 652 72 652 72 723 72 c 1,35,36
 737 69 737 69 746.5 59.5 c 128,-1,37
 756 50 756 50 756 37 c 0,38,39
 756 23 756 23 745.5 11.5 c 128,-1,40
 735 0 735 0 723 0 c 2,41,-1
 74 0 l 1,0,1
285 72 m 1,42,-1
 512 72 l 1,43,44
 494 109 494 109 494 188 c 2,45,-1
 494 1214 l 2,46,47
 494 1289 494 1289 512 1331 c 1,48,-1
 285 1331 l 1,49,50
 303 1294 303 1294 303 1214 c 2,51,-1
 303 188 l 2,52,53
 303 114 303 114 285 72 c 1,42,-1
EndSplineSet
EndChar

StartChar: J
Encoding: 74 74 45
Width: 1024
GlyphClass: 2
Flags: W
LayerCount: 2
Fore
SplineSet
12 76 m 0,0,1
 12 114 12 114 32 146.5 c 128,-1,2
 52 179 52 179 87 198 c 128,-1,3
 122 217 122 217 160 217 c 256,4,5
 198 217 198 217 232.5 198 c 128,-1,6
 267 179 267 179 287 146.5 c 128,-1,7
 307 114 307 114 307 76 c 0,8,9
 307 40 307 40 295 16.5 c 128,-1,10
 283 -7 283 -7 266.5 -29 c 128,-1,11
 250 -51 250 -51 250 -61 c 0,12,13
 250 -82 250 -82 334 -82 c 0,14,15
 384 -82 384 -82 422.5 -46 c 128,-1,16
 461 -10 461 -10 461 41 c 2,17,-1
 461 1214 l 2,18,19
 461 1270 461 1270 442 1295 c 128,-1,20
 423 1320 423 1320 389.5 1325.5 c 128,-1,21
 356 1331 356 1331 285 1331 c 1,22,23
 252 1338 252 1338 252 1368 c 0,24,25
 252 1380 252 1380 261.5 1391.5 c 128,-1,26
 271 1403 271 1403 285 1403 c 2,27,-1
 942 1403 l 1,28,29
 975 1396 975 1396 975 1368 c 0,30,31
 975 1338 975 1338 942 1331 c 1,32,-1
 936 1331 l 2,33,34
 869 1331 869 1331 842.5 1325.5 c 128,-1,35
 816 1320 816 1320 805.5 1294.5 c 128,-1,36
 795 1269 795 1269 795 1210 c 2,37,-1
 795 227 l 2,38,39
 795 96 795 96 735 10 c 128,-1,40
 675 -76 675 -76 573 -115 c 128,-1,41
 471 -154 471 -154 342 -154 c 0,42,43
 267 -154 267 -154 190.5 -130 c 128,-1,44
 114 -106 114 -106 63 -54 c 128,-1,45
 12 -2 12 -2 12 76 c 0,0,1
502 -63 m 1,46,47
 611 -35 611 -35 667 40.5 c 128,-1,48
 723 116 723 116 723 231 c 2,49,-1
 723 1214 l 2,50,51
 723 1289 723 1289 741 1331 c 1,52,-1
 512 1331 l 1,53,54
 532 1290 532 1290 532 1214 c 2,55,-1
 532 37 l 2,56,57
 532 -16 532 -16 502 -63 c 1,46,47
178 -49 m 1,58,59
 182 -22 182 -22 209 12.5 c 128,-1,60
 236 47 236 47 236 76 c 0,61,62
 236 106 236 106 213.5 125.5 c 128,-1,63
 191 145 191 145 160 145 c 0,64,65
 131 145 131 145 107.5 125.5 c 128,-1,66
 84 106 84 106 84 76 c 0,67,68
 84 -8 84 -8 178 -49 c 1,58,59
EndSplineSet
EndChar

StartChar: K
Encoding: 75 75 46
Width: 1591
GlyphClass: 2
Flags: W
LayerCount: 2
Fore
SplineSet
82 0 m 2,0,1
 69 0 69 0 59 12 c 128,-1,2
 49 24 49 24 49 37 c 0,3,4
 49 65 49 65 82 72 c 1,5,-1
 88 72 l 2,6,7
 155 72 155 72 181.5 77.5 c 128,-1,8
 208 83 208 83 218.5 108.5 c 128,-1,9
 229 134 229 134 229 193 c 2,10,-1
 229 1214 l 2,11,12
 229 1270 229 1270 217 1295 c 128,-1,13
 205 1320 205 1320 177 1325.5 c 128,-1,14
 149 1331 149 1331 82 1331 c 0,15,16
 68 1331 68 1331 58.5 1343.5 c 128,-1,17
 49 1356 49 1356 49 1368 c 0,18,19
 49 1396 49 1396 82 1403 c 1,20,-1
 711 1403 l 2,21,22
 724 1403 724 1403 733.5 1392.5 c 128,-1,23
 743 1382 743 1382 743 1368 c 0,24,25
 743 1338 743 1338 711 1331 c 1,26,-1
 705 1331 l 2,27,28
 637 1331 637 1331 611 1325.5 c 128,-1,29
 585 1320 585 1320 574 1295 c 128,-1,30
 563 1270 563 1270 563 1210 c 2,31,-1
 563 700 l 1,32,-1
 1008 1128 l 1,33,34
 1053 1175 1053 1175 1053 1231 c 0,35,36
 1053 1271 1053 1271 1028 1301 c 128,-1,37
 1003 1331 1003 1331 963 1331 c 0,38,39
 949 1331 949 1331 939.5 1343.5 c 128,-1,40
 930 1356 930 1356 930 1368 c 0,41,42
 930 1396 930 1396 963 1403 c 1,43,-1
 1464 1403 l 2,44,45
 1478 1403 1478 1403 1487.5 1392.5 c 128,-1,46
 1497 1382 1497 1382 1497 1368 c 0,47,48
 1497 1338 1497 1338 1464 1331 c 1,49,50
 1403 1331 1403 1331 1333 1289 c 128,-1,51
 1263 1247 1263 1247 1209.5 1200 c 128,-1,52
 1156 1153 1156 1153 1071 1071 c 2,53,-1
 846 854 l 1,54,-1
 1380 213 l 1,55,56
 1415 169 1415 169 1437.5 143 c 128,-1,57
 1460 117 1460 117 1489 94.5 c 128,-1,58
 1518 72 1518 72 1542 72 c 0,59,60
 1556 72 1556 72 1565.5 61.5 c 128,-1,61
 1575 51 1575 51 1575 37 c 0,62,63
 1575 7 1575 7 1542 0 c 1,64,-1
 1016 0 l 2,65,66
 1003 0 1003 0 993 12 c 128,-1,67
 983 24 983 24 983 37 c 0,68,69
 983 65 983 65 1016 72 c 1,70,71
 1069 72 1069 72 1069 84 c 0,72,73
 1069 106 1069 106 1012 170 c 1,74,-1
 621 637 l 1,75,-1
 563 582 l 1,76,-1
 563 188 l 2,77,78
 563 132 563 132 575.5 107.5 c 128,-1,79
 588 83 588 83 616 77.5 c 128,-1,80
 644 72 644 72 711 72 c 0,81,82
 724 72 724 72 733.5 61.5 c 128,-1,83
 743 51 743 51 743 37 c 0,84,85
 743 7 743 7 711 0 c 1,86,-1
 82 0 l 2,0,1
283 72 m 1,87,-1
 510 72 l 1,88,89
 492 114 492 114 492 188 c 2,90,-1
 492 1214 l 2,91,92
 492 1289 492 1289 510 1331 c 1,93,-1
 283 1331 l 1,94,95
 301 1289 301 1289 301 1214 c 2,96,-1
 301 188 l 2,97,98
 301 114 301 114 283 72 c 1,87,-1
1069 213 m 1,99,100
 1104 174 1104 174 1122.5 145.5 c 128,-1,101
 1141 117 1141 117 1141 84 c 2,102,-1
 1141 72 l 1,103,-1
 1409 72 l 1,104,105
 1367 115 1367 115 1323 170 c 1,106,-1
 795 805 l 1,107,-1
 674 688 l 1,108,-1
 1069 213 l 1,99,100
1122 1217 m 1,109,110
 1201 1287 1201 1287 1266 1331 c 1,111,-1
 1094 1331 l 1,112,113
 1124 1285 1124 1285 1124 1231 c 0,114,115
 1124 1227 1124 1227 1123.5 1224 c 128,-1,116
 1123 1221 1123 1221 1122 1217 c 1,109,110
EndSplineSet
EndChar

StartChar: L
Encoding: 76 76 47
Width: 1364
GlyphClass: 2
Flags: W
LayerCount: 2
Fore
SplineSet
61 0 m 2,0,1
 49 0 49 0 39 12 c 128,-1,2
 29 24 29 24 29 37 c 0,3,4
 29 65 29 65 61 72 c 1,5,-1
 68 72 l 2,6,7
 135 72 135 72 161 77.5 c 128,-1,8
 187 83 187 83 198 108 c 128,-1,9
 209 133 209 133 209 193 c 2,10,-1
 209 1214 l 2,11,12
 209 1271 209 1271 196.5 1295.5 c 128,-1,13
 184 1320 184 1320 156 1325.5 c 128,-1,14
 128 1331 128 1331 61 1331 c 0,15,16
 48 1331 48 1331 38.5 1343.5 c 128,-1,17
 29 1356 29 1356 29 1368 c 0,18,19
 29 1396 29 1396 61 1403 c 1,20,-1
 672 1403 l 2,21,22
 685 1403 685 1403 695 1392 c 128,-1,23
 705 1381 705 1381 705 1368 c 0,24,25
 705 1338 705 1338 672 1331 c 1,26,-1
 666 1331 l 2,27,28
 601 1331 601 1331 577 1325.5 c 128,-1,29
 553 1320 553 1320 544 1295 c 128,-1,30
 535 1270 535 1270 535 1210 c 2,31,-1
 535 193 l 2,32,33
 535 149 535 149 548 110.5 c 128,-1,34
 561 72 561 72 596 72 c 2,35,-1
 737 72 l 2,36,37
 840 72 840 72 951 119 c 128,-1,38
 1062 166 1062 166 1142.5 248.5 c 128,-1,39
 1223 331 1223 331 1239 432 c 1,40,41
 1242 459 1242 459 1274 459 c 0,42,43
 1288 459 1288 459 1298.5 447.5 c 128,-1,44
 1309 436 1309 436 1309 422 c 1,45,-1
 1251 27 l 1,46,47
 1246 4 1246 4 1219 0 c 1,48,-1
 61 0 l 2,0,1
262 72 m 1,49,-1
 487 72 l 1,50,51
 463 127 463 127 463 188 c 2,52,-1
 463 1214 l 2,53,54
 463 1294 463 1294 479 1331 c 1,55,-1
 262 1331 l 1,56,57
 281 1290 281 1290 281 1214 c 2,58,-1
 281 188 l 2,59,60
 281 113 281 113 262 72 c 1,49,-1
1018 72 m 1,61,-1
 1184 72 l 1,62,-1
 1206 213 l 1,63,64
 1131 133 1131 133 1018 72 c 1,61,-1
EndSplineSet
EndChar

StartChar: M
Encoding: 77 77 48
Width: 1933
GlyphClass: 2
Flags: W
LayerCount: 2
Fore
SplineSet
68 0 m 2,0,1
 55 0 55 0 45 12 c 128,-1,2
 35 24 35 24 35 37 c 0,3,4
 35 65 35 65 68 72 c 1,5,6
 124 72 124 72 168.5 105 c 128,-1,7
 213 138 213 138 213 193 c 2,8,-1
 213 1311 l 1,9,10
 157 1331 157 1331 74 1331 c 0,11,12
 60 1331 60 1331 50.5 1343.5 c 128,-1,13
 41 1356 41 1356 41 1368 c 0,14,15
 41 1396 41 1396 74 1403 c 1,16,-1
 526 1403 l 2,17,18
 547 1403 547 1403 555 1382 c 2,19,-1
 954 430 l 1,20,-1
 1354 1382 l 1,21,22
 1359 1399 1359 1399 1382 1403 c 1,23,-1
 1849 1403 l 2,24,25
 1863 1403 1863 1403 1872.5 1392.5 c 128,-1,26
 1882 1382 1882 1382 1882 1368 c 0,27,28
 1882 1338 1882 1338 1849 1331 c 1,29,30
 1793 1331 1793 1331 1748.5 1298 c 128,-1,31
 1704 1265 1704 1265 1704 1210 c 2,32,-1
 1704 193 l 2,33,34
 1704 137 1704 137 1753 104.5 c 128,-1,35
 1802 72 1802 72 1862 72 c 0,36,37
 1875 72 1875 72 1884.5 61.5 c 128,-1,38
 1894 51 1894 51 1894 37 c 0,39,40
 1894 7 1894 7 1862 0 c 1,41,-1
 1243 0 l 2,42,43
 1231 0 1231 0 1220.5 11.5 c 128,-1,44
 1210 23 1210 23 1210 37 c 0,45,46
 1210 50 1210 50 1219.5 59.5 c 128,-1,47
 1229 69 1229 69 1243 72 c 1,48,49
 1300 72 1300 72 1344.5 105 c 128,-1,50
 1389 138 1389 138 1389 193 c 2,51,-1
 1389 1243 l 1,52,-1
 877 23 l 1,53,54
 866 0 866 0 844 0 c 0,55,56
 820 0 820 0 811 23 c 2,57,-1
 303 1235 l 1,58,-1
 299 1241 l 1,59,-1
 299 193 l 2,60,61
 299 137 299 137 348 104.5 c 128,-1,62
 397 72 397 72 457 72 c 0,63,64
 470 72 470 72 479.5 61.5 c 128,-1,65
 489 51 489 51 489 37 c 0,66,67
 489 7 489 7 457 0 c 1,68,-1
 68 0 l 2,0,1
1413 72 m 1,69,-1
 1681 72 l 1,70,71
 1632 121 1632 121 1632 188 c 2,72,-1
 1632 1214 l 2,73,74
 1632 1282 1632 1282 1679 1331 c 1,75,-1
 1460 1331 l 1,76,-1
 1460 188 l 2,77,78
 1460 117 1460 117 1413 72 c 1,69,-1
844 129 m 1,79,-1
 936 348 l 1,80,-1
 922 350 l 1,81,-1
 915 354 l 2,82,83
 906 360 906 360 901 371 c 2,84,-1
 498 1331 l 1,85,-1
 319 1331 l 1,86,87
 350 1301 350 1301 369 1264 c 1,88,-1
 844 129 l 1,79,-1
EndSplineSet
EndChar

StartChar: N
Encoding: 78 78 49
Width: 1479
GlyphClass: 2
Flags: W
LayerCount: 2
Fore
SplineSet
84 0 m 2,0,1
 72 0 72 0 61.5 11.5 c 128,-1,2
 51 23 51 23 51 37 c 0,3,4
 51 50 51 50 60.5 59.5 c 128,-1,5
 70 69 70 69 84 72 c 1,6,7
 148 72 148 72 179 85 c 128,-1,8
 210 98 210 98 219.5 131.5 c 128,-1,9
 229 165 229 165 229 229 c 2,10,-1
 229 1253 l 2,11,12
 229 1256 229 1256 231 1261 c 128,-1,13
 233 1266 233 1266 233 1268 c 1,14,15
 179 1331 179 1331 109 1331 c 0,16,17
 95 1331 95 1331 85.5 1343.5 c 128,-1,18
 76 1356 76 1356 76 1368 c 0,19,20
 76 1396 76 1396 109 1403 c 1,21,-1
 537 1403 l 2,22,23
 547 1403 547 1403 561 1389 c 1,24,-1
 1192 539 l 1,25,-1
 1192 1174 l 2,26,27
 1192 1272 1192 1272 1162.5 1301.5 c 128,-1,28
 1133 1331 1133 1331 1034 1331 c 0,29,30
 1021 1331 1021 1331 1011 1343 c 128,-1,31
 1001 1355 1001 1355 1001 1368 c 256,32,33
 1001 1381 1001 1381 1010.5 1390.5 c 128,-1,34
 1020 1400 1020 1400 1034 1403 c 1,35,-1
 1405 1403 l 2,36,37
 1418 1403 1418 1403 1428 1392 c 128,-1,38
 1438 1381 1438 1381 1438 1368 c 0,39,40
 1438 1338 1438 1338 1405 1331 c 1,41,42
 1317 1331 1317 1331 1297.5 1299 c 128,-1,43
 1278 1267 1278 1267 1278 1174 c 2,44,-1
 1278 -6 l 2,45,46
 1278 -21 1278 -21 1266 -30 c 128,-1,47
 1254 -39 1254 -39 1243 -39 c 0,48,49
 1230 -39 1230 -39 1214 -25 c 1,50,-1
 315 1161 l 1,51,-1
 315 225 l 2,52,53
 315 158 315 158 328 127 c 128,-1,54
 341 96 341 96 374.5 84 c 128,-1,55
 408 72 408 72 473 72 c 0,56,57
 487 72 487 72 496.5 61.5 c 128,-1,58
 506 51 506 51 506 37 c 0,59,60
 506 7 506 7 473 0 c 1,61,-1
 84 0 l 2,0,1
1206 104 m 1,62,-1
 1206 399 l 1,63,-1
 516 1331 l 1,64,-1
 272 1331 l 2,65,66
 273 1331 273 1331 279 1323 c 1,67,68
 299 1303 299 1303 309 1290 c 2,69,-1
 1206 104 l 1,62,-1
EndSplineSet
EndChar

StartChar: O
Encoding: 79 79 50
Width: 1591
GlyphClass: 2
Flags: W
LayerCount: 2
Fore
SplineSet
797 -39 m 0,0,1
 635 -39 635 -39 499 14 c 128,-1,2
 363 67 363 67 267 166 c 128,-1,3
 171 265 171 265 119.5 402 c 128,-1,4
 68 539 68 539 68 702 c 256,5,6
 68 865 68 865 120 1002.5 c 128,-1,7
 172 1140 172 1140 267.5 1238 c 128,-1,8
 363 1336 363 1336 499 1389 c 128,-1,9
 635 1442 635 1442 797 1442 c 0,10,11
 960 1442 960 1442 1096 1388.5 c 128,-1,12
 1232 1335 1232 1335 1327 1237.5 c 128,-1,13
 1422 1140 1422 1140 1474 1002.5 c 128,-1,14
 1526 865 1526 865 1526 702 c 256,15,16
 1526 539 1526 539 1474 401.5 c 128,-1,17
 1422 264 1422 264 1327 166 c 128,-1,18
 1232 68 1232 68 1096 14.5 c 128,-1,19
 960 -39 960 -39 797 -39 c 0,0,1
797 33 m 256,20,21
 947 33 947 33 1029 140 c 128,-1,22
 1111 247 1111 247 1138 396 c 128,-1,23
 1165 545 1165 545 1165 700 c 256,24,25
 1165 855 1165 855 1138 1005.5 c 128,-1,26
 1111 1156 1111 1156 1029 1263 c 128,-1,27
 947 1370 947 1370 797 1370 c 256,28,29
 647 1370 647 1370 564.5 1263 c 128,-1,30
 482 1156 482 1156 455 1007.5 c 128,-1,31
 428 859 428 859 428 705 c 2,32,-1
 428 702 l 2,33,34
 428 548 428 548 455 397.5 c 128,-1,35
 482 247 482 247 564.5 140 c 128,-1,36
 647 33 647 33 797 33 c 256,20,21
518 86 m 1,37,38
 424 191 424 191 390 353.5 c 128,-1,39
 356 516 356 516 356 702 c 0,40,41
 356 813 356 813 368.5 926 c 128,-1,42
 381 1039 381 1039 416 1141 c 128,-1,43
 451 1243 451 1243 518 1317 c 1,44,45
 392 1266 392 1266 307 1173.5 c 128,-1,46
 222 1081 222 1081 180.5 960.5 c 128,-1,47
 139 840 139 840 139 702 c 0,48,49
 139 565 139 565 180.5 443 c 128,-1,50
 222 321 222 321 306 229.5 c 128,-1,51
 390 138 390 138 518 86 c 1,37,38
1075 86 m 1,52,53
 1203 138 1203 138 1287 229.5 c 128,-1,54
 1371 321 1371 321 1412.5 443 c 128,-1,55
 1454 565 1454 565 1454 702 c 0,56,57
 1454 840 1454 840 1412.5 960.5 c 128,-1,58
 1371 1081 1371 1081 1286 1173.5 c 128,-1,59
 1201 1266 1201 1266 1075 1317 c 1,60,61
 1169 1214 1169 1214 1203 1051.5 c 128,-1,62
 1237 889 1237 889 1237 702 c 0,63,64
 1237 265 1237 265 1075 86 c 1,52,53
EndSplineSet
EndChar

StartChar: P
Encoding: 80 80 51
Width: 1251
GlyphClass: 2
Flags: W
LayerCount: 2
Fore
SplineSet
66 0 m 2,0,1
 53 0 53 0 43 12 c 128,-1,2
 33 24 33 24 33 37 c 0,3,4
 33 65 33 65 66 72 c 1,5,-1
 72 72 l 2,6,7
 137 72 137 72 161 78 c 128,-1,8
 185 84 185 84 194 108 c 128,-1,9
 203 132 203 132 203 193 c 2,10,-1
 203 1214 l 2,11,12
 203 1273 203 1273 192.5 1296.5 c 128,-1,13
 182 1320 182 1320 156.5 1325.5 c 128,-1,14
 131 1331 131 1331 66 1331 c 0,15,16
 52 1331 52 1331 42.5 1343.5 c 128,-1,17
 33 1356 33 1356 33 1368 c 0,18,19
 33 1396 33 1396 66 1403 c 1,20,-1
 692 1403 l 2,21,22
 832 1403 832 1403 952 1368 c 128,-1,23
 1072 1333 1072 1333 1149.5 1246 c 128,-1,24
 1227 1159 1227 1159 1227 1016 c 0,25,26
 1227 914 1227 914 1180 840 c 128,-1,27
 1133 766 1133 766 1052 719 c 128,-1,28
 971 672 971 672 876.5 650.5 c 128,-1,29
 782 629 782 629 688 629 c 0,30,31
 637 629 637 629 612 631 c 1,32,-1
 537 631 l 1,33,-1
 537 188 l 2,34,35
 537 132 537 132 550 107.5 c 128,-1,36
 563 83 563 83 591 77.5 c 128,-1,37
 619 72 619 72 686 72 c 0,38,39
 700 72 700 72 709.5 61.5 c 128,-1,40
 719 51 719 51 719 37 c 0,41,42
 719 7 719 7 686 0 c 1,43,-1
 66 0 l 2,0,1
258 72 m 1,44,-1
 483 72 l 1,45,46
 465 114 465 114 465 188 c 2,47,-1
 465 1253 l 2,48,49
 465 1296 465 1296 492 1331 c 1,50,-1
 258 1331 l 1,51,52
 274 1294 274 1294 274 1214 c 2,53,-1
 274 188 l 2,54,55
 274 109 274 109 258 72 c 1,44,-1
537 702 m 1,56,-1
 649 702 l 2,57,58
 744 702 744 702 793.5 743.5 c 128,-1,59
 843 785 843 785 858.5 852.5 c 128,-1,60
 874 920 874 920 874 1016 c 0,61,62
 874 1124 874 1124 861 1188 c 128,-1,63
 848 1252 848 1252 800 1291.5 c 128,-1,64
 752 1331 752 1331 651 1331 c 0,65,66
 610 1331 610 1331 573.5 1310 c 128,-1,67
 537 1289 537 1289 537 1249 c 2,68,-1
 537 702 l 1,56,-1
872 721 m 1,69,70
 997 753 997 753 1076 826.5 c 128,-1,71
 1155 900 1155 900 1155 1016 c 0,72,73
 1155 1252 1155 1252 883 1313 c 1,74,75
 921 1261 921 1261 933.5 1187 c 128,-1,76
 946 1113 946 1113 946 1016 c 0,77,78
 946 813 946 813 872 721 c 1,69,70
EndSplineSet
EndChar

StartChar: Q
Encoding: 81 81 52
Width: 1591
GlyphClass: 2
Flags: W
LayerCount: 2
Fore
SplineSet
571 -8 m 1,0,1
 407 38 407 38 294 140 c 128,-1,2
 181 242 181 242 124.5 387 c 128,-1,3
 68 532 68 532 68 702 c 0,4,5
 68 865 68 865 120 1002.5 c 128,-1,6
 172 1140 172 1140 267.5 1238 c 128,-1,7
 363 1336 363 1336 499 1389 c 128,-1,8
 635 1442 635 1442 797 1442 c 0,9,10
 960 1442 960 1442 1096 1388.5 c 128,-1,11
 1232 1335 1232 1335 1327 1237.5 c 128,-1,12
 1422 1140 1422 1140 1474 1002.5 c 128,-1,13
 1526 865 1526 865 1526 702 c 0,14,15
 1526 569 1526 569 1491 450.5 c 128,-1,16
 1456 332 1456 332 1386.5 237 c 128,-1,17
 1317 142 1317 142 1215 77 c 128,-1,18
 1113 12 1113 12 979 -18 c 1,19,20
 1027 -119 1027 -119 1123 -179.5 c 128,-1,21
 1219 -240 1219 -240 1331 -240 c 0,22,23
 1349 -240 1349 -240 1402 -230.5 c 128,-1,24
 1455 -221 1455 -221 1464 -221 c 0,25,26
 1478 -221 1478 -221 1488.5 -232.5 c 128,-1,27
 1499 -244 1499 -244 1499 -258 c 0,28,29
 1499 -291 1499 -291 1421 -316 c 128,-1,30
 1343 -341 1343 -341 1251 -354 c 128,-1,31
 1159 -367 1159 -367 1116 -367 c 0,32,33
 1001 -367 1001 -367 892.5 -322.5 c 128,-1,34
 784 -278 784 -278 701 -197 c 128,-1,35
 618 -116 618 -116 571 -8 c 1,0,1
662 -29 m 1,36,37
 728 -150 728 -150 852 -222.5 c 128,-1,38
 976 -295 976 -295 1116 -295 c 0,39,40
 1142 -295 1142 -295 1192 -291 c 1,41,42
 1096 -261 1096 -261 1021.5 -193 c 128,-1,43
 947 -125 947 -125 907 -33 c 1,44,45
 852 -39 852 -39 797 -39 c 0,46,47
 737 -39 737 -39 662 -29 c 1,36,37
797 33 m 256,48,49
 947 33 947 33 1029 140 c 128,-1,50
 1111 247 1111 247 1138 396 c 128,-1,51
 1165 545 1165 545 1165 700 c 256,52,53
 1165 855 1165 855 1138 1005.5 c 128,-1,54
 1111 1156 1111 1156 1029 1263 c 128,-1,55
 947 1370 947 1370 797 1370 c 256,56,57
 647 1370 647 1370 564.5 1263 c 128,-1,58
 482 1156 482 1156 455 1007.5 c 128,-1,59
 428 859 428 859 428 705 c 2,60,-1
 428 702 l 2,61,62
 428 548 428 548 455 397.5 c 128,-1,63
 482 247 482 247 564.5 140 c 128,-1,64
 647 33 647 33 797 33 c 256,48,49
518 86 m 1,65,66
 424 191 424 191 390 353.5 c 128,-1,67
 356 516 356 516 356 702 c 0,68,69
 356 813 356 813 368.5 926 c 128,-1,70
 381 1039 381 1039 416 1141 c 128,-1,71
 451 1243 451 1243 518 1317 c 1,72,73
 392 1266 392 1266 307 1173.5 c 128,-1,74
 222 1081 222 1081 180.5 960.5 c 128,-1,75
 139 840 139 840 139 702 c 0,76,77
 139 565 139 565 180.5 443 c 128,-1,78
 222 321 222 321 306 229.5 c 128,-1,79
 390 138 390 138 518 86 c 1,65,66
1075 86 m 1,80,81
 1203 138 1203 138 1287 229.5 c 128,-1,82
 1371 321 1371 321 1412.5 443 c 128,-1,83
 1454 565 1454 565 1454 702 c 0,84,85
 1454 840 1454 840 1412.5 960.5 c 128,-1,86
 1371 1081 1371 1081 1286 1173.5 c 128,-1,87
 1201 1266 1201 1266 1075 1317 c 1,88,89
 1169 1214 1169 1214 1203 1051.5 c 128,-1,90
 1237 889 1237 889 1237 702 c 0,91,92
 1237 265 1237 265 1075 86 c 1,80,81
EndSplineSet
EndChar

StartChar: R
Encoding: 82 82 53
Width: 1479
GlyphClass: 2
Flags: W
LayerCount: 2
Fore
SplineSet
66 0 m 2,0,1
 53 0 53 0 43 12 c 128,-1,2
 33 24 33 24 33 37 c 0,3,4
 33 65 33 65 66 72 c 1,5,-1
 72 72 l 2,6,7
 139 72 139 72 165.5 77.5 c 128,-1,8
 192 83 192 83 203.5 108 c 128,-1,9
 215 133 215 133 215 193 c 2,10,-1
 215 1214 l 2,11,12
 215 1271 215 1271 202 1295.5 c 128,-1,13
 189 1320 189 1320 161 1325.5 c 128,-1,14
 133 1331 133 1331 66 1331 c 0,15,16
 52 1331 52 1331 42.5 1343.5 c 128,-1,17
 33 1356 33 1356 33 1368 c 0,18,19
 33 1396 33 1396 66 1403 c 1,20,-1
 743 1403 l 2,21,22
 870 1403 870 1403 996.5 1364.5 c 128,-1,23
 1123 1326 1123 1326 1205.5 1240.5 c 128,-1,24
 1288 1155 1288 1155 1288 1022 c 0,25,26
 1288 913 1288 913 1243 840 c 128,-1,27
 1198 767 1198 767 1118 726 c 128,-1,28
 1038 685 1038 685 928 666 c 1,29,30
 1008 541 1008 541 1088 420.5 c 128,-1,31
 1168 300 1168 300 1263.5 186 c 128,-1,32
 1359 72 1359 72 1407 72 c 0,33,34
 1420 72 1420 72 1430 61 c 128,-1,35
 1440 50 1440 50 1440 37 c 0,36,37
 1440 7 1440 7 1407 0 c 1,38,-1
 1053 0 l 2,39,40
 1042 0 1042 0 1028 14 c 1,41,-1
 623 643 l 1,42,-1
 549 643 l 1,43,-1
 549 188 l 2,44,45
 549 132 549 132 562 107.5 c 128,-1,46
 575 83 575 83 603 77.5 c 128,-1,47
 631 72 631 72 698 72 c 0,48,49
 712 72 712 72 721.5 61.5 c 128,-1,50
 731 51 731 51 731 37 c 0,51,52
 731 7 731 7 698 0 c 1,53,-1
 66 0 l 2,0,1
268 72 m 1,54,-1
 496 72 l 1,55,56
 477 113 477 113 477 188 c 2,57,-1
 477 1253 l 2,58,59
 477 1296 477 1296 504 1331 c 1,60,-1
 268 1331 l 1,61,62
 287 1290 287 1290 287 1214 c 2,63,-1
 287 188 l 2,64,65
 287 113 287 113 268 72 c 1,54,-1
1075 72 m 1,66,-1
 1274 72 l 1,67,68
 1204 140 1204 140 1133.5 233 c 128,-1,69
 1063 326 1063 326 1011.5 405 c 128,-1,70
 960 484 960 484 850 655 c 1,71,72
 762 647 762 647 707 645 c 1,73,-1
 1075 72 l 1,66,-1
549 715 m 1,74,75
 675 715 675 715 739 722.5 c 128,-1,76
 803 730 803 730 847.5 757.5 c 128,-1,77
 892 785 892 785 914 847.5 c 128,-1,78
 936 910 936 910 936 1022 c 0,79,80
 936 1184 936 1184 878.5 1257.5 c 128,-1,81
 821 1331 821 1331 666 1331 c 0,82,83
 621 1331 621 1331 585 1310.5 c 128,-1,84
 549 1290 549 1290 549 1249 c 2,85,-1
 549 715 l 1,74,75
942 741 m 1,86,87
 1028 759 1028 759 1088.5 791 c 128,-1,88
 1149 823 1149 823 1183 879.5 c 128,-1,89
 1217 936 1217 936 1217 1022 c 0,90,91
 1217 1139 1217 1139 1134 1210.5 c 128,-1,92
 1051 1282 1051 1282 928 1311 c 1,93,94
 1008 1218 1008 1218 1008 1022 c 0,95,96
 1008 925 1008 925 997 859 c 128,-1,97
 986 793 986 793 942 741 c 1,86,87
EndSplineSet
EndChar

StartChar: S
Encoding: 83 83 54
Width: 1137
GlyphClass: 2
Flags: W
LayerCount: 2
Fore
SplineSet
76 10 m 2,0,-1
 76 424 l 1,1,-1
 76 440 l 2,2,3
 76 492 76 492 113 492 c 0,4,5
 128 492 128 492 137.5 481 c 128,-1,6
 147 470 147 470 147 455 c 2,7,-1
 147 438 l 2,8,9
 147 374 147 374 181 304.5 c 128,-1,10
 215 235 215 235 271.5 177 c 128,-1,11
 328 119 328 119 397 83 c 128,-1,12
 466 47 466 47 532 47 c 0,13,14
 623 47 623 47 682 67 c 128,-1,15
 741 87 741 87 774 138.5 c 128,-1,16
 807 190 807 190 807 279 c 0,17,18
 807 399 807 399 705 477.5 c 128,-1,19
 603 556 603 556 453 616 c 0,20,21
 374 648 374 648 306.5 685.5 c 128,-1,22
 239 723 239 723 184 771 c 128,-1,23
 129 819 129 819 94 883.5 c 128,-1,24
 59 948 59 948 59 1024 c 0,25,26
 59 1233 59 1233 187.5 1337.5 c 128,-1,27
 316 1442 316 1442 530 1442 c 0,28,29
 618 1442 618 1442 696 1411 c 0,30,31
 765 1384 765 1384 825 1384 c 0,32,33
 865 1384 865 1384 904 1413 c 128,-1,34
 943 1442 943 1442 952 1442 c 0,35,36
 964 1442 964 1442 975.5 1432.5 c 128,-1,37
 987 1423 987 1423 987 1409 c 2,38,-1
 987 1030 l 2,39,40
 987 1014 987 1014 975.5 1004.5 c 128,-1,41
 964 995 964 995 952 995 c 0,42,43
 942 995 942 995 930.5 1002.5 c 128,-1,44
 919 1010 919 1010 918 1022 c 0,45,46
 909 1082 909 1082 872 1144.5 c 128,-1,47
 835 1207 835 1207 779 1258.5 c 128,-1,48
 723 1310 723 1310 658.5 1340 c 128,-1,49
 594 1370 594 1370 530 1370 c 0,50,51
 430 1370 430 1370 366.5 1313 c 128,-1,52
 303 1256 303 1256 303 1157 c 0,53,54
 303 1103 303 1103 346 1055 c 128,-1,55
 389 1007 389 1007 450.5 972 c 128,-1,56
 512 937 512 937 590.5 905 c 128,-1,57
 669 873 669 873 707 858 c 0,58,59
 810 818 810 818 896 750.5 c 128,-1,60
 982 683 982 683 1034.5 592 c 128,-1,61
 1087 501 1087 501 1087 393 c 256,62,63
 1087 285 1087 285 1038.5 205 c 128,-1,64
 990 125 990 125 909 74.5 c 128,-1,65
 828 24 828 24 730.5 -0.5 c 128,-1,66
 633 -25 633 -25 530 -25 c 0,67,68
 447 -25 447 -25 365 6 c 1,69,70
 303 33 303 33 238 33 c 0,71,72
 196 33 196 33 157 4 c 128,-1,73
 118 -25 118 -25 113 -25 c 0,74,75
 99 -25 99 -25 87.5 -14.5 c 128,-1,76
 76 -4 76 -4 76 10 c 2,0,-1
147 84 m 1,77,78
 195 104 195 104 238 104 c 2,79,-1
 244 104 l 1,80,81
 188 157 188 157 147 219 c 1,82,-1
 147 84 l 1,77,78
477 684 m 1,83,84
 655 610 655 610 767 517.5 c 128,-1,85
 879 425 879 425 879 279 c 0,86,87
 879 186 879 186 846 119 c 1,88,89
 927 165 927 165 971.5 235 c 128,-1,90
 1016 305 1016 305 1016 393 c 0,91,92
 1016 529 1016 529 920 632 c 128,-1,93
 824 735 824 735 682 791 c 1,94,95
 548 842 548 842 462 882.5 c 128,-1,96
 376 923 376 923 303.5 993 c 128,-1,97
 231 1063 231 1063 231 1157 c 0,98,99
 231 1241 231 1241 274 1313 c 1,100,101
 200 1270 200 1270 165.5 1193 c 128,-1,102
 131 1116 131 1116 131 1024 c 0,103,104
 131 940 131 940 183.5 875.5 c 128,-1,105
 236 811 236 811 307.5 768.5 c 128,-1,106
 379 726 379 726 477 684 c 1,83,84
915 1210 m 1,107,-1
 915 1333 l 1,108,109
 868 1313 868 1313 825 1313 c 1,110,111
 877 1264 877 1264 915 1210 c 1,107,-1
EndSplineSet
EndChar

StartChar: T
Encoding: 84 84 55
Width: 1364
GlyphClass: 2
Flags: W
LayerCount: 2
Fore
SplineSet
317 37 m 0,0,1
 317 50 317 50 326.5 59.5 c 128,-1,2
 336 69 336 69 350 72 c 1,3,4
 422 72 422 72 453.5 77.5 c 128,-1,5
 485 83 485 83 500.5 108.5 c 128,-1,6
 516 134 516 134 516 193 c 2,7,-1
 516 1329 l 1,8,9
 429 1329 429 1329 340.5 1289.5 c 128,-1,10
 252 1250 252 1250 195.5 1178.5 c 128,-1,11
 139 1107 139 1107 139 1018 c 1,12,13
 139 1018 139 1018 131 997 c 1,14,15
 117 983 117 983 102 983 c 0,16,17
 68 983 68 983 68 1018 c 2,18,-1
 68 1370 l 2,19,20
 68 1396 68 1396 100 1403 c 1,21,-1
 1268 1403 l 2,22,23
 1279 1403 1279 1403 1289.5 1391.5 c 128,-1,24
 1300 1380 1300 1380 1300 1370 c 2,25,-1
 1300 1018 l 2,26,27
 1300 1002 1300 1002 1288.5 992.5 c 128,-1,28
 1277 983 1277 983 1264 983 c 0,29,30
 1229 983 1229 983 1229 1018 c 0,31,32
 1229 1107 1229 1107 1171.5 1178.5 c 128,-1,33
 1114 1250 1114 1250 1025.5 1289.5 c 128,-1,34
 937 1329 937 1329 850 1329 c 1,35,-1
 850 188 l 2,36,37
 850 131 850 131 866.5 107 c 128,-1,38
 883 83 883 83 914.5 77.5 c 128,-1,39
 946 72 946 72 1016 72 c 0,40,41
 1029 72 1029 72 1039 61 c 128,-1,42
 1049 50 1049 50 1049 37 c 0,43,44
 1049 7 1049 7 1016 0 c 1,45,-1
 350 0 l 2,46,47
 338 0 338 0 327.5 11.5 c 128,-1,48
 317 23 317 23 317 37 c 0,0,1
569 72 m 1,49,-1
 797 72 l 1,50,51
 778 113 778 113 778 188 c 2,52,-1
 778 1331 l 1,53,-1
 588 1331 l 1,54,-1
 588 188 l 2,55,56
 588 109 588 109 569 72 c 1,49,-1
1102 1331 m 1,57,58
 1175 1289 1175 1289 1229 1223 c 1,59,-1
 1229 1331 l 1,60,-1
 1102 1331 l 1,57,58
139 1223 m 1,61,62
 189 1288 189 1288 264 1331 c 1,63,-1
 139 1331 l 1,64,-1
 139 1223 l 1,61,62
EndSplineSet
EndChar

StartChar: U
Encoding: 85 85 56
Width: 1479
GlyphClass: 2
Flags: W
LayerCount: 2
Fore
SplineSet
203 457 m 2,0,-1
 203 1214 l 2,1,2
 203 1273 203 1273 192.5 1296.5 c 128,-1,3
 182 1320 182 1320 156.5 1325.5 c 128,-1,4
 131 1331 131 1331 66 1331 c 0,5,6
 52 1331 52 1331 42.5 1343.5 c 128,-1,7
 33 1356 33 1356 33 1368 c 0,8,9
 33 1396 33 1396 66 1403 c 1,10,-1
 686 1403 l 2,11,12
 700 1403 700 1403 709.5 1392.5 c 128,-1,13
 719 1382 719 1382 719 1368 c 0,14,15
 719 1338 719 1338 686 1331 c 1,16,17
 615 1331 615 1331 585.5 1325.5 c 128,-1,18
 556 1320 556 1320 542 1295 c 128,-1,19
 528 1270 528 1270 528 1210 c 2,20,-1
 528 461 l 2,21,22
 528 344 528 344 546 254 c 128,-1,23
 564 164 564 164 623 105.5 c 128,-1,24
 682 47 682 47 797 47 c 0,25,26
 1002 47 1002 47 1093 175.5 c 128,-1,27
 1184 304 1184 304 1184 518 c 2,28,-1
 1184 1059 l 2,29,30
 1184 1158 1184 1158 1152 1244.5 c 128,-1,31
 1120 1331 1120 1331 1036 1331 c 0,32,33
 1023 1331 1023 1331 1013.5 1343.5 c 128,-1,34
 1004 1356 1004 1356 1004 1368 c 0,35,36
 1004 1396 1004 1396 1036 1403 c 1,37,-1
 1417 1403 l 2,38,39
 1431 1403 1431 1403 1440.5 1392.5 c 128,-1,40
 1450 1382 1450 1382 1450 1368 c 0,41,42
 1450 1338 1450 1338 1417 1331 c 1,43,44
 1334 1331 1334 1331 1302 1244.5 c 128,-1,45
 1270 1158 1270 1158 1270 1059 c 2,46,-1
 1270 514 l 2,47,48
 1270 256 1270 256 1133.5 108.5 c 128,-1,49
 997 -39 997 -39 739 -39 c 0,50,51
 578 -39 578 -39 456.5 16 c 128,-1,52
 335 71 335 71 269 182 c 128,-1,53
 203 293 203 293 203 457 c 2,0,-1
578 49 m 1,54,55
 541 85 541 85 515.5 134.5 c 128,-1,56
 490 184 490 184 478 236.5 c 128,-1,57
 466 289 466 289 461.5 343.5 c 128,-1,58
 457 398 457 398 457 457 c 2,59,-1
 457 1214 l 2,60,61
 457 1294 457 1294 475 1331 c 1,62,-1
 258 1331 l 1,63,64
 274 1294 274 1294 274 1214 c 2,65,-1
 274 461 l 2,66,67
 274 299 274 299 348.5 192.5 c 128,-1,68
 423 86 423 86 578 49 c 1,54,55
1227 1247 m 1,69,70
 1244 1299 1244 1299 1272 1331 c 1,71,-1
 1182 1331 l 1,72,73
 1211 1296 1211 1296 1227 1247 c 1,69,70
EndSplineSet
EndChar

StartChar: V
Encoding: 86 86 57
Width: 1479
GlyphClass: 2
Flags: W
LayerCount: 2
Fore
SplineSet
721 -18 m 2,0,-1
 168 1198 l 2,1,2
 141 1257 141 1257 111 1294 c 128,-1,3
 81 1331 81 1331 33 1331 c 1,4,5
 0 1339 0 1339 0 1368 c 0,6,7
 0 1381 0 1381 10 1392 c 128,-1,8
 20 1403 20 1403 33 1403 c 2,9,-1
 641 1403 l 1,10,11
 655 1400 655 1400 664.5 1390.5 c 128,-1,12
 674 1381 674 1381 674 1368 c 256,13,14
 674 1355 674 1355 664 1343 c 128,-1,15
 654 1331 654 1331 641 1331 c 0,16,17
 570 1331 570 1331 512 1276 c 1,18,19
 512 1272 512 1272 510 1270 c 1,20,21
 510 1186 510 1186 617.5 930.5 c 128,-1,22
 725 675 725 675 860 379 c 1,23,24
 981 664 981 664 1053.5 867.5 c 128,-1,25
 1126 1071 1126 1071 1126 1214 c 0,26,27
 1126 1268 1126 1268 1108.5 1299.5 c 128,-1,28
 1091 1331 1091 1331 1042 1331 c 1,29,30
 1010 1338 1010 1338 1010 1368 c 0,31,32
 1010 1380 1010 1380 1019.5 1391.5 c 128,-1,33
 1029 1403 1029 1403 1042 1403 c 2,34,-1
 1442 1403 l 1,35,36
 1456 1400 1456 1400 1465.5 1390.5 c 128,-1,37
 1475 1381 1475 1381 1475 1368 c 256,38,39
 1475 1355 1475 1355 1465 1343 c 128,-1,40
 1455 1331 1455 1331 1442 1331 c 0,41,42
 1398 1331 1398 1331 1362.5 1304.5 c 128,-1,43
 1327 1278 1327 1278 1309 1237 c 2,44,-1
 786 -18 l 1,45,46
 780 -39 780 -39 754 -39 c 0,47,48
 731 -39 731 -39 721 -18 c 2,0,-1
754 86 m 1,49,-1
 829 272 l 1,50,51
 779 372 779 372 685.5 584.5 c 128,-1,52
 592 797 592 797 515 1001 c 128,-1,53
 438 1205 438 1205 438 1270 c 0,54,55
 438 1302 438 1302 467 1331 c 1,56,-1
 172 1331 l 1,57,58
 204 1294 204 1294 233 1227 c 1,59,-1
 754 86 l 1,49,-1
1194 1145 m 1,60,-1
 1243 1266 l 1,61,62
 1265 1309 1265 1309 1284 1331 c 1,63,-1
 1174 1331 l 1,64,65
 1198 1289 1198 1289 1198 1214 c 0,66,67
 1198 1189 1198 1189 1194 1145 c 1,60,-1
EndSplineSet
EndChar

StartChar: W
Encoding: 87 87 58
Width: 2048
GlyphClass: 2
Flags: W
LayerCount: 2
Fore
SplineSet
580 -12 m 1,0,-1
 147 1204 l 1,1,2
 126 1266 126 1266 107.5 1298.5 c 128,-1,3
 89 1331 89 1331 49 1331 c 1,4,5
 16 1338 16 1338 16 1368 c 0,6,7
 16 1381 16 1381 26 1392 c 128,-1,8
 36 1403 36 1403 49 1403 c 2,9,-1
 555 1403 l 1,10,11
 569 1400 569 1400 578.5 1390.5 c 128,-1,12
 588 1381 588 1381 588 1368 c 256,13,14
 588 1355 588 1355 578 1343 c 128,-1,15
 568 1331 568 1331 555 1331 c 0,16,17
 513 1331 513 1331 473 1288 c 1,18,-1
 473 1282 l 2,19,20
 473 1229 473 1229 503 1119 c 128,-1,21
 533 1009 533 1009 579 871 c 128,-1,22
 625 733 625 733 669 608 c 128,-1,23
 713 483 713 483 745 393 c 1,24,-1
 1012 1008 l 1,25,-1
 934 1212 l 1,26,27
 886 1331 886 1331 817 1331 c 1,28,29
 784 1338 784 1338 784 1368 c 0,30,31
 784 1381 784 1381 794 1392 c 128,-1,32
 804 1403 804 1403 817 1403 c 2,33,-1
 1382 1403 l 1,34,35
 1415 1396 1415 1396 1415 1368 c 0,36,37
 1415 1354 1415 1354 1405.5 1342.5 c 128,-1,38
 1396 1331 1396 1331 1382 1331 c 0,39,40
 1356 1331 1356 1331 1315 1313.5 c 128,-1,41
 1274 1296 1274 1296 1274 1274 c 0,42,43
 1274 1211 1274 1211 1322 1053.5 c 128,-1,44
 1370 896 1370 896 1447.5 688.5 c 128,-1,45
 1525 481 1525 481 1540 442 c 1,46,47
 1593 589 1593 589 1633.5 710.5 c 128,-1,48
 1674 832 1674 832 1704.5 963.5 c 128,-1,49
 1735 1095 1735 1095 1735 1188 c 0,50,51
 1735 1331 1735 1331 1638 1331 c 1,52,53
 1606 1338 1606 1338 1606 1368 c 0,54,55
 1606 1380 1606 1380 1615.5 1391.5 c 128,-1,56
 1625 1403 1625 1403 1638 1403 c 2,57,-1
 1999 1403 l 1,58,59
 2013 1400 2013 1400 2022.5 1390.5 c 128,-1,60
 2032 1381 2032 1381 2032 1368 c 256,61,62
 2032 1355 2032 1355 2022 1343 c 128,-1,63
 2012 1331 2012 1331 1999 1331 c 0,64,65
 1948 1331 1948 1331 1915 1243 c 1,66,-1
 1468 -12 l 1,67,68
 1457 -39 1457 -39 1434 -39 c 0,69,70
 1410 -39 1410 -39 1399 -12 c 2,71,-1
 1051 907 l 1,72,-1
 647 -18 l 2,73,74
 637 -39 637 -39 614 -39 c 256,75,76
 591 -39 591 -39 580 -12 c 1,0,-1
618 94 m 1,77,-1
 705 293 l 1,78,79
 682 358 682 358 634.5 489.5 c 128,-1,80
 587 621 587 621 528 795.5 c 128,-1,81
 469 970 469 970 435 1096 c 128,-1,82
 401 1222 401 1222 401 1282 c 0,83,84
 401 1305 401 1305 406 1313 c 1,85,86
 407 1317 407 1317 410.5 1322.5 c 128,-1,87
 414 1328 414 1328 416 1331 c 1,88,-1
 168 1331 l 1,89,90
 195 1290 195 1290 217 1223 c 1,91,-1
 618 94 l 1,77,-1
1432 100 m 1,92,-1
 1511 322 l 2,93,94
 1511 323 1511 323 1509 326 c 128,-1,95
 1507 329 1507 329 1507 330 c 0,96,97
 1459 451 1459 451 1385.5 646 c 128,-1,98
 1312 841 1312 841 1257 1019 c 128,-1,99
 1202 1197 1202 1197 1202 1274 c 0,100,101
 1202 1311 1202 1311 1223 1331 c 1,102,-1
 950 1331 l 1,103,104
 980 1294 980 1294 1001 1237 c 2,105,-1
 1432 100 l 1,92,-1
1806 1153 m 1,106,-1
 1845 1262 l 2,107,108
 1857 1298 1857 1298 1878 1331 c 1,109,-1
 1776 1331 l 1,110,111
 1806 1281 1806 1281 1806 1188 c 2,112,-1
 1806 1153 l 1,106,-1
EndSplineSet
EndChar

StartChar: X
Encoding: 88 88 59
Width: 1479
GlyphClass: 2
Flags: W
LayerCount: 2
Fore
SplineSet
70 0 m 2,0,1
 58 0 58 0 47.5 11.5 c 128,-1,2
 37 23 37 23 37 37 c 0,3,4
 37 64 37 64 70 72 c 1,5,6
 110 72 110 72 167.5 116.5 c 128,-1,7
 225 161 225 161 266.5 206 c 128,-1,8
 308 251 308 251 373 326 c 2,9,-1
 631 618 l 1,10,11
 611 651 611 651 608 655 c 0,12,13
 468 867 468 867 335 1059.5 c 128,-1,14
 202 1252 202 1252 150 1305 c 1,15,16
 122 1331 122 1331 78 1331 c 0,17,18
 64 1331 64 1331 54.5 1343.5 c 128,-1,19
 45 1356 45 1356 45 1368 c 0,20,21
 45 1396 45 1396 78 1403 c 1,22,-1
 676 1403 l 2,23,24
 689 1403 689 1403 699 1392 c 128,-1,25
 709 1381 709 1381 709 1368 c 0,26,27
 709 1338 709 1338 676 1331 c 1,28,29
 595 1331 595 1331 559 1307 c 1,30,31
 570 1269 570 1269 611.5 1197 c 128,-1,32
 653 1125 653 1125 692.5 1063.5 c 128,-1,33
 732 1002 732 1002 788 920 c 1,34,-1
 942 1122 l 2,35,36
 983 1176 983 1176 983 1233 c 0,37,38
 983 1274 983 1274 963 1302.5 c 128,-1,39
 943 1331 943 1331 905 1331 c 0,40,41
 892 1331 892 1331 882 1343 c 128,-1,42
 872 1355 872 1355 872 1368 c 256,43,44
 872 1381 872 1381 881.5 1390.5 c 128,-1,45
 891 1400 891 1400 905 1403 c 1,46,-1
 1386 1403 l 2,47,48
 1399 1403 1399 1403 1409 1392 c 128,-1,49
 1419 1381 1419 1381 1419 1368 c 0,50,51
 1419 1339 1419 1339 1386 1331 c 1,52,53
 1279 1331 1279 1331 1192 1262 c 128,-1,54
 1105 1193 1105 1193 1018 1079 c 2,55,-1
 838 844 l 1,56,57
 852 822 852 822 865 802.5 c 128,-1,58
 878 783 878 783 895 758 c 0,59,60
 1282 175 1282 175 1360 90 c 1,61,62
 1382 72 1382 72 1411 72 c 0,63,64
 1425 72 1425 72 1434.5 61.5 c 128,-1,65
 1444 51 1444 51 1444 37 c 0,66,67
 1444 7 1444 7 1411 0 c 1,68,-1
 793 0 l 2,69,70
 781 0 781 0 770.5 11.5 c 128,-1,71
 760 23 760 23 760 37 c 0,72,73
 760 64 760 64 793 72 c 1,74,75
 901 72 901 72 942 100 c 1,76,77
 927 164 927 164 855 278 c 128,-1,78
 783 392 783 392 680 545 c 1,79,-1
 451 283 l 2,80,81
 406 231 406 231 406 174 c 0,82,83
 406 133 406 133 430 102.5 c 128,-1,84
 454 72 454 72 494 72 c 0,85,86
 507 72 507 72 516.5 61.5 c 128,-1,87
 526 51 526 51 526 37 c 0,88,89
 526 7 526 7 494 0 c 1,90,-1
 70 0 l 2,0,1
227 72 m 1,91,-1
 362 72 l 1,92,93
 334 119 334 119 334 174 c 1,94,95
 273 109 273 109 227 72 c 1,91,-1
1012 72 m 1,96,-1
 1282 72 l 1,97,98
 1225 146 1225 146 1105.5 318 c 128,-1,99
 986 490 986 490 833.5 719.5 c 128,-1,100
 681 949 681 949 583 1115 c 128,-1,101
 485 1281 485 1281 485 1317 c 1,102,103
 486 1322 486 1322 486.5 1325.5 c 128,-1,104
 487 1329 487 1329 487 1331 c 1,105,-1
 223 1331 l 1,106,107
 285 1258 285 1258 491 959 c 128,-1,108
 697 660 697 660 856.5 402 c 128,-1,109
 1016 144 1016 144 1016 94 c 0,110,111
 1016 84 1016 84 1014 80 c 1,112,113
 1014 77 1014 77 1013.5 75.5 c 128,-1,114
 1013 74 1013 74 1012 72 c 1,96,-1
1055 1235 m 1,115,116
 1106 1291 1106 1291 1165 1331 c 1,117,-1
 1030 1331 l 1,118,119
 1055 1290 1055 1290 1055 1235 c 1,115,116
EndSplineSet
EndChar

StartChar: Y
Encoding: 89 89 60
Width: 1479
GlyphClass: 2
Flags: W
LayerCount: 2
Fore
SplineSet
383 37 m 0,0,1
 383 65 383 65 416 72 c 1,2,-1
 422 72 l 2,3,4
 494 72 494 72 524.5 81.5 c 128,-1,5
 555 91 555 91 564 121.5 c 128,-1,6
 573 152 573 152 573 229 c 2,7,-1
 573 539 l 1,8,-1
 207 1194 l 2,9,10
 187 1228 187 1228 168.5 1258.5 c 128,-1,11
 150 1289 150 1289 145 1296 c 0,12,13
 130 1319 130 1319 117.5 1325 c 128,-1,14
 105 1331 105 1331 72 1331 c 0,15,16
 58 1331 58 1331 48.5 1343.5 c 128,-1,17
 39 1356 39 1356 39 1368 c 0,18,19
 39 1396 39 1396 72 1403 c 1,20,-1
 596 1403 l 2,21,22
 609 1403 609 1403 619 1392 c 128,-1,23
 629 1381 629 1381 629 1368 c 0,24,25
 629 1338 629 1338 596 1331 c 1,26,27
 557 1331 557 1331 539 1327 c 1,28,29
 534 1327 534 1327 526 1323 c 0,30,31
 524 1323 524 1323 522.5 1322.5 c 128,-1,32
 521 1322 521 1322 520 1321 c 1,33,34
 520 1308 520 1308 526 1292.5 c 128,-1,35
 532 1277 532 1277 539 1264 c 128,-1,36
 546 1251 546 1251 559 1231 c 1,37,-1
 864 686 l 1,38,-1
 1133 1118 l 2,39,40
 1155 1154 1155 1154 1155 1196 c 0,41,42
 1155 1252 1155 1252 1116.5 1291.5 c 128,-1,43
 1078 1331 1078 1331 1022 1331 c 0,44,45
 1009 1331 1009 1331 999 1343 c 128,-1,46
 989 1355 989 1355 989 1368 c 256,47,48
 989 1381 989 1381 998.5 1390.5 c 128,-1,49
 1008 1400 1008 1400 1022 1403 c 1,50,-1
 1407 1403 l 2,51,52
 1420 1403 1420 1403 1430 1392 c 128,-1,53
 1440 1381 1440 1381 1440 1368 c 0,54,55
 1440 1338 1440 1338 1407 1331 c 1,56,57
 1383 1331 1383 1331 1354 1303.5 c 128,-1,58
 1325 1276 1325 1276 1292 1231.5 c 128,-1,59
 1259 1187 1259 1187 1236.5 1150.5 c 128,-1,60
 1214 1114 1214 1114 1194 1081 c 2,61,-1
 907 621 l 1,62,-1
 907 225 l 2,63,64
 907 166 907 166 912.5 137.5 c 128,-1,65
 918 109 918 109 933.5 95 c 128,-1,66
 949 81 949 81 979.5 76.5 c 128,-1,67
 1010 72 1010 72 1065 72 c 0,68,69
 1078 72 1078 72 1088 61 c 128,-1,70
 1098 50 1098 50 1098 37 c 0,71,72
 1098 7 1098 7 1065 0 c 1,73,-1
 416 0 l 2,74,75
 403 0 403 0 393 12 c 128,-1,76
 383 24 383 24 383 37 c 0,0,1
621 72 m 1,77,-1
 860 72 l 1,78,79
 836 117 836 117 836 225 c 2,80,-1
 836 592 l 2,81,82
 836 593 836 593 833.5 595 c 128,-1,83
 831 597 831 597 831 598 c 2,84,-1
 498 1194 l 1,85,86
 480 1224 480 1224 472 1239.5 c 128,-1,87
 464 1255 464 1255 456.5 1275.5 c 128,-1,88
 449 1296 449 1296 449 1317 c 1,89,90
 450 1322 450 1322 450.5 1325.5 c 128,-1,91
 451 1329 451 1329 451 1331 c 1,92,-1
 209 1331 l 1,93,94
 246 1274 246 1274 268 1231 c 1,95,-1
 641 565 l 2,96,97
 645 557 645 557 645 549 c 2,98,-1
 645 225 l 2,99,100
 645 117 645 117 621 72 c 1,77,-1
1219 1251 m 1,101,102
 1250 1299 1250 1299 1282 1331 c 1,103,-1
 1178 1331 l 1,104,105
 1204 1299 1204 1299 1219 1251 c 1,101,102
EndSplineSet
EndChar

StartChar: Z
Encoding: 90 90 61
Width: 1364
GlyphClass: 2
Flags: W
LayerCount: 2
Fore
SplineSet
90 0 m 2,0,1
 78 0 78 0 67.5 11.5 c 128,-1,2
 57 23 57 23 57 37 c 0,3,4
 57 46 57 46 63 55 c 2,5,-1
 846 1331 l 1,6,-1
 686 1331 l 2,7,8
 604 1331 604 1331 524.5 1316 c 128,-1,9
 445 1301 445 1301 373.5 1265 c 128,-1,10
 302 1229 302 1229 256.5 1171.5 c 128,-1,11
 211 1114 211 1114 199 1028 c 1,12,13
 196 1017 196 1017 185 1009 c 128,-1,14
 174 1001 174 1001 164 1001 c 0,15,16
 148 1001 148 1001 137.5 1012.5 c 128,-1,17
 127 1024 127 1024 127 1040 c 1,18,-1
 164 1370 l 2,19,20
 167 1397 167 1397 197 1403 c 1,21,-1
 1206 1403 l 2,22,23
 1220 1403 1220 1403 1229.5 1392.5 c 128,-1,24
 1239 1382 1239 1382 1239 1368 c 0,25,26
 1239 1358 1239 1358 1235 1350 c 2,27,-1
 451 72 l 1,28,-1
 748 72 l 2,29,30
 835 72 835 72 917.5 100 c 128,-1,31
 1000 128 1000 128 1065.5 180 c 128,-1,32
 1131 232 1131 232 1174.5 305 c 128,-1,33
 1218 378 1218 378 1231 465 c 0,34,35
 1232 478 1232 478 1243 488 c 128,-1,36
 1254 498 1254 498 1268 498 c 256,37,38
 1282 498 1282 498 1292.5 486.5 c 128,-1,39
 1303 475 1303 475 1303 461 c 1,40,-1
 1245 35 l 2,41,42
 1242 6 1242 6 1212 0 c 1,43,-1
 90 0 l 2,0,1
158 72 m 1,44,-1
 367 72 l 1,45,-1
 1139 1331 l 1,46,-1
 930 1331 l 1,47,-1
 158 72 l 1,44,-1
1032 72 m 1,48,-1
 1178 72 l 1,49,-1
 1196 211 l 1,50,51
 1131 124 1131 124 1032 72 c 1,48,-1
221 1237 m 1,52,53
 277 1296 277 1296 346 1331 c 1,54,-1
 231 1331 l 1,55,-1
 221 1237 l 1,52,53
EndSplineSet
EndChar

StartChar: bracketleft
Encoding: 91 91 62
Width: 0
GlyphClass: 2
Flags: W
LayerCount: 2
Fore
SplineSet
8 1200 m 1,0,-1
 -8 1270 l 1,1,-1
 1933 1735 l 1,2,-1
 3875 1270 l 1,3,-1
 3858 1200 l 1,4,-1
 1933 1597 l 1,5,-1
 8 1200 l 1,0,-1
EndSplineSet
EndChar

StartChar: backslash
Encoding: 92 92 63
Width: 0
GlyphClass: 2
Flags: W
LayerCount: 2
Fore
SplineSet
6 1200 m 1,0,-1
 -6 1270 l 1,1,-1
 2388 1735 l 1,2,-1
 4782 1270 l 1,3,-1
 4770 1200 l 1,4,-1
 2388 1597 l 1,5,-1
 6 1200 l 1,0,-1
EndSplineSet
EndChar

StartChar: bracketright
Encoding: 93 93 64
Width: 0
GlyphClass: 2
Flags: W
LayerCount: 2
Fore
SplineSet
10 1288 m 1,0,-1
 0 1368 l 1,1,2
 50 1398 50 1398 84 1407 c 1,3,4
 969 1690 969 1690 1423 1690 c 0,5,6
 1602 1690 1602 1690 1719.5 1653.5 c 128,-1,7
 1837 1617 1837 1617 1972.5 1547.5 c 128,-1,8
 2108 1478 2108 1478 2224 1442.5 c 128,-1,9
 2340 1407 2340 1407 2517 1407 c 0,10,11
 2618 1407 2618 1407 2752.5 1422.5 c 128,-1,12
 2887 1438 2887 1438 3048.5 1471.5 c 128,-1,13
 3210 1505 3210 1505 3411.5 1559.5 c 128,-1,14
 3613 1614 3613 1614 3856 1690 c 1,15,-1
 3867 1610 l 1,16,17
 3823 1583 3823 1583 3783 1571 c 0,18,19
 2898 1288 2898 1288 2443 1288 c 0,20,21
 2266 1288 2266 1288 2152 1323 c 128,-1,22
 2038 1358 2038 1358 1900.5 1428 c 128,-1,23
 1763 1498 1763 1498 1645 1534.5 c 128,-1,24
 1527 1571 1527 1571 1350 1571 c 0,25,26
 1242 1571 1242 1571 1117 1556.5 c 128,-1,27
 992 1542 992 1542 827.5 1509 c 128,-1,28
 663 1476 663 1476 459.5 1421 c 128,-1,29
 256 1366 256 1366 10 1288 c 1,0,-1
EndSplineSet
EndChar

StartChar: asciicircum
Encoding: 94 94 65
Width: 0
GlyphClass: 2
Flags: W
LayerCount: 2
Fore
SplineSet
10 1380 m 1,0,-1
 0 1460 l 1,1,2
 45 1488 45 1488 84 1499 c 0,3,4
 480 1620 480 1620 803.5 1698 c 128,-1,5
 1127 1776 1127 1776 1357.5 1809.5 c 128,-1,6
 1588 1843 1588 1843 1767 1843 c 0,7,8
 1993 1843 1993 1843 2128 1800 c 128,-1,9
 2263 1757 2263 1757 2425 1671 c 128,-1,10
 2587 1585 2587 1585 2724.5 1542 c 128,-1,11
 2862 1499 2862 1499 3082 1499 c 0,12,13
 3263 1499 3263 1499 3493 1532.5 c 128,-1,14
 3723 1566 3723 1566 4046.5 1644 c 128,-1,15
 4370 1722 4370 1722 4766 1843 c 1,16,-1
 4776 1763 l 1,17,18
 4730 1736 4730 1736 4692 1724 c 0,19,20
 4296 1603 4296 1603 3972.5 1525 c 128,-1,21
 3649 1447 3649 1447 3418.5 1413.5 c 128,-1,22
 3188 1380 3188 1380 3009 1380 c 0,23,24
 2790 1380 2790 1380 2653 1422.5 c 128,-1,25
 2516 1465 2516 1465 2352.5 1551.5 c 128,-1,26
 2189 1638 2189 1638 2053.5 1681 c 128,-1,27
 1918 1724 1918 1724 1694 1724 c 0,28,29
 1513 1724 1513 1724 1283 1690.5 c 128,-1,30
 1053 1657 1053 1657 729.5 1579 c 128,-1,31
 406 1501 406 1501 10 1380 c 1,0,-1
EndSplineSet
EndChar

StartChar: grave
Encoding: 96 96 66
Width: 1137
GlyphClass: 2
Flags: W
LayerCount: 2
Fore
SplineSet
154 0 m 2,0,1
 137 0 137 0 126 12 c 128,-1,2
 115 24 115 24 115 41 c 0,3,4
 115 56 115 56 126 69 c 128,-1,5
 137 82 137 82 154 82 c 2,6,-1
 940 82 l 1,7,-1
 940 670 l 1,8,-1
 459 670 l 2,9,10
 443 670 443 670 432.5 682 c 128,-1,11
 422 694 422 694 422 711 c 0,12,13
 422 726 422 726 432.5 739 c 128,-1,14
 443 752 443 752 459 752 c 2,15,-1
 940 752 l 1,16,-1
 940 1384 l 2,17,18
 940 1400 940 1400 953 1410.5 c 128,-1,19
 966 1421 966 1421 981 1421 c 256,20,21
 996 1421 996 1421 1009 1410.5 c 128,-1,22
 1022 1400 1022 1400 1022 1384 c 2,23,-1
 1022 39 l 2,24,25
 1022 23 1022 23 1010.5 11.5 c 128,-1,26
 999 0 999 0 985 0 c 2,27,-1
 154 0 l 2,0,1
EndSplineSet
EndChar

StartChar: a
Encoding: 97 97 67
Width: 1307
GlyphClass: 2
Flags: W
LayerCount: 2
Fore
SplineSet
80 92 m 2,0,-1
 80 596 l 2,1,2
 80 609 80 609 92 621 c 128,-1,3
 104 633 104 633 119 633 c 2,4,-1
 473 633 l 2,5,6
 489 633 489 633 499.5 620 c 128,-1,7
 510 607 510 607 510 592 c 0,8,9
 510 575 510 575 499.5 563 c 128,-1,10
 489 551 489 551 473 551 c 2,11,-1
 162 551 l 1,12,-1
 162 98 l 2,13,14
 162 58 162 58 279.5 47.5 c 128,-1,15
 397 37 397 37 508 37 c 0,16,17
 637 37 637 37 747.5 92 c 128,-1,18
 858 147 858 147 936 240 c 128,-1,19
 1014 333 1014 333 1057 454.5 c 128,-1,20
 1100 576 1100 576 1100 700 c 0,21,22
 1100 823 1100 823 1057.5 943.5 c 128,-1,23
 1015 1064 1015 1064 936.5 1158.5 c 128,-1,24
 858 1253 858 1253 749 1307.5 c 128,-1,25
 640 1362 640 1362 510 1362 c 0,26,27
 325 1362 325 1362 160 1270 c 0,28,29
 148 1264 148 1264 137 1264 c 0,30,31
 122 1264 122 1264 109 1276 c 128,-1,32
 96 1288 96 1288 96 1305 c 0,33,34
 96 1329 96 1329 117 1339 c 1,35,36
 301 1444 301 1444 510 1444 c 0,37,38
 656 1444 656 1444 782 1381.5 c 128,-1,39
 908 1319 908 1319 997 1213.5 c 128,-1,40
 1086 1108 1086 1108 1134 974.5 c 128,-1,41
 1182 841 1182 841 1182 700 c 256,42,43
 1182 559 1182 559 1134 426 c 128,-1,44
 1086 293 1086 293 996 186 c 128,-1,45
 906 79 906 79 781 17 c 128,-1,46
 656 -45 656 -45 510 -45 c 0,47,48
 352 -45 352 -45 216 -20.5 c 128,-1,49
 80 4 80 4 80 92 c 2,0,-1
EndSplineSet
EndChar

StartChar: f
Encoding: 102 102 68
Width: 1479
GlyphClass: 2
Flags: W
LayerCount: 2
Fore
SplineSet
115 467 m 0,0,1
 115 573 115 573 153.5 665 c 128,-1,2
 192 757 192 757 280.5 894 c 128,-1,3
 369 1031 369 1031 410 1102.5 c 128,-1,4
 451 1174 451 1174 473 1266 c 1,5,-1
 346 1266 l 2,6,7
 272 1266 272 1266 239.5 1260 c 128,-1,8
 207 1254 207 1254 193.5 1236.5 c 128,-1,9
 180 1219 180 1219 170.5 1171.5 c 128,-1,10
 161 1124 161 1124 150 1067 c 1,11,-1
 90 1067 l 1,12,-1
 158 1399 l 1,13,-1
 520 1399 l 2,14,15
 541 1399 541 1399 541 1372 c 0,16,17
 541 1263 541 1263 513 1160.5 c 128,-1,18
 485 1058 485 1058 431.5 914.5 c 128,-1,19
 378 771 378 771 350.5 671 c 128,-1,20
 323 571 323 571 322 467 c 1,21,22
 322 341 322 341 372.5 236 c 128,-1,23
 423 131 423 131 518 69.5 c 128,-1,24
 613 8 613 8 739 8 c 0,25,26
 835 8 835 8 912 44 c 128,-1,27
 989 80 989 80 1043 142.5 c 128,-1,28
 1097 205 1097 205 1126 290.5 c 128,-1,29
 1155 376 1155 376 1155 467 c 0,30,31
 1155 573 1155 573 1127 672 c 128,-1,32
 1099 771 1099 771 1043 924 c 128,-1,33
 987 1077 987 1077 961.5 1173 c 128,-1,34
 936 1269 936 1269 936 1372 c 0,35,36
 936 1399 936 1399 956 1399 c 2,37,-1
 1319 1399 l 1,38,-1
 1386 1067 l 1,39,-1
 1327 1067 l 1,40,41
 1316 1124 1316 1124 1307.5 1171.5 c 128,-1,42
 1299 1219 1299 1219 1285.5 1236 c 128,-1,43
 1272 1253 1272 1253 1238.5 1259.5 c 128,-1,44
 1205 1266 1205 1266 1130 1266 c 2,45,-1
 1004 1266 l 1,46,47
 1027 1176 1027 1176 1097 1058.5 c 128,-1,48
 1167 941 1167 941 1224.5 853 c 128,-1,49
 1282 765 1282 765 1322 669 c 128,-1,50
 1362 573 1362 573 1362 467 c 0,51,52
 1362 315 1362 315 1270 197 c 128,-1,53
 1178 79 1178 79 1032.5 17 c 128,-1,54
 887 -45 887 -45 739 -45 c 0,55,56
 590 -45 590 -45 444.5 17 c 128,-1,57
 299 79 299 79 207 196 c 128,-1,58
 115 313 115 313 115 467 c 0,0,1
EndSplineSet
EndChar

StartChar: g
Encoding: 103 103 69
Width: 1137
GlyphClass: 2
Flags: W
LayerCount: 2
Fore
SplineSet
569 -45 m 0,0,1
 434 -45 434 -45 322.5 21.5 c 128,-1,2
 211 88 211 88 148.5 202.5 c 128,-1,3
 86 317 86 317 86 451 c 0,4,5
 86 581 86 581 144.5 694.5 c 128,-1,6
 203 808 203 808 309 875 c 128,-1,7
 415 942 415 942 547 942 c 0,8,9
 655 942 655 942 739.5 876.5 c 128,-1,10
 824 811 824 811 866 711 c 1,11,12
 866 821 866 821 842 921.5 c 128,-1,13
 818 1022 818 1022 765 1110 c 128,-1,14
 712 1198 712 1198 631 1260 c 1,15,-1
 225 1075 l 2,16,17
 209 1067 209 1067 184 1067 c 2,18,-1
 172 1067 l 2,19,20
 159 1067 159 1067 140 1072 c 128,-1,21
 121 1077 121 1077 121 1085 c 2,22,-1
 121 1266 l 2,23,24
 121 1275 121 1275 139.5 1280.5 c 128,-1,25
 158 1286 158 1286 172 1286 c 2,26,-1
 184 1286 l 2,27,28
 199 1286 199 1286 217.5 1280.5 c 128,-1,29
 236 1275 236 1275 236 1266 c 2,30,-1
 236 1147 l 1,31,-1
 573 1300 l 1,32,33
 402 1407 402 1407 176 1407 c 0,34,35
 160 1407 160 1407 160 1425 c 2,36,-1
 160 1450 l 2,37,38
 160 1466 160 1466 180 1466 c 0,39,40
 306 1466 306 1466 429.5 1434 c 128,-1,41
 553 1402 553 1402 662 1341 c 1,42,-1
 913 1456 l 1,43,44
 935 1464 935 1464 952 1464 c 2,45,-1
 965 1464 l 2,46,47
 979 1464 979 1464 997.5 1458.5 c 128,-1,48
 1016 1453 1016 1453 1016 1444 c 2,49,-1
 1016 1264 l 2,50,51
 1016 1255 1016 1255 997 1250 c 128,-1,52
 978 1245 978 1245 965 1245 c 2,53,-1
 952 1245 l 2,54,55
 939 1245 939 1245 920 1250 c 128,-1,56
 901 1255 901 1255 901 1264 c 2,57,-1
 901 1382 l 1,58,-1
 723 1303 l 1,59,60
 797 1252 797 1252 856 1188 c 128,-1,61
 915 1124 915 1124 959 1047 c 128,-1,62
 1003 970 1003 970 1027 886 c 128,-1,63
 1051 802 1051 802 1051 711 c 0,64,65
 1051 566 1051 566 1030.5 443.5 c 128,-1,66
 1010 321 1010 321 958 217 c 0,67,68
 920 140 920 140 862 80 c 128,-1,69
 804 20 804 20 729 -12.5 c 128,-1,70
 654 -45 654 -45 569 -45 c 0,0,1
334 141 m 1,71,72
 416 20 416 20 567 20 c 0,73,74
 647 20 647 20 703 59 c 128,-1,75
 759 98 759 98 794 161 c 128,-1,76
 829 224 829 224 844.5 294.5 c 128,-1,77
 860 365 860 365 860 442 c 0,78,79
 860 446 860 446 859.5 448 c 128,-1,80
 859 450 859 450 858 453 c 1,81,82
 860 469 860 469 860 504 c 0,83,84
 860 574 860 574 841.5 640.5 c 128,-1,85
 823 707 823 707 784.5 763 c 128,-1,86
 746 819 746 819 688 854 c 128,-1,87
 630 889 630 889 557 889 c 0,88,89
 392 889 392 889 311 733 c 1,90,91
 283 671 283 671 276.5 609.5 c 128,-1,92
 270 548 270 548 270 451 c 0,93,94
 270 342 270 342 280.5 271.5 c 128,-1,95
 291 201 291 201 334 141 c 1,71,72
EndSplineSet
EndChar

StartChar: h
Encoding: 104 104 70
Width: 1591
GlyphClass: 2
Flags: W
LayerCount: 2
Fore
SplineSet
143 74 m 0,0,1
 121 74 121 74 115 125 c 1,2,-1
 115 137 l 2,3,4
 115 211 115 211 139.5 280.5 c 128,-1,5
 164 350 164 350 209.5 407 c 128,-1,6
 255 464 255 464 317.5 496 c 128,-1,7
 380 528 380 528 455 528 c 0,8,9
 547 528 547 528 625 483.5 c 128,-1,10
 703 439 703 439 804 355 c 128,-1,11
 905 271 905 271 976 229.5 c 128,-1,12
 1047 188 1047 188 1137 188 c 0,13,14
 1193 188 1193 188 1245 211.5 c 128,-1,15
 1297 235 1297 235 1335.5 274.5 c 128,-1,16
 1374 314 1374 314 1396.5 368 c 128,-1,17
 1419 422 1419 422 1419 477 c 1,18,19
 1425 528 1425 528 1448 528 c 256,20,21
 1471 528 1471 528 1477 477 c 1,22,-1
 1477 465 l 2,23,24
 1477 392 1477 392 1452.5 321.5 c 128,-1,25
 1428 251 1428 251 1383 195.5 c 128,-1,26
 1338 140 1338 140 1274.5 107 c 128,-1,27
 1211 74 1211 74 1137 74 c 0,28,29
 1045 74 1045 74 971 116.5 c 128,-1,30
 897 159 897 159 796 243 c 128,-1,31
 695 327 695 327 620 370.5 c 128,-1,32
 545 414 545 414 455 414 c 0,33,34
 380 414 380 414 314 374 c 128,-1,35
 248 334 248 334 210 267 c 128,-1,36
 172 200 172 200 172 125 c 1,37,38
 166 74 166 74 143 74 c 0,0,1
154 868 m 2,39,40
 137 868 137 868 126 881 c 128,-1,41
 115 894 115 894 115 909 c 0,42,43
 115 926 115 926 126 938 c 128,-1,44
 137 950 137 950 154 950 c 2,45,-1
 1440 950 l 2,46,47
 1455 950 1455 950 1466 938 c 128,-1,48
 1477 926 1477 926 1477 909 c 0,49,50
 1477 894 1477 894 1466 881 c 128,-1,51
 1455 868 1455 868 1440 868 c 2,52,-1
 154 868 l 2,39,40
EndSplineSet
EndChar

StartChar: i
Encoding: 105 105 71
Width: 1364
GlyphClass: 2
Flags: W
LayerCount: 2
Fore
SplineSet
20 -41 m 2,0,1
 5 -41 5 -41 -5.5 -28 c 128,-1,2
 -16 -15 -16 -15 -16 0 c 0,3,4
 -16 18 -16 18 -6 29 c 2,5,-1
 172 207 l 1,6,7
 191 221 191 221 201 221 c 2,8,-1
 1167 221 l 1,9,-1
 1167 1149 l 2,10,11
 1167 1180 1167 1180 1139.5 1196 c 128,-1,12
 1112 1212 1112 1212 1077 1212 c 2,13,-1
 281 1212 l 2,14,15
 207 1212 207 1212 170.5 1249 c 128,-1,16
 134 1286 134 1286 124.5 1341 c 128,-1,17
 115 1396 115 1396 115 1473 c 2,18,-1
 115 1526 l 2,19,20
 115 1541 115 1541 127 1552 c 128,-1,21
 139 1563 139 1563 156 1563 c 0,22,23
 177 1563 177 1563 195.5 1528 c 128,-1,24
 214 1493 214 1493 228.5 1477.5 c 128,-1,25
 243 1462 243 1462 287 1462 c 2,26,-1
 1083 1462 l 2,27,28
 1191 1462 1191 1462 1220 1394.5 c 128,-1,29
 1249 1327 1249 1327 1249 1202 c 2,30,-1
 1249 221 l 1,31,-1
 1343 221 l 2,32,33
 1359 221 1359 221 1369.5 208 c 128,-1,34
 1380 195 1380 195 1380 180 c 0,35,36
 1380 160 1380 160 1370 152 c 1,37,-1
 1192 -29 l 1,38,39
 1176 -41 1176 -41 1163 -41 c 2,40,-1
 20 -41 l 2,0,1
EndSplineSet
EndChar

StartChar: j
Encoding: 106 106 72
Width: 909
GlyphClass: 2
Flags: W
LayerCount: 2
Fore
SplineSet
20 -41 m 2,0,1
 5 -41 5 -41 -5.5 -28 c 128,-1,2
 -16 -15 -16 -15 -16 0 c 0,3,4
 -16 18 -16 18 -6 29 c 2,5,-1
 172 207 l 1,6,7
 191 221 191 221 201 221 c 2,8,-1
 639 221 l 1,9,-1
 639 1212 l 1,10,-1
 281 1212 l 2,11,12
 207 1212 207 1212 170.5 1249 c 128,-1,13
 134 1286 134 1286 124.5 1341 c 128,-1,14
 115 1396 115 1396 115 1473 c 2,15,-1
 115 1526 l 2,16,17
 115 1541 115 1541 127 1552 c 128,-1,18
 139 1563 139 1563 156 1563 c 0,19,20
 177 1563 177 1563 195.5 1528 c 128,-1,21
 214 1493 214 1493 228.5 1477.5 c 128,-1,22
 243 1462 243 1462 287 1462 c 2,23,-1
 682 1462 l 2,24,25
 719 1462 719 1462 752 1446 c 128,-1,26
 785 1430 785 1430 805 1401 c 128,-1,27
 825 1372 825 1372 825 1337 c 0,28,29
 825 1293 825 1293 795.5 1259.5 c 128,-1,30
 766 1226 766 1226 721 1217 c 1,31,32
 721 1115 721 1115 728 1012.5 c 128,-1,33
 735 910 735 910 758 690 c 0,34,35
 767 603 767 603 775 523 c 128,-1,36
 783 443 783 443 789 346 c 128,-1,37
 795 249 795 249 795 160 c 0,38,39
 795 109 795 109 790.5 57.5 c 128,-1,40
 786 6 786 6 767.5 -40 c 128,-1,41
 749 -86 749 -86 709 -86 c 0,42,43
 677 -86 677 -86 670 -55 c 1,44,45
 651 13 651 13 645 86 c 1,46,-1
 530 -29 l 2,47,48
 518 -41 518 -41 504 -41 c 2,49,-1
 20 -41 l 2,0,1
EndSplineSet
EndChar

StartChar: k
Encoding: 107 107 73
Width: 1364
GlyphClass: 2
Flags: W
LayerCount: 2
Fore
SplineSet
1126 -55 m 0,0,1
 1096 74 1096 74 1096 205 c 2,2,-1
 1096 1212 l 1,3,-1
 281 1212 l 2,4,5
 207 1212 207 1212 170.5 1249 c 128,-1,6
 134 1286 134 1286 124.5 1341 c 128,-1,7
 115 1396 115 1396 115 1473 c 2,8,-1
 115 1526 l 2,9,10
 115 1541 115 1541 127 1552 c 128,-1,11
 139 1563 139 1563 156 1563 c 0,12,13
 177 1563 177 1563 195.5 1528 c 128,-1,14
 214 1493 214 1493 228.5 1477.5 c 128,-1,15
 243 1462 243 1462 287 1462 c 2,16,-1
 1139 1462 l 2,17,18
 1175 1462 1175 1462 1208 1446 c 128,-1,19
 1241 1430 1241 1430 1261.5 1401 c 128,-1,20
 1282 1372 1282 1372 1282 1337 c 0,21,22
 1282 1293 1282 1293 1252.5 1259.5 c 128,-1,23
 1223 1226 1223 1226 1178 1217 c 1,24,25
 1181 1094 1181 1094 1190 979.5 c 128,-1,26
 1199 865 1199 865 1215.5 705 c 128,-1,27
 1232 545 1232 545 1241.5 416.5 c 128,-1,28
 1251 288 1251 288 1251 162 c 0,29,30
 1251 112 1251 112 1247 60.5 c 128,-1,31
 1243 9 1243 9 1223.5 -38.5 c 128,-1,32
 1204 -86 1204 -86 1165 -86 c 0,33,34
 1133 -86 1133 -86 1126 -55 c 0,0,1
EndSplineSet
EndChar

StartChar: l
Encoding: 108 108 74
Width: 1591
GlyphClass: 2
Flags: W
LayerCount: 2
Fore
SplineSet
190 477 m 1,0,1
 170 483 170 483 170 512 c 0,2,3
 170 539 170 539 197 549 c 1,4,-1
 1366 1102 l 2,5,6
 1370 1104 1370 1104 1380 1104 c 0,7,8
 1397 1104 1397 1104 1409 1092 c 128,-1,9
 1421 1080 1421 1080 1421 1063 c 0,10,11
 1421 1036 1421 1036 1397 1026 c 1,12,-1
 307 512 l 1,13,-1
 1403 -6 l 2,14,15
 1421 -15 1421 -15 1421 -41 c 0,16,17
 1421 -58 1421 -58 1409 -70 c 128,-1,18
 1397 -82 1397 -82 1380 -82 c 0,19,20
 1370 -82 1370 -82 1366 -78 c 1,21,-1
 190 477 l 1,0,1
954 512 m 0,22,23
 954 567 954 567 993 607 c 128,-1,24
 1032 647 1032 647 1087 647 c 0,25,26
 1143 647 1143 647 1183 608 c 128,-1,27
 1223 569 1223 569 1223 512 c 0,28,29
 1223 456 1223 456 1182.5 417.5 c 128,-1,30
 1142 379 1142 379 1087 379 c 0,31,32
 1033 379 1033 379 993.5 418.5 c 128,-1,33
 954 458 954 458 954 512 c 0,22,23
EndSplineSet
EndChar

StartChar: m
Encoding: 109 109 75
Width: 1591
GlyphClass: 2
Flags: W
LayerCount: 2
Fore
SplineSet
170 -41 m 0,0,1
 170 -15 170 -15 197 -2 c 2,2,-1
 1284 512 l 1,3,-1
 190 1028 l 2,4,5
 170 1037 170 1037 170 1063 c 0,6,7
 170 1078 170 1078 182 1091 c 128,-1,8
 194 1104 194 1104 211 1104 c 0,9,10
 221 1104 221 1104 227 1102 c 2,11,-1
 1403 547 l 2,12,13
 1421 538 1421 538 1421 512 c 0,14,15
 1421 487 1421 487 1397 473 c 1,16,-1
 227 -78 l 1,17,18
 221 -82 221 -82 211 -82 c 0,19,20
 194 -82 194 -82 182 -69 c 128,-1,21
 170 -56 170 -56 170 -41 c 0,0,1
369 512 m 0,22,23
 369 568 369 568 408.5 607.5 c 128,-1,24
 448 647 448 647 502 647 c 0,25,26
 557 647 557 647 597 608 c 128,-1,27
 637 569 637 569 637 512 c 0,28,29
 637 456 637 456 596.5 417.5 c 128,-1,30
 556 379 556 379 502 379 c 0,31,32
 449 379 449 379 409 418 c 128,-1,33
 369 457 369 457 369 512 c 0,22,23
EndSplineSet
EndChar

StartChar: n
Encoding: 110 110 76
Width: 1591
GlyphClass: 2
Flags: W
LayerCount: 2
Fore
SplineSet
301 57 m 2,0,-1
 301 969 l 2,1,2
 301 984 301 984 314 995 c 128,-1,3
 327 1006 327 1006 342 1006 c 0,4,5
 356 1006 356 1006 373 993 c 1,6,-1
 797 569 l 1,7,-1
 1219 993 l 1,8,9
 1236 1006 1236 1006 1249 1006 c 0,10,11
 1266 1006 1266 1006 1278 994 c 128,-1,12
 1290 982 1290 982 1290 965 c 256,13,14
 1290 948 1290 948 1280 938 c 2,15,-1
 854 512 l 1,16,-1
 1280 88 l 1,17,18
 1290 75 1290 75 1290 59 c 0,19,20
 1290 42 1290 42 1278 30 c 128,-1,21
 1266 18 1266 18 1249 18 c 0,22,23
 1234 18 1234 18 1219 33 c 2,24,-1
 797 455 l 1,25,-1
 373 33 l 2,26,27
 358 18 358 18 342 18 c 0,28,29
 327 18 327 18 314 29 c 128,-1,30
 301 40 301 40 301 57 c 2,0,-1
383 158 m 1,31,-1
 737 512 l 1,32,-1
 383 866 l 1,33,-1
 383 158 l 1,31,-1
EndSplineSet
EndChar

StartChar: o
Encoding: 111 111 77
Width: 1591
GlyphClass: 2
Flags: W
LayerCount: 2
Fore
SplineSet
301 59 m 0,0,1
 301 75 301 75 311 88 c 1,2,-1
 737 512 l 1,3,-1
 311 938 l 2,4,5
 301 948 301 948 301 965 c 0,6,7
 301 980 301 980 313 993 c 128,-1,8
 325 1006 325 1006 342 1006 c 0,9,10
 356 1006 356 1006 373 993 c 1,11,-1
 797 569 l 1,12,-1
 1219 993 l 1,13,14
 1236 1006 1236 1006 1249 1006 c 0,15,16
 1266 1006 1266 1006 1278 995 c 128,-1,17
 1290 984 1290 984 1290 969 c 2,18,-1
 1290 57 l 2,19,20
 1290 40 1290 40 1278 29 c 128,-1,21
 1266 18 1266 18 1249 18 c 0,22,23
 1234 18 1234 18 1219 33 c 2,24,-1
 797 455 l 1,25,-1
 373 33 l 2,26,27
 358 18 358 18 342 18 c 0,28,29
 325 18 325 18 313 31 c 128,-1,30
 301 44 301 44 301 59 c 0,0,1
854 512 m 1,31,-1
 1208 158 l 1,32,-1
 1208 866 l 1,33,-1
 854 512 l 1,31,-1
EndSplineSet
EndChar

StartChar: p
Encoding: 112 112 78
Width: 455
GlyphClass: 2
Flags: W
LayerCount: 2
Fore
SplineSet
186 -8 m 2,0,-1
 186 846 l 2,1,2
 186 861 186 861 199 872 c 128,-1,3
 212 883 212 883 227 883 c 0,4,5
 244 883 244 883 256 872 c 128,-1,6
 268 861 268 861 268 846 c 2,7,-1
 268 -8 l 2,8,9
 268 -24 268 -24 256 -34.5 c 128,-1,10
 244 -45 244 -45 227 -45 c 0,11,12
 212 -45 212 -45 199 -34.5 c 128,-1,13
 186 -24 186 -24 186 -8 c 2,0,-1
EndSplineSet
EndChar

StartChar: q
Encoding: 113 113 79
Width: 795
GlyphClass: 2
Flags: W
LayerCount: 2
Fore
SplineSet
115 -8 m 2,0,-1
 115 846 l 2,1,2
 115 861 115 861 127 872 c 128,-1,3
 139 883 139 883 156 883 c 0,4,5
 171 883 171 883 184 872 c 128,-1,6
 197 861 197 861 197 846 c 2,7,-1
 197 -8 l 2,8,9
 197 -24 197 -24 184 -34.5 c 128,-1,10
 171 -45 171 -45 156 -45 c 0,11,12
 139 -45 139 -45 127 -34.5 c 128,-1,13
 115 -24 115 -24 115 -8 c 2,0,-1
598 -8 m 2,14,-1
 598 846 l 2,15,16
 598 861 598 861 610 872 c 128,-1,17
 622 883 622 883 639 883 c 0,18,19
 654 883 654 883 667 872 c 128,-1,20
 680 861 680 861 680 846 c 2,21,-1
 680 -8 l 2,22,23
 680 -24 680 -24 667 -34.5 c 128,-1,24
 654 -45 654 -45 639 -45 c 0,25,26
 622 -45 622 -45 610 -34.5 c 128,-1,27
 598 -24 598 -24 598 -8 c 2,14,-1
EndSplineSet
EndChar

StartChar: r
Encoding: 114 114 80
Width: 1591
GlyphClass: 2
Flags: W
LayerCount: 2
Fore
SplineSet
203 809 m 1,0,1
 186 823 186 823 186 842 c 0,2,3
 186 857 186 857 199 870 c 128,-1,4
 212 883 212 883 227 883 c 0,5,6
 241 883 241 883 250 877 c 2,7,-1
 1389 29 l 1,8,9
 1405 15 1405 15 1405 -4 c 0,10,11
 1405 -21 1405 -21 1392 -33 c 128,-1,12
 1379 -45 1379 -45 1364 -45 c 0,13,14
 1352 -45 1352 -45 1341 -39 c 1,15,-1
 203 809 l 1,0,1
EndSplineSet
EndChar

StartChar: s
Encoding: 115 115 81
Width: 1591
GlyphClass: 2
Flags: W
LayerCount: 2
Fore
SplineSet
147 272 m 1,0,1
 115 281 115 281 115 342 c 2,2,-1
 115 356 l 2,3,4
 115 455 115 455 157 546.5 c 128,-1,5
 199 638 199 638 276.5 695 c 128,-1,6
 354 752 354 752 455 752 c 0,7,8
 547 752 547 752 621 711.5 c 128,-1,9
 695 671 695 671 803 587 c 128,-1,10
 911 503 911 503 980.5 464.5 c 128,-1,11
 1050 426 1050 426 1137 426 c 0,12,13
 1206 426 1206 426 1269 460 c 128,-1,14
 1332 494 1332 494 1371.5 553 c 128,-1,15
 1411 612 1411 612 1411 682 c 0,16,17
 1411 743 1411 743 1444 752 c 1,18,19
 1461 748 1461 748 1469 725.5 c 128,-1,20
 1477 703 1477 703 1477 682 c 2,21,-1
 1477 668 l 2,22,23
 1477 569 1477 569 1435 477.5 c 128,-1,24
 1393 386 1393 386 1315.5 329 c 128,-1,25
 1238 272 1238 272 1137 272 c 0,26,27
 1048 272 1048 272 975 311.5 c 128,-1,28
 902 351 902 351 794.5 435 c 128,-1,29
 687 519 687 519 616 558.5 c 128,-1,30
 545 598 545 598 455 598 c 0,31,32
 385 598 385 598 322 564 c 128,-1,33
 259 530 259 530 219.5 471 c 128,-1,34
 180 412 180 412 180 342 c 0,35,36
 180 281 180 281 147 272 c 1,0,1
EndSplineSet
EndChar

StartChar: t
Encoding: 116 116 82
Width: 1591
GlyphClass: 2
Flags: W
LayerCount: 2
Fore
SplineSet
147 115 m 1,0,1
 115 122 115 122 115 184 c 2,2,-1
 115 199 l 2,3,4
 115 294 115 294 161 365 c 128,-1,5
 207 436 207 436 284.5 474 c 128,-1,6
 362 512 362 512 455 512 c 0,7,8
 540 512 540 512 618 480 c 128,-1,9
 696 448 696 448 806 386.5 c 128,-1,10
 916 325 916 325 985 296.5 c 128,-1,11
 1054 268 1054 268 1137 268 c 0,12,13
 1224 268 1224 268 1317.5 317 c 128,-1,14
 1411 366 1411 366 1411 442 c 0,15,16
 1411 505 1411 505 1444 512 c 1,17,18
 1461 508 1461 508 1469 486.5 c 128,-1,19
 1477 465 1477 465 1477 442 c 2,20,-1
 1477 428 l 2,21,22
 1477 333 1477 333 1430.5 262 c 128,-1,23
 1384 191 1384 191 1306.5 153 c 128,-1,24
 1229 115 1229 115 1137 115 c 0,25,26
 1052 115 1052 115 979 144.5 c 128,-1,27
 906 174 906 174 799.5 234 c 128,-1,28
 693 294 693 294 616.5 326 c 128,-1,29
 540 358 540 358 455 358 c 0,30,31
 368 358 368 358 274 310 c 128,-1,32
 180 262 180 262 180 184 c 0,33,34
 180 122 180 122 147 115 c 1,0,1
147 592 m 1,35,36
 115 599 115 599 115 662 c 2,37,-1
 115 676 l 2,38,39
 115 771 115 771 161 842 c 128,-1,40
 207 913 207 913 284.5 951 c 128,-1,41
 362 989 362 989 455 989 c 0,42,43
 540 989 540 989 618 957 c 128,-1,44
 696 925 696 925 806 863.5 c 128,-1,45
 916 802 916 802 985 773.5 c 128,-1,46
 1054 745 1054 745 1137 745 c 0,47,48
 1187 745 1187 745 1252.5 766 c 128,-1,49
 1318 787 1318 787 1364.5 827 c 128,-1,50
 1411 867 1411 867 1411 920 c 0,51,52
 1411 982 1411 982 1444 989 c 1,53,54
 1461 985 1461 985 1469 963.5 c 128,-1,55
 1477 942 1477 942 1477 920 c 2,56,-1
 1477 905 l 2,57,58
 1477 810 1477 810 1430.5 739 c 128,-1,59
 1384 668 1384 668 1306.5 630 c 128,-1,60
 1229 592 1229 592 1137 592 c 0,61,62
 1052 592 1052 592 982.5 620.5 c 128,-1,63
 913 649 913 649 803 710.5 c 128,-1,64
 693 772 693 772 616.5 804 c 128,-1,65
 540 836 540 836 455 836 c 0,66,67
 405 836 405 836 339 815 c 128,-1,68
 273 794 273 794 226.5 754.5 c 128,-1,69
 180 715 180 715 180 662 c 0,70,71
 180 599 180 599 147 592 c 1,35,36
EndSplineSet
EndChar

StartChar: u
Encoding: 117 117 83
Width: 1591
GlyphClass: 2
Flags: W
LayerCount: 2
Fore
SplineSet
141 -68 m 2,0,1
 124 -68 124 -68 113 -55 c 128,-1,2
 102 -42 102 -42 102 -27 c 0,3,4
 102 -10 102 -10 113 2 c 128,-1,5
 124 14 124 14 141 14 c 2,6,-1
 1452 14 l 2,7,8
 1468 14 1468 14 1478.5 2 c 128,-1,9
 1489 -10 1489 -10 1489 -27 c 0,10,11
 1489 -42 1489 -42 1478.5 -55 c 128,-1,12
 1468 -68 1468 -68 1452 -68 c 2,13,-1
 141 -68 l 2,0,1
143 313 m 0,14,15
 121 313 121 313 115 365 c 1,16,-1
 115 377 l 2,17,18
 115 469 115 469 160.5 546 c 128,-1,19
 206 623 206 623 285 667 c 128,-1,20
 364 711 364 711 455 711 c 0,21,22
 565 711 565 711 681.5 640.5 c 128,-1,23
 798 570 798 570 913 499 c 128,-1,24
 1028 428 1028 428 1137 428 c 0,25,26
 1242 428 1242 428 1330.5 493 c 128,-1,27
 1419 558 1419 558 1419 659 c 1,28,29
 1425 711 1425 711 1448 711 c 256,30,31
 1471 711 1471 711 1477 659 c 1,32,-1
 1477 647 l 2,33,34
 1477 555 1477 555 1431.5 478 c 128,-1,35
 1386 401 1386 401 1307 357 c 128,-1,36
 1228 313 1228 313 1137 313 c 0,37,38
 1051 313 1051 313 975.5 348.5 c 128,-1,39
 900 384 900 384 798.5 452.5 c 128,-1,40
 697 521 697 521 618 558.5 c 128,-1,41
 539 596 539 596 455 596 c 0,42,43
 390 596 390 596 323 567 c 128,-1,44
 256 538 256 538 214 485.5 c 128,-1,45
 172 433 172 433 172 365 c 1,46,47
 166 313 166 313 143 313 c 0,14,15
143 791 m 0,48,49
 121 791 121 791 115 842 c 1,50,-1
 115 854 l 2,51,52
 115 946 115 946 160.5 1023 c 128,-1,53
 206 1100 206 1100 285 1144 c 128,-1,54
 364 1188 364 1188 455 1188 c 0,55,56
 565 1188 565 1188 681.5 1117.5 c 128,-1,57
 798 1047 798 1047 913 976 c 128,-1,58
 1028 905 1028 905 1137 905 c 0,59,60
 1242 905 1242 905 1330.5 970 c 128,-1,61
 1419 1035 1419 1035 1419 1137 c 1,62,63
 1425 1188 1425 1188 1448 1188 c 256,64,65
 1471 1188 1471 1188 1477 1137 c 1,66,-1
 1477 1124 l 2,67,68
 1477 1032 1477 1032 1431 955 c 128,-1,69
 1385 878 1385 878 1306.5 834.5 c 128,-1,70
 1228 791 1228 791 1137 791 c 0,71,72
 1051 791 1051 791 975.5 826.5 c 128,-1,73
 900 862 900 862 798.5 930.5 c 128,-1,74
 697 999 697 999 620 1036 c 128,-1,75
 543 1073 543 1073 455 1073 c 0,76,77
 390 1073 390 1073 323 1044 c 128,-1,78
 256 1015 256 1015 214 962.5 c 128,-1,79
 172 910 172 910 172 842 c 1,80,81
 166 791 166 791 143 791 c 0,48,49
EndSplineSet
EndChar

StartChar: v
Encoding: 118 118 84
Width: 1591
GlyphClass: 2
Flags: W
LayerCount: 2
Fore
SplineSet
143 -588 m 0,0,1
 121 -588 121 -588 115 -537 c 1,2,-1
 115 -524 l 2,3,4
 115 -432 115 -432 160.5 -355 c 128,-1,5
 206 -278 206 -278 285 -234 c 128,-1,6
 364 -190 364 -190 455 -190 c 0,7,8
 565 -190 565 -190 681.5 -260.5 c 128,-1,9
 798 -331 798 -331 913 -402 c 128,-1,10
 1028 -473 1028 -473 1137 -473 c 0,11,12
 1242 -473 1242 -473 1330.5 -408 c 128,-1,13
 1419 -343 1419 -343 1419 -242 c 1,14,15
 1425 -190 1425 -190 1448 -190 c 256,16,17
 1471 -190 1471 -190 1477 -242 c 1,18,-1
 1477 -254 l 2,19,20
 1477 -346 1477 -346 1431.5 -423 c 128,-1,21
 1386 -500 1386 -500 1307 -544 c 128,-1,22
 1228 -588 1228 -588 1137 -588 c 0,23,24
 1051 -588 1051 -588 975.5 -552.5 c 128,-1,25
 900 -517 900 -517 798.5 -448.5 c 128,-1,26
 697 -380 697 -380 618 -342.5 c 128,-1,27
 539 -305 539 -305 455 -305 c 0,28,29
 390 -305 390 -305 323 -334 c 128,-1,30
 256 -363 256 -363 214 -416.5 c 128,-1,31
 172 -470 172 -470 172 -537 c 1,32,33
 166 -588 166 -588 143 -588 c 0,0,1
143 -111 m 0,34,35
 121 -111 121 -111 115 -59 c 1,36,-1
 115 -47 l 2,37,38
 115 45 115 45 160.5 122 c 128,-1,39
 206 199 206 199 285 243 c 128,-1,40
 364 287 364 287 455 287 c 0,41,42
 565 287 565 287 681.5 216.5 c 128,-1,43
 798 146 798 146 913 75 c 128,-1,44
 1028 4 1028 4 1137 4 c 0,45,46
 1242 4 1242 4 1330.5 69 c 128,-1,47
 1419 134 1419 134 1419 236 c 1,48,49
 1425 287 1425 287 1448 287 c 256,50,51
 1471 287 1471 287 1477 236 c 1,52,-1
 1477 223 l 2,53,54
 1477 131 1477 131 1431.5 54 c 128,-1,55
 1386 -23 1386 -23 1307 -67 c 128,-1,56
 1228 -111 1228 -111 1137 -111 c 0,57,58
 1051 -111 1051 -111 975.5 -75.5 c 128,-1,59
 900 -40 900 -40 798.5 28.5 c 128,-1,60
 697 97 697 97 618 134.5 c 128,-1,61
 539 172 539 172 455 172 c 0,62,63
 390 172 390 172 323 143 c 128,-1,64
 256 114 256 114 214 61.5 c 128,-1,65
 172 9 172 9 172 -59 c 1,66,67
 166 -111 166 -111 143 -111 c 0,34,35
211 498 m 0,68,69
 192 498 192 498 181 511 c 128,-1,70
 170 524 170 524 170 543 c 1,71,72
 196 759 196 759 352 873 c 128,-1,73
 508 987 508 987 745 1030 c 1,74,75
 630 1052 630 1052 536.5 1086 c 128,-1,76
 443 1120 443 1120 365 1176.5 c 128,-1,77
 287 1233 287 1233 236 1318.5 c 128,-1,78
 185 1404 185 1404 170 1518 c 1,79,80
 170 1535 170 1535 181 1548 c 128,-1,81
 192 1561 192 1561 211 1561 c 0,82,83
 228 1561 228 1561 239.5 1549.5 c 128,-1,84
 251 1538 251 1538 252 1524 c 0,85,86
 272 1366 272 1366 394 1270 c 128,-1,87
 516 1174 516 1174 690.5 1132 c 128,-1,88
 865 1090 865 1090 1025 1080.5 c 128,-1,89
 1185 1071 1185 1071 1384 1071 c 0,90,91
 1400 1071 1400 1071 1410.5 1058 c 128,-1,92
 1421 1045 1421 1045 1421 1030 c 256,93,94
 1421 1015 1421 1015 1410.5 1002 c 128,-1,95
 1400 989 1400 989 1384 989 c 0,96,97
 1109 989 1109 989 883 965.5 c 128,-1,98
 657 942 657 942 467 842 c 128,-1,99
 277 742 277 742 252 537 c 0,100,101
 251 521 251 521 239.5 509.5 c 128,-1,102
 228 498 228 498 211 498 c 0,68,69
EndSplineSet
EndChar

StartChar: w
Encoding: 119 119 85
Width: 1591
GlyphClass: 2
Flags: W
LayerCount: 2
Fore
SplineSet
143 -588 m 0,0,1
 121 -588 121 -588 115 -537 c 1,2,-1
 115 -524 l 2,3,4
 115 -432 115 -432 160.5 -355 c 128,-1,5
 206 -278 206 -278 285 -234 c 128,-1,6
 364 -190 364 -190 455 -190 c 0,7,8
 565 -190 565 -190 681.5 -260.5 c 128,-1,9
 798 -331 798 -331 913 -402 c 128,-1,10
 1028 -473 1028 -473 1137 -473 c 0,11,12
 1242 -473 1242 -473 1330.5 -408 c 128,-1,13
 1419 -343 1419 -343 1419 -242 c 1,14,15
 1425 -190 1425 -190 1448 -190 c 256,16,17
 1471 -190 1471 -190 1477 -242 c 1,18,-1
 1477 -254 l 2,19,20
 1477 -346 1477 -346 1431.5 -423 c 128,-1,21
 1386 -500 1386 -500 1307 -544 c 128,-1,22
 1228 -588 1228 -588 1137 -588 c 0,23,24
 1051 -588 1051 -588 975.5 -552.5 c 128,-1,25
 900 -517 900 -517 798.5 -448.5 c 128,-1,26
 697 -380 697 -380 618 -342.5 c 128,-1,27
 539 -305 539 -305 455 -305 c 0,28,29
 390 -305 390 -305 323 -334 c 128,-1,30
 256 -363 256 -363 214 -416.5 c 128,-1,31
 172 -470 172 -470 172 -537 c 1,32,33
 166 -588 166 -588 143 -588 c 0,0,1
143 -111 m 0,34,35
 121 -111 121 -111 115 -59 c 1,36,-1
 115 -47 l 2,37,38
 115 45 115 45 160.5 122 c 128,-1,39
 206 199 206 199 285 243 c 128,-1,40
 364 287 364 287 455 287 c 0,41,42
 565 287 565 287 681.5 216.5 c 128,-1,43
 798 146 798 146 913 75 c 128,-1,44
 1028 4 1028 4 1137 4 c 0,45,46
 1242 4 1242 4 1330.5 69 c 128,-1,47
 1419 134 1419 134 1419 236 c 1,48,49
 1425 287 1425 287 1448 287 c 256,50,51
 1471 287 1471 287 1477 236 c 1,52,-1
 1477 223 l 2,53,54
 1477 131 1477 131 1431.5 54 c 128,-1,55
 1386 -23 1386 -23 1307 -67 c 128,-1,56
 1228 -111 1228 -111 1137 -111 c 0,57,58
 1051 -111 1051 -111 975.5 -75.5 c 128,-1,59
 900 -40 900 -40 798.5 28.5 c 128,-1,60
 697 97 697 97 618 134.5 c 128,-1,61
 539 172 539 172 455 172 c 0,62,63
 390 172 390 172 323 143 c 128,-1,64
 256 114 256 114 214 61.5 c 128,-1,65
 172 9 172 9 172 -59 c 1,66,67
 166 -111 166 -111 143 -111 c 0,34,35
209 989 m 0,68,69
 192 989 192 989 181 1002 c 128,-1,70
 170 1015 170 1015 170 1030 c 256,71,72
 170 1045 170 1045 181 1058 c 128,-1,73
 192 1071 192 1071 209 1071 c 0,74,75
 483 1071 483 1071 708.5 1094.5 c 128,-1,76
 934 1118 934 1118 1124 1218 c 128,-1,77
 1314 1318 1314 1318 1339 1524 c 0,78,79
 1340 1538 1340 1538 1351.5 1549.5 c 128,-1,80
 1363 1561 1363 1561 1380 1561 c 0,81,82
 1399 1561 1399 1561 1410 1548 c 128,-1,83
 1421 1535 1421 1535 1421 1518 c 1,84,85
 1408 1405 1408 1405 1357 1320 c 128,-1,86
 1306 1235 1306 1235 1228.5 1178.5 c 128,-1,87
 1151 1122 1151 1122 1055 1086.5 c 128,-1,88
 959 1051 959 1051 846 1030 c 1,89,90
 1085 987 1085 987 1240.5 872.5 c 128,-1,91
 1396 758 1396 758 1421 543 c 1,92,93
 1421 524 1421 524 1410 511 c 128,-1,94
 1399 498 1399 498 1380 498 c 0,95,96
 1363 498 1363 498 1352 509 c 128,-1,97
 1341 520 1341 520 1339 537 c 0,98,99
 1314 742 1314 742 1123 842.5 c 128,-1,100
 932 943 932 943 707.5 966 c 128,-1,101
 483 989 483 989 209 989 c 0,68,69
EndSplineSet
EndChar

StartChar: x
Encoding: 120 120 86
Width: 2048
GlyphClass: 2
Flags: W
LayerCount: 2
Fore
SplineSet
397 0 m 1,0,1
 346 103 346 103 255 184 c 128,-1,2
 164 265 164 265 57 305 c 1,3,-1
 57 377 l 1,4,5
 141 347 141 347 217 294.5 c 128,-1,6
 293 242 293 242 356 174 c 1,7,8
 356 390 356 390 466.5 573.5 c 128,-1,9
 577 757 577 757 764 863 c 128,-1,10
 951 969 951 969 1165 969 c 0,11,12
 1405 969 1405 969 1590 828.5 c 128,-1,13
 1775 688 1775 688 1873.5 464.5 c 128,-1,14
 1972 241 1972 241 1972 4 c 0,15,16
 1972 -15 1972 -15 1961.5 -28 c 128,-1,17
 1951 -41 1951 -41 1931 -41 c 0,18,19
 1917 -41 1917 -41 1903.5 -30.5 c 128,-1,20
 1890 -20 1890 -20 1890 -4 c 0,21,22
 1890 156 1890 156 1841 316 c 128,-1,23
 1792 476 1792 476 1699.5 604.5 c 128,-1,24
 1607 733 1607 733 1471 810 c 128,-1,25
 1335 887 1335 887 1165 887 c 0,26,27
 973 887 973 887 804.5 791 c 128,-1,28
 636 695 636 695 537 530 c 128,-1,29
 438 365 438 365 438 172 c 1,30,31
 570 313 570 313 739 377 c 1,32,-1
 739 305 l 1,33,34
 633 265 633 265 542.5 184.5 c 128,-1,35
 452 104 452 104 397 0 c 1,0,1
EndSplineSet
EndChar

StartChar: y
Encoding: 121 121 87
Width: 2048
GlyphClass: 2
Flags: W
LayerCount: 2
Fore
SplineSet
115 -41 m 0,0,1
 96 -41 96 -41 85 -27.5 c 128,-1,2
 74 -14 74 -14 74 4 c 0,3,4
 74 241 74 241 172.5 464.5 c 128,-1,5
 271 688 271 688 456.5 828.5 c 128,-1,6
 642 969 642 969 883 969 c 0,7,8
 1098 969 1098 969 1284 863 c 128,-1,9
 1470 757 1470 757 1581 573.5 c 128,-1,10
 1692 390 1692 390 1692 174 c 1,11,12
 1755 242 1755 242 1830 293.5 c 128,-1,13
 1905 345 1905 345 1991 377 c 1,14,-1
 1991 305 l 1,15,16
 1884 265 1884 265 1794.5 185 c 128,-1,17
 1705 105 1705 105 1651 0 c 1,18,19
 1596 104 1596 104 1506 184.5 c 128,-1,20
 1416 265 1416 265 1309 305 c 1,21,-1
 1309 377 l 1,22,23
 1478 313 1478 313 1610 172 c 1,24,25
 1610 319 1610 319 1553 450 c 128,-1,26
 1496 581 1496 581 1395 679.5 c 128,-1,27
 1294 778 1294 778 1161 832.5 c 128,-1,28
 1028 887 1028 887 883 887 c 0,29,30
 661 887 661 887 495.5 756.5 c 128,-1,31
 330 626 330 626 243 421 c 128,-1,32
 156 216 156 216 156 -4 c 0,33,34
 156 -19 156 -19 142.5 -30 c 128,-1,35
 129 -41 129 -41 115 -41 c 0,0,1
EndSplineSet
EndChar

StartChar: z
Encoding: 122 122 88
Width: 1591
GlyphClass: 2
Flags: W
LayerCount: 2
Fore
SplineSet
115 -150 m 1,0,-1
 457 1221 l 1,1,2
 466 1239 466 1239 547 1239 c 2,3,-1
 1386 1239 l 2,4,5
 1409 1239 1409 1239 1443 1234 c 128,-1,6
 1477 1229 1477 1229 1477 1219 c 0,7,8
 1477 1208 1477 1208 1443 1203 c 128,-1,9
 1409 1198 1409 1198 1386 1198 c 2,10,-1
 655 1198 l 1,11,-1
 496 555 l 1,12,-1
 889 555 l 2,13,14
 912 555 912 555 945.5 550 c 128,-1,15
 979 545 979 545 979 535 c 0,16,17
 979 524 979 524 945 519 c 128,-1,18
 911 514 911 514 889 514 c 2,19,-1
 485 514 l 1,20,-1
 319 -152 l 1,21,22
 308 -170 308 -170 229 -170 c 2,23,-1
 205 -170 l 2,24,25
 182 -170 182 -170 148.5 -165 c 128,-1,26
 115 -160 115 -160 115 -150 c 1,0,-1
EndSplineSet
EndChar

StartChar: braceleft
Encoding: 123 123 89
Width: 1364
GlyphClass: 2
Flags: W
LayerCount: 2
Fore
SplineSet
109 33 m 1,0,1
 109 70 109 70 147 94 c 1,2,-1
 465 315 l 1,3,4
 534 442 534 442 592 662 c 1,5,6
 606 734 606 734 614 737 c 1,7,8
 571 737 571 737 512.5 730 c 128,-1,9
 454 723 454 723 406 706.5 c 128,-1,10
 358 690 358 690 350 662 c 1,11,-1
 291 662 l 1,12,13
 308 731 308 731 367 781 c 128,-1,14
 426 831 426 831 501.5 857 c 128,-1,15
 577 883 577 883 649 883 c 0,16,17
 674 883 674 883 674 819 c 0,18,19
 674 744 674 744 653 661 c 128,-1,20
 632 578 632 578 597 500.5 c 128,-1,21
 562 423 562 423 518 352 c 1,22,-1
 1251 858 l 1,23,24
 1320 907 1320 907 1395 907 c 0,25,26
 1465 907 1465 907 1475 850 c 1,27,28
 1475 819 1475 819 1438 788 c 1,29,-1
 1120 567 l 1,30,31
 1051 441 1051 441 993 221 c 1,32,33
 978 147 978 147 971 145 c 1,34,35
 1046 145 1046 145 1135 163.5 c 128,-1,36
 1224 182 1224 182 1233 221 c 1,37,-1
 1292 221 l 1,38,39
 1275 152 1275 152 1217.5 102 c 128,-1,40
 1160 52 1160 52 1083.5 26 c 128,-1,41
 1007 0 1007 0 934 0 c 0,42,43
 911 0 911 0 911 63 c 0,44,45
 911 171 911 171 956 299 c 128,-1,46
 1001 427 1001 427 1067 530 c 1,47,-1
 334 25 l 2,48,49
 263 -25 263 -25 190 -25 c 0,50,51
 159 -25 159 -25 136 -10.5 c 128,-1,52
 113 4 113 4 109 33 c 1,0,1
EndSplineSet
EndChar

StartChar: bar
Encoding: 124 124 90
Width: 1137
GlyphClass: 2
Flags: W
LayerCount: 2
Fore
SplineSet
74 0 m 1,0,1
 41 7 41 7 41 37 c 0,2,3
 41 49 41 49 50.5 60.5 c 128,-1,4
 60 72 60 72 74 72 c 0,5,6
 108 72 108 72 121.5 110 c 128,-1,7
 135 148 135 148 135 193 c 2,8,-1
 135 1210 l 2,9,10
 135 1255 135 1255 121.5 1293 c 128,-1,11
 108 1331 108 1331 74 1331 c 1,12,13
 41 1338 41 1338 41 1368 c 0,14,15
 41 1380 41 1380 50.5 1391.5 c 128,-1,16
 60 1403 60 1403 74 1403 c 2,17,-1
 383 1403 l 1,18,19
 416 1395 416 1395 416 1370 c 2,20,-1
 416 502 l 1,21,-1
 647 711 l 2,22,23
 700 759 700 759 700 819 c 0,24,25
 700 843 700 843 689.5 860 c 128,-1,26
 679 877 679 877 655 877 c 1,27,28
 623 884 623 884 623 913 c 0,29,30
 623 924 623 924 632 936 c 128,-1,31
 641 948 641 948 655 948 c 2,32,-1
 1028 948 l 1,33,34
 1061 941 1061 941 1061 913 c 0,35,36
 1061 899 1061 899 1051 888 c 128,-1,37
 1041 877 1041 877 1028 877 c 0,38,39
 969 877 969 877 884 812 c 128,-1,40
 799 747 799 747 696 653 c 2,41,-1
 631 594 l 1,42,-1
 934 213 l 1,43,44
 1034 72 1034 72 1069 72 c 1,45,46
 1083 69 1083 69 1092.5 59.5 c 128,-1,47
 1102 50 1102 50 1102 37 c 0,48,49
 1102 23 1102 23 1091.5 11.5 c 128,-1,50
 1081 0 1081 0 1069 0 c 2,51,-1
 635 0 l 1,52,53
 602 7 602 7 602 37 c 0,54,55
 602 49 602 49 611.5 60.5 c 128,-1,56
 621 72 621 72 635 72 c 0,57,58
 682 72 682 72 690 84 c 1,59,60
 690 95 690 95 682 109.5 c 128,-1,61
 674 124 674 124 660 142.5 c 128,-1,62
 646 161 646 161 639 170 c 2,63,-1
 438 420 l 1,64,-1
 416 399 l 1,65,-1
 416 193 l 2,66,67
 416 148 416 148 428.5 110 c 128,-1,68
 441 72 441 72 477 72 c 1,69,70
 510 64 510 64 510 37 c 0,71,72
 510 23 510 23 499.5 11.5 c 128,-1,73
 489 0 489 0 477 0 c 2,74,-1
 74 0 l 1,0,1
182 72 m 1,75,-1
 367 72 l 1,76,77
 344 118 344 118 344 188 c 2,78,-1
 344 1331 l 1,79,-1
 182 1331 l 1,80,81
 207 1280 207 1280 207 1214 c 2,82,-1
 207 188 l 2,83,84
 207 126 207 126 182 72 c 1,75,-1
696 213 m 2,85,86
 727 173 727 173 744.5 144.5 c 128,-1,87
 762 116 762 116 762 84 c 2,88,-1
 762 72 l 1,89,-1
 954 72 l 1,90,91
 933 97 933 97 877 170 c 1,92,-1
 578 545 l 1,93,-1
 492 469 l 1,94,-1
 696 213 l 2,85,86
772 813 m 1,95,96
 814 849 814 849 854 877 c 1,97,-1
 762 877 l 1,98,-1
 762 872 l 1,99,100
 767 863 767 863 770 846 c 0,101,102
 771 840 771 840 771.5 834.5 c 128,-1,103
 772 829 772 829 772 819 c 2,104,-1
 772 813 l 1,95,96
EndSplineSet
EndChar

StartChar: braceright
Encoding: 125 125 91
Width: 1106
GlyphClass: 2
Flags: W
LayerCount: 2
Fore
SplineSet
109 37 m 0,0,1
 109 49 109 49 111 55 c 2,2,-1
 352 1018 l 1,3,-1
 184 967 l 2,4,5
 180 965 180 965 176 965 c 0,6,7
 166 965 166 965 156.5 974.5 c 128,-1,8
 147 984 147 984 147 995 c 0,9,10
 147 1017 147 1017 168 1024 c 2,11,-1
 369 1083 l 1,12,-1
 410 1249 l 2,13,14
 412 1257 412 1257 412 1272 c 0,15,16
 412 1327 412 1327 260 1327 c 1,17,-1
 276 1399 l 1,18,-1
 600 1421 l 1,19,20
 594 1399 594 1399 594 1397 c 2,21,-1
 528 1133 l 1,22,-1
 987 1272 l 2,23,24
 991 1274 991 1274 995 1274 c 0,25,26
 1008 1274 1008 1274 1017 1265 c 128,-1,27
 1026 1256 1026 1256 1026 1243 c 0,28,29
 1026 1222 1026 1222 1004 1214 c 1,30,-1
 512 1065 l 1,31,-1
 434 756 l 1,32,33
 560 905 560 905 733 905 c 0,34,35
 805 905 805 905 857.5 880 c 128,-1,36
 910 855 910 855 939.5 804.5 c 128,-1,37
 969 754 969 754 969 684 c 0,38,39
 969 600 969 600 931.5 481 c 128,-1,40
 894 362 894 362 838 215 c 1,41,42
 809 148 809 148 809 92 c 0,43,44
 809 31 809 31 856 31 c 0,45,46
 936 31 936 31 989.5 116.5 c 128,-1,47
 1043 202 1043 202 1065 301 c 1,48,49
 1069 313 1069 313 1081 313 c 2,50,-1
 1106 313 l 2,51,52
 1114 313 1114 313 1119 307.5 c 128,-1,53
 1124 302 1124 302 1124 295 c 0,54,55
 1124 293 1124 293 1122 289 c 0,56,57
 1104 215 1104 215 1068.5 143.5 c 128,-1,58
 1033 72 1033 72 979 24.5 c 128,-1,59
 925 -23 925 -23 852 -23 c 0,60,61
 780 -23 780 -23 729 26.5 c 128,-1,62
 678 76 678 76 678 147 c 0,63,64
 678 185 678 185 694 227 c 0,65,66
 752 381 752 381 790.5 502 c 128,-1,67
 829 623 829 623 829 715 c 0,68,69
 829 774 829 774 806 813 c 128,-1,70
 783 852 783 852 729 852 c 0,71,72
 619 852 619 852 537 784.5 c 128,-1,73
 455 717 455 717 395 606 c 1,74,-1
 256 47 l 2,75,76
 248 16 248 16 225 -3.5 c 128,-1,77
 202 -23 202 -23 172 -23 c 0,78,79
 146 -23 146 -23 127.5 -5.5 c 128,-1,80
 109 12 109 12 109 37 c 0,0,1
EndSplineSet
EndChar

StartChar: asciitilde
Encoding: 126 126 92
Width: 1106
GlyphClass: 2
Flags: W
LayerCount: 2
Fore
SplineSet
109 37 m 0,0,1
 109 49 109 49 111 55 c 2,2,-1
 377 1122 l 1,3,-1
 213 1122 l 2,4,5
 203 1122 203 1122 194.5 1131.5 c 128,-1,6
 186 1141 186 1141 186 1151 c 0,7,8
 186 1162 186 1162 194 1172 c 128,-1,9
 202 1182 202 1182 213 1182 c 2,10,-1
 393 1182 l 1,11,-1
 410 1249 l 2,12,13
 412 1257 412 1257 412 1272 c 0,14,15
 412 1327 412 1327 260 1327 c 1,16,-1
 276 1399 l 1,17,-1
 600 1421 l 1,18,19
 594 1399 594 1399 594 1397 c 2,20,-1
 541 1182 l 1,21,-1
 946 1182 l 2,22,23
 957 1182 957 1182 965 1172 c 128,-1,24
 973 1162 973 1162 973 1151 c 0,25,26
 973 1141 973 1141 964.5 1131.5 c 128,-1,27
 956 1122 956 1122 946 1122 c 2,28,-1
 524 1122 l 1,29,-1
 434 756 l 1,30,31
 560 905 560 905 733 905 c 0,32,33
 805 905 805 905 857.5 880 c 128,-1,34
 910 855 910 855 939.5 804.5 c 128,-1,35
 969 754 969 754 969 684 c 0,36,37
 969 600 969 600 931.5 481 c 128,-1,38
 894 362 894 362 838 215 c 1,39,40
 809 148 809 148 809 92 c 0,41,42
 809 31 809 31 856 31 c 0,43,44
 936 31 936 31 989.5 116.5 c 128,-1,45
 1043 202 1043 202 1065 301 c 1,46,47
 1069 313 1069 313 1081 313 c 2,48,-1
 1106 313 l 2,49,50
 1114 313 1114 313 1119 307.5 c 128,-1,51
 1124 302 1124 302 1124 295 c 0,52,53
 1124 293 1124 293 1122 289 c 0,54,55
 1104 215 1104 215 1068.5 143.5 c 128,-1,56
 1033 72 1033 72 979 24.5 c 128,-1,57
 925 -23 925 -23 852 -23 c 0,58,59
 780 -23 780 -23 729 26.5 c 128,-1,60
 678 76 678 76 678 147 c 0,61,62
 678 185 678 185 694 227 c 0,63,64
 752 381 752 381 790.5 502 c 128,-1,65
 829 623 829 623 829 715 c 0,66,67
 829 774 829 774 806 813 c 128,-1,68
 783 852 783 852 729 852 c 0,69,70
 619 852 619 852 537 784.5 c 128,-1,71
 455 717 455 717 395 606 c 1,72,-1
 256 47 l 2,73,74
 248 16 248 16 225 -3.5 c 128,-1,75
 202 -23 202 -23 172 -23 c 0,76,77
 146 -23 146 -23 127.5 -5.5 c 128,-1,78
 109 12 109 12 109 37 c 0,0,1
EndSplineSet
EndChar

StartChar: uni007F
Encoding: 127 127 93
AltUni2: 0000c4.ffffffff.0
Width: 879
GlyphClass: 2
Flags: W
LayerCount: 2
Fore
SplineSet
262 0 m 2,0,1
 251 0 251 0 241 10 c 128,-1,2
 231 20 231 20 231 31 c 0,3,4
 231 45 231 45 242.5 58.5 c 128,-1,5
 254 72 254 72 270 72 c 2,6,-1
 383 72 l 2,7,8
 445 72 445 72 499 93.5 c 128,-1,9
 553 115 553 115 594 152.5 c 128,-1,10
 635 190 635 190 666 243.5 c 128,-1,11
 697 297 697 297 713 352 c 1,12,-1
 350 352 l 2,13,14
 337 352 337 352 328 361 c 128,-1,15
 319 370 319 370 319 383 c 0,16,17
 319 397 319 397 330.5 410.5 c 128,-1,18
 342 424 342 424 358 424 c 2,19,-1
 731 424 l 1,20,21
 743 484 743 484 748.5 521.5 c 128,-1,22
 754 559 754 559 754 594 c 0,23,24
 754 663 754 663 729 722 c 128,-1,25
 704 781 704 781 654 816.5 c 128,-1,26
 604 852 604 852 535 852 c 0,27,28
 489 852 489 852 437 832 c 128,-1,29
 385 812 385 812 340.5 788 c 128,-1,30
 296 764 296 764 295 764 c 0,31,32
 285 764 285 764 277.5 775.5 c 128,-1,33
 270 787 270 787 270 801 c 0,34,35
 270 812 270 812 279 815 c 1,36,37
 335 856 335 856 402 880.5 c 128,-1,38
 469 905 469 905 537 905 c 0,39,40
 645 905 645 905 732 854.5 c 128,-1,41
 819 804 819 804 866 715 c 128,-1,42
 913 626 913 626 913 518 c 0,43,44
 913 414 913 414 870.5 319 c 128,-1,45
 828 224 828 224 752.5 151.5 c 128,-1,46
 677 79 677 79 581 39.5 c 128,-1,47
 485 0 485 0 379 0 c 2,48,-1
 262 0 l 2,0,1
EndSplineSet
EndChar

StartChar: exclamdown
Encoding: 161 161 95
Width: 1591
GlyphClass: 2
Flags: W
LayerCount: 2
Fore
SplineSet
209 -356 m 2,0,1
 192 -356 192 -356 181 -344 c 128,-1,2
 170 -332 170 -332 170 -315 c 0,3,4
 170 -300 170 -300 181 -287 c 128,-1,5
 192 -274 192 -274 209 -274 c 2,6,-1
 756 -274 l 1,7,-1
 756 41 l 1,8,-1
 209 41 l 2,9,10
 192 41 192 41 181 53 c 128,-1,11
 170 65 170 65 170 82 c 0,12,13
 170 97 170 97 181 110 c 128,-1,14
 192 123 192 123 209 123 c 2,15,-1
 756 123 l 1,16,-1
 756 295 l 2,17,18
 756 312 756 312 768 323 c 128,-1,19
 780 334 780 334 797 334 c 0,20,21
 811 334 811 334 824.5 322.5 c 128,-1,22
 838 311 838 311 838 295 c 2,23,-1
 838 123 l 1,24,-1
 1384 123 l 2,25,26
 1400 123 1400 123 1410.5 110 c 128,-1,27
 1421 97 1421 97 1421 82 c 0,28,29
 1421 65 1421 65 1410.5 53 c 128,-1,30
 1400 41 1400 41 1384 41 c 2,31,-1
 838 41 l 1,32,-1
 838 -274 l 1,33,-1
 1384 -274 l 2,34,35
 1400 -274 1400 -274 1410.5 -287 c 128,-1,36
 1421 -300 1421 -300 1421 -315 c 0,37,38
 1421 -332 1421 -332 1410.5 -344 c 128,-1,39
 1400 -356 1400 -356 1384 -356 c 2,40,-1
 838 -356 l 1,41,-1
 838 -528 l 2,42,43
 838 -544 838 -544 824.5 -555.5 c 128,-1,44
 811 -567 811 -567 797 -567 c 0,45,46
 780 -567 780 -567 768 -556 c 128,-1,47
 756 -545 756 -545 756 -528 c 2,48,-1
 756 -356 l 1,49,-1
 209 -356 l 2,0,1
190 915 m 1,50,51
 170 922 170 922 170 950 c 0,52,53
 170 977 170 977 197 987 c 1,54,-1
 1366 1540 l 2,55,56
 1370 1542 1370 1542 1380 1542 c 0,57,58
 1398 1542 1398 1542 1409.5 1531 c 128,-1,59
 1421 1520 1421 1520 1421 1501 c 0,60,61
 1421 1474 1421 1474 1397 1464 c 1,62,-1
 307 950 l 1,63,-1
 1403 432 l 2,64,65
 1421 423 1421 423 1421 397 c 0,66,67
 1421 380 1421 380 1409 368 c 128,-1,68
 1397 356 1397 356 1380 356 c 0,69,70
 1370 356 1370 356 1366 360 c 1,71,-1
 190 915 l 1,50,51
EndSplineSet
EndChar

StartChar: cent
Encoding: 162 162 96
Width: 1591
GlyphClass: 2
Flags: W
LayerCount: 2
Fore
SplineSet
209 -356 m 2,0,1
 192 -356 192 -356 181 -344 c 128,-1,2
 170 -332 170 -332 170 -315 c 0,3,4
 170 -300 170 -300 181 -287 c 128,-1,5
 192 -274 192 -274 209 -274 c 2,6,-1
 756 -274 l 1,7,-1
 756 41 l 1,8,-1
 209 41 l 2,9,10
 192 41 192 41 181 53 c 128,-1,11
 170 65 170 65 170 82 c 0,12,13
 170 97 170 97 181 110 c 128,-1,14
 192 123 192 123 209 123 c 2,15,-1
 756 123 l 1,16,-1
 756 295 l 2,17,18
 756 312 756 312 768 323 c 128,-1,19
 780 334 780 334 797 334 c 0,20,21
 811 334 811 334 824.5 322.5 c 128,-1,22
 838 311 838 311 838 295 c 2,23,-1
 838 123 l 1,24,-1
 1384 123 l 2,25,26
 1400 123 1400 123 1410.5 110 c 128,-1,27
 1421 97 1421 97 1421 82 c 0,28,29
 1421 65 1421 65 1410.5 53 c 128,-1,30
 1400 41 1400 41 1384 41 c 2,31,-1
 838 41 l 1,32,-1
 838 -274 l 1,33,-1
 1384 -274 l 2,34,35
 1400 -274 1400 -274 1410.5 -287 c 128,-1,36
 1421 -300 1421 -300 1421 -315 c 0,37,38
 1421 -332 1421 -332 1410.5 -344 c 128,-1,39
 1400 -356 1400 -356 1384 -356 c 2,40,-1
 838 -356 l 1,41,-1
 838 -528 l 2,42,43
 838 -544 838 -544 824.5 -555.5 c 128,-1,44
 811 -567 811 -567 797 -567 c 0,45,46
 780 -567 780 -567 768 -556 c 128,-1,47
 756 -545 756 -545 756 -528 c 2,48,-1
 756 -356 l 1,49,-1
 209 -356 l 2,0,1
170 397 m 0,50,51
 170 423 170 423 197 436 c 2,52,-1
 1284 950 l 1,53,-1
 190 1466 l 2,54,55
 170 1476 170 1476 170 1501 c 0,56,57
 170 1518 170 1518 181 1530 c 128,-1,58
 192 1542 192 1542 211 1542 c 0,59,60
 221 1542 221 1542 227 1540 c 2,61,-1
 1403 985 l 2,62,63
 1421 976 1421 976 1421 950 c 0,64,65
 1421 926 1421 926 1397 911 c 1,66,-1
 227 360 l 1,67,68
 221 356 221 356 211 356 c 0,69,70
 194 356 194 356 182 369 c 128,-1,71
 170 382 170 382 170 397 c 0,50,51
EndSplineSet
EndChar

StartChar: sterling
Encoding: 163 163 97
Width: 1591
GlyphClass: 2
Flags: W
LayerCount: 2
Fore
SplineSet
301 -580 m 0,0,1
 301 -569 301 -569 303 -565 c 2,2,-1
 422 -281 l 1,3,-1
 209 -281 l 2,4,5
 193 -281 193 -281 181.5 -267.5 c 128,-1,6
 170 -254 170 -254 170 -240 c 0,7,8
 170 -223 170 -223 181 -211 c 128,-1,9
 192 -199 192 -199 209 -199 c 2,10,-1
 457 -199 l 1,11,-1
 717 426 l 1,12,-1
 190 676 l 2,13,14
 170 685 170 685 170 711 c 256,15,16
 170 737 170 737 197 748 c 1,17,-1
 1010 1133 l 1,18,-1
 1212 1620 l 1,19,20
 1224 1645 1224 1645 1249 1645 c 0,21,22
 1266 1645 1266 1645 1278 1633 c 128,-1,23
 1290 1621 1290 1621 1290 1604 c 0,24,25
 1290 1593 1290 1593 1288 1589 c 2,26,-1
 1120 1184 l 1,27,-1
 1366 1300 l 1,28,29
 1370 1303 1370 1303 1380 1303 c 0,30,31
 1397 1303 1397 1303 1409 1291 c 128,-1,32
 1421 1279 1421 1279 1421 1262 c 0,33,34
 1421 1235 1421 1235 1397 1225 c 1,35,-1
 1073 1071 l 1,36,-1
 821 467 l 1,37,-1
 1403 193 l 1,38,39
 1421 183 1421 183 1421 158 c 0,40,41
 1421 140 1421 140 1409 128.5 c 128,-1,42
 1397 117 1397 117 1380 117 c 0,43,44
 1374 117 1374 117 1366 121 c 2,45,-1
 791 391 l 1,46,-1
 545 -199 l 1,47,-1
 1384 -199 l 2,48,49
 1400 -199 1400 -199 1410.5 -211 c 128,-1,50
 1421 -223 1421 -223 1421 -240 c 0,51,52
 1421 -254 1421 -254 1410.5 -267.5 c 128,-1,53
 1400 -281 1400 -281 1384 -281 c 2,54,-1
 510 -281 l 1,55,-1
 379 -596 l 2,56,57
 368 -621 368 -621 342 -621 c 0,58,59
 325 -621 325 -621 313 -608 c 128,-1,60
 301 -595 301 -595 301 -580 c 0,0,1
307 711 m 1,61,-1
 748 502 l 1,62,-1
 963 1020 l 1,63,-1
 307 711 l 1,61,-1
EndSplineSet
EndChar

StartChar: currency
Encoding: 164 164 98
Width: 1591
GlyphClass: 2
Flags: W
LayerCount: 2
Fore
SplineSet
301 -580 m 0,0,1
 301 -569 301 -569 303 -565 c 2,2,-1
 422 -281 l 1,3,-1
 209 -281 l 2,4,5
 193 -281 193 -281 181.5 -267.5 c 128,-1,6
 170 -254 170 -254 170 -240 c 0,7,8
 170 -223 170 -223 181 -211 c 128,-1,9
 192 -199 192 -199 209 -199 c 2,10,-1
 457 -199 l 1,11,-1
 678 334 l 1,12,-1
 227 121 l 1,13,14
 215 117 215 117 211 117 c 0,15,16
 194 117 194 117 182 129 c 128,-1,17
 170 141 170 141 170 158 c 0,18,19
 170 183 170 183 190 193 c 2,20,-1
 723 446 l 1,21,-1
 907 889 l 1,22,-1
 197 1225 l 1,23,24
 170 1235 170 1235 170 1262 c 0,25,26
 170 1277 170 1277 182 1290 c 128,-1,27
 194 1303 194 1303 211 1303 c 0,28,29
 221 1303 221 1303 227 1300 c 2,30,-1
 940 965 l 1,31,-1
 1212 1620 l 1,32,33
 1224 1645 1224 1645 1249 1645 c 0,34,35
 1266 1645 1266 1645 1278 1633 c 128,-1,36
 1290 1621 1290 1621 1290 1604 c 0,37,38
 1290 1593 1290 1593 1288 1589 c 2,39,-1
 1014 928 l 1,40,-1
 1397 748 l 2,41,42
 1421 736 1421 736 1421 711 c 0,43,44
 1421 685 1421 685 1403 676 c 2,45,-1
 786 385 l 1,46,-1
 545 -199 l 1,47,-1
 1384 -199 l 2,48,49
 1400 -199 1400 -199 1410.5 -211 c 128,-1,50
 1421 -223 1421 -223 1421 -240 c 0,51,52
 1421 -254 1421 -254 1410.5 -267.5 c 128,-1,53
 1400 -281 1400 -281 1384 -281 c 2,54,-1
 510 -281 l 1,55,-1
 379 -596 l 2,56,57
 368 -621 368 -621 342 -621 c 0,58,59
 325 -621 325 -621 313 -608 c 128,-1,60
 301 -595 301 -595 301 -580 c 0,0,1
834 498 m 1,61,-1
 1284 711 l 1,62,-1
 981 854 l 1,63,-1
 834 498 l 1,61,-1
EndSplineSet
EndChar

StartChar: yen
Encoding: 165 165 99
Width: 1591
GlyphClass: 2
Flags: W
LayerCount: 2
Fore
SplineSet
301 -381 m 0,0,1
 301 -371 301 -371 303 -367 c 2,2,-1
 627 270 l 1,3,-1
 197 475 l 1,4,5
 170 485 170 485 170 512 c 0,6,7
 170 538 170 538 190 547 c 2,8,-1
 950 905 l 1,9,-1
 1214 1427 l 2,10,11
 1224 1446 1224 1446 1249 1446 c 0,12,13
 1266 1446 1266 1446 1278 1434 c 128,-1,14
 1290 1422 1290 1422 1290 1405 c 0,15,16
 1290 1395 1290 1395 1288 1391 c 2,17,-1
 1071 963 l 1,18,-1
 1366 1102 l 2,19,20
 1374 1106 1374 1106 1380 1106 c 0,21,22
 1398 1106 1398 1106 1409.5 1093.5 c 128,-1,23
 1421 1081 1421 1081 1421 1065 c 0,24,25
 1421 1036 1421 1036 1403 1030 c 1,26,-1
 1010 844 l 1,27,-1
 737 309 l 1,28,-1
 1397 -2 l 1,29,30
 1421 -16 1421 -16 1421 -41 c 0,31,32
 1421 -57 1421 -57 1409.5 -69.5 c 128,-1,33
 1398 -82 1398 -82 1380 -82 c 0,34,35
 1374 -82 1374 -82 1366 -78 c 2,36,-1
 700 236 l 1,37,-1
 377 -403 l 2,38,39
 368 -422 368 -422 342 -422 c 0,40,41
 325 -422 325 -422 313 -409 c 128,-1,42
 301 -396 301 -396 301 -381 c 0,0,1
307 512 m 1,43,-1
 664 344 l 1,44,-1
 891 786 l 1,45,-1
 307 512 l 1,43,-1
EndSplineSet
EndChar

StartChar: brokenbar
Encoding: 166 166 100
Width: 1591
GlyphClass: 2
Flags: W
LayerCount: 2
Fore
SplineSet
301 -381 m 0,0,1
 301 -371 301 -371 307 -360 c 2,2,-1
 520 61 l 1,3,-1
 227 -78 l 1,4,5
 215 -82 215 -82 211 -82 c 0,6,7
 193 -82 193 -82 181.5 -68.5 c 128,-1,8
 170 -55 170 -55 170 -41 c 0,9,10
 170 -15 170 -15 197 -2 c 2,11,-1
 582 180 l 1,12,-1
 854 715 l 1,13,-1
 190 1030 l 1,14,15
 170 1036 170 1036 170 1065 c 0,16,17
 170 1079 170 1079 181.5 1092.5 c 128,-1,18
 193 1106 193 1106 211 1106 c 0,19,20
 215 1106 215 1106 227 1102 c 1,21,-1
 891 788 l 1,22,-1
 1214 1427 l 2,23,24
 1224 1446 1224 1446 1249 1446 c 0,25,26
 1266 1446 1266 1446 1278 1434 c 128,-1,27
 1290 1422 1290 1422 1290 1405 c 0,28,29
 1290 1395 1290 1395 1284 1384 c 2,30,-1
 965 754 l 1,31,-1
 1403 547 l 2,32,33
 1421 538 1421 538 1421 512 c 0,34,35
 1421 485 1421 485 1397 475 c 1,36,-1
 641 119 l 1,37,-1
 377 -403 l 2,38,39
 368 -422 368 -422 342 -422 c 0,40,41
 325 -422 325 -422 313 -409 c 128,-1,42
 301 -396 301 -396 301 -381 c 0,0,1
700 238 m 1,43,-1
 1284 512 l 1,44,-1
 928 680 l 1,45,-1
 700 238 l 1,43,-1
EndSplineSet
EndChar

StartChar: section
Encoding: 167 167 101
Width: 1591
GlyphClass: 2
Flags: W
LayerCount: 2
Fore
SplineSet
301 -381 m 0,0,1
 301 -371 301 -371 303 -367 c 2,2,-1
 713 436 l 1,3,4
 503 471 503 471 209 471 c 0,5,6
 192 471 192 471 181 484 c 128,-1,7
 170 497 170 497 170 512 c 256,8,9
 170 527 170 527 181 540 c 128,-1,10
 192 553 192 553 209 553 c 0,11,12
 566 553 566 553 797 602 c 1,13,-1
 1214 1427 l 1,14,15
 1226 1446 1226 1446 1249 1446 c 0,16,17
 1266 1446 1266 1446 1278 1434 c 128,-1,18
 1290 1422 1290 1422 1290 1405 c 0,19,20
 1290 1395 1290 1395 1288 1391 c 2,21,-1
 901 629 l 1,22,23
 1022 665 1022 665 1114 721 c 128,-1,24
 1206 777 1206 777 1267 864.5 c 128,-1,25
 1328 952 1328 952 1339 1067 c 0,26,27
 1340 1081 1340 1081 1351.5 1092.5 c 128,-1,28
 1363 1104 1363 1104 1380 1104 c 0,29,30
 1399 1104 1399 1104 1410 1091 c 128,-1,31
 1421 1078 1421 1078 1421 1061 c 1,32,33
 1380 656 1380 656 852 532 c 1,34,-1
 834 498 l 1,35,36
 1079 441 1079 441 1239 313.5 c 128,-1,37
 1399 186 1399 186 1421 -37 c 1,38,39
 1421 -55 1421 -55 1410 -68.5 c 128,-1,40
 1399 -82 1399 -82 1380 -82 c 0,41,42
 1363 -82 1363 -82 1352 -71 c 128,-1,43
 1341 -60 1341 -60 1339 -43 c 0,44,45
 1326 92 1326 92 1248 186.5 c 128,-1,46
 1170 281 1170 281 1052.5 336.5 c 128,-1,47
 935 392 935 392 795 422 c 1,48,-1
 377 -403 l 2,49,50
 367 -422 367 -422 342 -422 c 0,51,52
 325 -422 325 -422 313 -409 c 128,-1,53
 301 -396 301 -396 301 -381 c 0,0,1
EndSplineSet
EndChar

StartChar: dieresis
Encoding: 168 168 102
Width: 1591
GlyphClass: 2
Flags: W
LayerCount: 2
Fore
SplineSet
301 -381 m 0,0,1
 301 -371 301 -371 303 -367 c 2,2,-1
 690 395 l 1,3,4
 569 359 569 359 477 303 c 128,-1,5
 385 247 385 247 324 159.5 c 128,-1,6
 263 72 263 72 252 -43 c 0,7,8
 251 -59 251 -59 239.5 -70.5 c 128,-1,9
 228 -82 228 -82 211 -82 c 0,10,11
 192 -82 192 -82 181 -68.5 c 128,-1,12
 170 -55 170 -55 170 -37 c 1,13,14
 183 79 183 79 232 167 c 128,-1,15
 281 255 281 255 358 318 c 128,-1,16
 435 381 435 381 533.5 424.5 c 128,-1,17
 632 468 632 468 739 492 c 1,18,-1
 758 528 l 1,19,20
 606 562 606 562 478.5 627 c 128,-1,21
 351 692 351 692 268.5 800 c 128,-1,22
 186 908 186 908 170 1061 c 1,23,24
 170 1078 170 1078 181 1091 c 128,-1,25
 192 1104 192 1104 211 1104 c 0,26,27
 228 1104 228 1104 239.5 1092.5 c 128,-1,28
 251 1081 251 1081 252 1067 c 0,29,30
 274 868 274 868 423.5 759.5 c 128,-1,31
 573 651 573 651 797 602 c 1,32,-1
 1214 1427 l 1,33,34
 1226 1446 1226 1446 1249 1446 c 0,35,36
 1266 1446 1266 1446 1278 1434 c 128,-1,37
 1290 1422 1290 1422 1290 1405 c 0,38,39
 1290 1395 1290 1395 1288 1391 c 2,40,-1
 881 588 l 1,41,42
 1087 553 1087 553 1384 553 c 0,43,44
 1400 553 1400 553 1410.5 540 c 128,-1,45
 1421 527 1421 527 1421 512 c 256,46,47
 1421 497 1421 497 1410.5 484 c 128,-1,48
 1400 471 1400 471 1384 471 c 0,49,50
 1024 471 1024 471 795 422 c 1,51,-1
 377 -403 l 2,52,53
 367 -422 367 -422 342 -422 c 0,54,55
 325 -422 325 -422 313 -409 c 128,-1,56
 301 -396 301 -396 301 -381 c 0,0,1
EndSplineSet
EndChar

StartChar: copyright
Encoding: 169 169 103
Width: 1591
GlyphClass: 2
Flags: W
LayerCount: 2
Fore
SplineSet
365 -526 m 0,0,1
 365 -511 365 -511 375 -498 c 1,2,-1
 510 -356 l 1,3,-1
 209 -356 l 2,4,5
 192 -356 192 -356 181 -344 c 128,-1,6
 170 -332 170 -332 170 -315 c 0,7,8
 170 -300 170 -300 181 -287 c 128,-1,9
 192 -274 192 -274 209 -274 c 2,10,-1
 588 -274 l 1,11,-1
 889 41 l 1,12,-1
 209 41 l 2,13,14
 192 41 192 41 181 53 c 128,-1,15
 170 65 170 65 170 82 c 0,16,17
 170 97 170 97 181 110 c 128,-1,18
 192 123 192 123 209 123 c 2,19,-1
 967 123 l 1,20,-1
 1155 319 l 1,21,22
 1168 334 1168 334 1186 334 c 0,23,24
 1201 334 1201 334 1214 321 c 128,-1,25
 1227 308 1227 308 1227 293 c 0,26,27
 1227 277 1227 277 1217 264 c 1,28,-1
 1081 123 l 1,29,-1
 1384 123 l 2,30,31
 1400 123 1400 123 1410.5 110 c 128,-1,32
 1421 97 1421 97 1421 82 c 0,33,34
 1421 65 1421 65 1410.5 53 c 128,-1,35
 1400 41 1400 41 1384 41 c 2,36,-1
 1004 41 l 1,37,-1
 702 -274 l 1,38,-1
 1384 -274 l 2,39,40
 1400 -274 1400 -274 1410.5 -287 c 128,-1,41
 1421 -300 1421 -300 1421 -315 c 0,42,43
 1421 -332 1421 -332 1410.5 -344 c 128,-1,44
 1400 -356 1400 -356 1384 -356 c 2,45,-1
 625 -356 l 1,46,-1
 436 -553 l 2,47,48
 422 -567 422 -567 406 -567 c 0,49,50
 389 -567 389 -567 377 -555 c 128,-1,51
 365 -543 365 -543 365 -526 c 0,0,1
190 915 m 1,52,53
 170 922 170 922 170 950 c 0,54,55
 170 977 170 977 197 987 c 1,56,-1
 1366 1540 l 2,57,58
 1370 1542 1370 1542 1380 1542 c 0,59,60
 1398 1542 1398 1542 1409.5 1531 c 128,-1,61
 1421 1520 1421 1520 1421 1501 c 0,62,63
 1421 1474 1421 1474 1397 1464 c 1,64,-1
 307 950 l 1,65,-1
 1403 432 l 2,66,67
 1421 423 1421 423 1421 397 c 0,68,69
 1421 380 1421 380 1409 368 c 128,-1,70
 1397 356 1397 356 1380 356 c 0,71,72
 1370 356 1370 356 1366 360 c 1,73,-1
 190 915 l 1,52,53
EndSplineSet
EndChar

StartChar: ordfeminine
Encoding: 170 170 104
Width: 1591
GlyphClass: 2
Flags: W
LayerCount: 2
Fore
SplineSet
365 -526 m 0,0,1
 365 -511 365 -511 375 -498 c 1,2,-1
 510 -356 l 1,3,-1
 209 -356 l 2,4,5
 192 -356 192 -356 181 -344 c 128,-1,6
 170 -332 170 -332 170 -315 c 0,7,8
 170 -300 170 -300 181 -287 c 128,-1,9
 192 -274 192 -274 209 -274 c 2,10,-1
 588 -274 l 1,11,-1
 889 41 l 1,12,-1
 209 41 l 2,13,14
 192 41 192 41 181 53 c 128,-1,15
 170 65 170 65 170 82 c 0,16,17
 170 97 170 97 181 110 c 128,-1,18
 192 123 192 123 209 123 c 2,19,-1
 967 123 l 1,20,-1
 1155 319 l 1,21,22
 1168 334 1168 334 1186 334 c 0,23,24
 1201 334 1201 334 1214 321 c 128,-1,25
 1227 308 1227 308 1227 293 c 0,26,27
 1227 277 1227 277 1217 264 c 1,28,-1
 1081 123 l 1,29,-1
 1384 123 l 2,30,31
 1400 123 1400 123 1410.5 110 c 128,-1,32
 1421 97 1421 97 1421 82 c 0,33,34
 1421 65 1421 65 1410.5 53 c 128,-1,35
 1400 41 1400 41 1384 41 c 2,36,-1
 1004 41 l 1,37,-1
 702 -274 l 1,38,-1
 1384 -274 l 2,39,40
 1400 -274 1400 -274 1410.5 -287 c 128,-1,41
 1421 -300 1421 -300 1421 -315 c 0,42,43
 1421 -332 1421 -332 1410.5 -344 c 128,-1,44
 1400 -356 1400 -356 1384 -356 c 2,45,-1
 625 -356 l 1,46,-1
 436 -553 l 2,47,48
 422 -567 422 -567 406 -567 c 0,49,50
 389 -567 389 -567 377 -555 c 128,-1,51
 365 -543 365 -543 365 -526 c 0,0,1
170 397 m 0,52,53
 170 423 170 423 197 436 c 2,54,-1
 1284 950 l 1,55,-1
 190 1466 l 2,56,57
 170 1476 170 1476 170 1501 c 0,58,59
 170 1518 170 1518 181 1530 c 128,-1,60
 192 1542 192 1542 211 1542 c 0,61,62
 221 1542 221 1542 227 1540 c 2,63,-1
 1403 985 l 2,64,65
 1421 976 1421 976 1421 950 c 0,66,67
 1421 926 1421 926 1397 911 c 1,68,-1
 227 360 l 1,69,70
 221 356 221 356 211 356 c 0,71,72
 194 356 194 356 182 369 c 128,-1,73
 170 382 170 382 170 397 c 0,52,53
EndSplineSet
EndChar

StartChar: logicalnot
Encoding: 172 172 105
Width: 1591
GlyphClass: 2
Flags: W
LayerCount: 2
Fore
SplineSet
301 -580 m 0,0,1
 301 -569 301 -569 303 -565 c 2,2,-1
 578 94 l 1,3,-1
 190 279 l 2,4,5
 170 288 170 288 170 313 c 0,6,7
 170 330 170 330 181 342 c 128,-1,8
 192 354 192 354 211 354 c 0,9,10
 215 354 215 354 227 350 c 1,11,-1
 608 170 l 1,12,-1
 717 426 l 1,13,-1
 190 676 l 2,14,15
 170 685 170 685 170 711 c 256,16,17
 170 737 170 737 197 748 c 1,18,-1
 1010 1133 l 1,19,-1
 1212 1620 l 1,20,21
 1224 1645 1224 1645 1249 1645 c 0,22,23
 1266 1645 1266 1645 1278 1633 c 128,-1,24
 1290 1621 1290 1621 1290 1604 c 0,25,26
 1290 1593 1290 1593 1288 1589 c 2,27,-1
 1120 1184 l 1,28,-1
 1366 1300 l 1,29,30
 1370 1303 1370 1303 1380 1303 c 0,31,32
 1397 1303 1397 1303 1409 1291 c 128,-1,33
 1421 1279 1421 1279 1421 1262 c 0,34,35
 1421 1235 1421 1235 1397 1225 c 1,36,-1
 1073 1071 l 1,37,-1
 821 467 l 1,38,-1
 1403 193 l 1,39,40
 1421 183 1421 183 1421 158 c 0,41,42
 1421 140 1421 140 1409 128.5 c 128,-1,43
 1397 117 1397 117 1380 117 c 0,44,45
 1374 117 1374 117 1366 121 c 2,46,-1
 791 391 l 1,47,-1
 684 135 l 1,48,-1
 1403 -205 l 2,49,50
 1421 -214 1421 -214 1421 -240 c 0,51,52
 1421 -257 1421 -257 1409 -269 c 128,-1,53
 1397 -281 1397 -281 1380 -281 c 0,54,55
 1373 -281 1373 -281 1366 -276 c 1,56,-1
 651 59 l 1,57,-1
 379 -596 l 2,58,59
 368 -621 368 -621 342 -621 c 0,60,61
 325 -621 325 -621 313 -608 c 128,-1,62
 301 -595 301 -595 301 -580 c 0,0,1
307 711 m 1,63,-1
 748 502 l 1,64,-1
 963 1020 l 1,65,-1
 307 711 l 1,63,-1
EndSplineSet
EndChar

StartChar: uni00AD
Encoding: 173 173 106
Width: 1591
GlyphClass: 2
Flags: W
LayerCount: 2
Fore
SplineSet
301 -580 m 0,0,1
 301 -569 301 -569 303 -565 c 2,2,-1
 578 94 l 1,3,-1
 190 279 l 2,4,5
 170 288 170 288 170 313 c 0,6,7
 170 330 170 330 181 342 c 128,-1,8
 192 354 192 354 211 354 c 0,9,10
 215 354 215 354 227 350 c 1,11,-1
 608 170 l 1,12,-1
 717 426 l 1,13,-1
 190 676 l 2,14,15
 170 685 170 685 170 711 c 256,16,17
 170 737 170 737 197 748 c 1,18,-1
 1010 1133 l 1,19,-1
 1212 1620 l 1,20,21
 1224 1645 1224 1645 1249 1645 c 0,22,23
 1266 1645 1266 1645 1278 1633 c 128,-1,24
 1290 1621 1290 1621 1290 1604 c 0,25,26
 1290 1593 1290 1593 1288 1589 c 2,27,-1
 1120 1184 l 1,28,-1
 1366 1300 l 1,29,30
 1370 1303 1370 1303 1380 1303 c 0,31,32
 1397 1303 1397 1303 1409 1291 c 128,-1,33
 1421 1279 1421 1279 1421 1262 c 0,34,35
 1421 1235 1421 1235 1397 1225 c 1,36,-1
 1073 1071 l 1,37,-1
 821 467 l 1,38,-1
 1403 193 l 1,39,40
 1421 183 1421 183 1421 158 c 0,41,42
 1421 140 1421 140 1409 128.5 c 128,-1,43
 1397 117 1397 117 1380 117 c 0,44,45
 1374 117 1374 117 1366 121 c 2,46,-1
 791 391 l 1,47,-1
 684 135 l 1,48,-1
 1403 -205 l 2,49,50
 1421 -214 1421 -214 1421 -240 c 0,51,52
 1421 -257 1421 -257 1409 -269 c 128,-1,53
 1397 -281 1397 -281 1380 -281 c 0,54,55
 1373 -281 1373 -281 1366 -276 c 1,56,-1
 651 59 l 1,57,-1
 379 -596 l 2,58,59
 368 -621 368 -621 342 -621 c 0,60,61
 325 -621 325 -621 313 -608 c 128,-1,62
 301 -595 301 -595 301 -580 c 0,0,1
307 711 m 1,63,-1
 748 502 l 1,64,-1
 963 1020 l 1,65,-1
 307 711 l 1,63,-1
EndSplineSet
EndChar

StartChar: registered
Encoding: 174 174 107
Width: 1591
GlyphClass: 2
Flags: W
LayerCount: 2
Fore
SplineSet
301 -580 m 0,0,1
 301 -569 301 -569 303 -565 c 2,2,-1
 471 -162 l 1,3,-1
 227 -276 l 2,4,5
 217 -281 217 -281 211 -281 c 0,6,7
 194 -281 194 -281 182 -268 c 128,-1,8
 170 -255 170 -255 170 -240 c 0,9,10
 170 -214 170 -214 190 -205 c 2,11,-1
 518 -49 l 1,12,-1
 678 334 l 1,13,-1
 227 121 l 1,14,15
 215 117 215 117 211 117 c 0,16,17
 194 117 194 117 182 129 c 128,-1,18
 170 141 170 141 170 158 c 0,19,20
 170 183 170 183 190 193 c 2,21,-1
 723 446 l 1,22,-1
 907 889 l 1,23,-1
 197 1225 l 1,24,25
 170 1235 170 1235 170 1262 c 0,26,27
 170 1277 170 1277 182 1290 c 128,-1,28
 194 1303 194 1303 211 1303 c 0,29,30
 221 1303 221 1303 227 1300 c 2,31,-1
 940 965 l 1,32,-1
 1212 1620 l 1,33,34
 1224 1645 1224 1645 1249 1645 c 0,35,36
 1266 1645 1266 1645 1278 1633 c 128,-1,37
 1290 1621 1290 1621 1290 1604 c 0,38,39
 1290 1593 1290 1593 1288 1589 c 2,40,-1
 1014 928 l 1,41,-1
 1397 748 l 2,42,43
 1421 736 1421 736 1421 711 c 0,44,45
 1421 685 1421 685 1403 676 c 2,46,-1
 786 385 l 1,47,-1
 629 4 l 1,48,-1
 1366 350 l 2,49,50
 1374 354 1374 354 1380 354 c 0,51,52
 1398 354 1398 354 1409.5 343 c 128,-1,53
 1421 332 1421 332 1421 313 c 0,54,55
 1421 288 1421 288 1403 279 c 2,56,-1
 582 -109 l 1,57,-1
 379 -596 l 2,58,59
 368 -621 368 -621 342 -621 c 0,60,61
 325 -621 325 -621 313 -608 c 128,-1,62
 301 -595 301 -595 301 -580 c 0,0,1
834 498 m 1,63,-1
 1284 711 l 1,64,-1
 981 854 l 1,65,-1
 834 498 l 1,63,-1
EndSplineSet
EndChar

StartChar: macron
Encoding: 175 175 108
Width: 1591
GlyphClass: 2
Flags: W
LayerCount: 2
Fore
SplineSet
209 -281 m 2,0,1
 192 -281 192 -281 181 -268 c 128,-1,2
 170 -255 170 -255 170 -240 c 0,3,4
 170 -223 170 -223 181 -211 c 128,-1,5
 192 -199 192 -199 209 -199 c 2,6,-1
 778 -199 l 1,7,-1
 965 -14 l 1,8,9
 975 0 975 0 995 0 c 0,10,11
 1012 0 1012 0 1024 -11.5 c 128,-1,12
 1036 -23 1036 -23 1036 -41 c 0,13,14
 1036 -55 1036 -55 1026 -70 c 1,15,-1
 895 -199 l 1,16,-1
 1384 -199 l 2,17,18
 1400 -199 1400 -199 1410.5 -211 c 128,-1,19
 1421 -223 1421 -223 1421 -240 c 0,20,21
 1421 -255 1421 -255 1410.5 -268 c 128,-1,22
 1400 -281 1400 -281 1384 -281 c 2,23,-1
 813 -281 l 1,24,-1
 629 -467 l 1,25,26
 613 -479 613 -479 598 -479 c 0,27,28
 581 -479 581 -479 569 -467 c 128,-1,29
 557 -455 557 -455 557 -438 c 0,30,31
 557 -420 557 -420 567 -412 c 1,32,-1
 696 -281 l 1,33,-1
 209 -281 l 2,0,1
190 676 m 1,34,35
 170 682 170 682 170 711 c 0,36,37
 170 737 170 737 197 748 c 1,38,-1
 1366 1300 l 1,39,40
 1370 1303 1370 1303 1380 1303 c 0,41,42
 1397 1303 1397 1303 1409 1291 c 128,-1,43
 1421 1279 1421 1279 1421 1262 c 0,44,45
 1421 1235 1421 1235 1397 1225 c 1,46,-1
 307 711 l 1,47,-1
 1403 193 l 1,48,49
 1421 183 1421 183 1421 158 c 0,50,51
 1421 140 1421 140 1409 128.5 c 128,-1,52
 1397 117 1397 117 1380 117 c 0,53,54
 1370 117 1370 117 1366 121 c 1,55,-1
 190 676 l 1,34,35
EndSplineSet
EndChar

StartChar: degree
Encoding: 176 176 109
Width: 1591
GlyphClass: 2
Flags: W
LayerCount: 2
Fore
SplineSet
209 -281 m 2,0,1
 192 -281 192 -281 181 -268 c 128,-1,2
 170 -255 170 -255 170 -240 c 0,3,4
 170 -223 170 -223 181 -211 c 128,-1,5
 192 -199 192 -199 209 -199 c 2,6,-1
 778 -199 l 1,7,-1
 965 -14 l 1,8,9
 975 0 975 0 995 0 c 0,10,11
 1012 0 1012 0 1024 -11.5 c 128,-1,12
 1036 -23 1036 -23 1036 -41 c 0,13,14
 1036 -55 1036 -55 1026 -70 c 1,15,-1
 895 -199 l 1,16,-1
 1384 -199 l 2,17,18
 1400 -199 1400 -199 1410.5 -211 c 128,-1,19
 1421 -223 1421 -223 1421 -240 c 0,20,21
 1421 -255 1421 -255 1410.5 -268 c 128,-1,22
 1400 -281 1400 -281 1384 -281 c 2,23,-1
 813 -281 l 1,24,-1
 629 -467 l 1,25,26
 613 -479 613 -479 598 -479 c 0,27,28
 581 -479 581 -479 569 -467 c 128,-1,29
 557 -455 557 -455 557 -438 c 0,30,31
 557 -420 557 -420 567 -412 c 1,32,-1
 696 -281 l 1,33,-1
 209 -281 l 2,0,1
170 158 m 0,34,35
 170 183 170 183 197 197 c 1,36,-1
 1284 711 l 1,37,-1
 190 1227 l 2,38,39
 170 1236 170 1236 170 1262 c 0,40,41
 170 1277 170 1277 182 1290 c 128,-1,42
 194 1303 194 1303 211 1303 c 0,43,44
 221 1303 221 1303 227 1300 c 2,45,-1
 1403 745 l 2,46,47
 1421 736 1421 736 1421 711 c 256,48,49
 1421 686 1421 686 1397 672 c 1,50,-1
 227 121 l 1,51,52
 221 117 221 117 211 117 c 0,53,54
 194 117 194 117 182 129 c 128,-1,55
 170 141 170 141 170 158 c 0,34,35
EndSplineSet
EndChar

StartChar: plusminus
Encoding: 177 177 110
Width: 1591
GlyphClass: 2
Flags: W
LayerCount: 2
Fore
SplineSet
301 -580 m 0,0,1
 301 -569 301 -569 303 -565 c 2,2,-1
 422 -281 l 1,3,-1
 209 -281 l 2,4,5
 192 -281 192 -281 181 -268 c 128,-1,6
 170 -255 170 -255 170 -240 c 0,7,8
 170 -223 170 -223 181 -211 c 128,-1,9
 192 -199 192 -199 209 -199 c 2,10,-1
 455 -199 l 1,11,-1
 797 621 l 1,12,13
 566 670 566 670 209 670 c 0,14,15
 192 670 192 670 181 682 c 128,-1,16
 170 694 170 694 170 711 c 0,17,18
 170 726 170 726 181 739 c 128,-1,19
 192 752 192 752 209 752 c 0,20,21
 339 752 339 752 448 757.5 c 128,-1,22
 557 763 557 763 665.5 778 c 128,-1,23
 774 793 774 793 881 823 c 1,24,-1
 1212 1620 l 1,25,26
 1224 1645 1224 1645 1249 1645 c 0,27,28
 1266 1645 1266 1645 1278 1633 c 128,-1,29
 1290 1621 1290 1621 1290 1604 c 0,30,31
 1290 1593 1290 1593 1288 1589 c 2,32,-1
 983 856 l 1,33,34
 1309 982 1309 982 1339 1266 c 0,35,36
 1340 1280 1340 1280 1351.5 1291.5 c 128,-1,37
 1363 1303 1363 1303 1380 1303 c 0,38,39
 1399 1303 1399 1303 1410 1290 c 128,-1,40
 1421 1277 1421 1277 1421 1260 c 1,41,42
 1401 1065 1401 1065 1271.5 941.5 c 128,-1,43
 1142 818 1142 818 940 756 c 1,44,-1
 909 676 l 1,45,46
 1008 649 1008 649 1098 604 c 128,-1,47
 1188 559 1188 559 1256 497.5 c 128,-1,48
 1324 436 1324 436 1367.5 352.5 c 128,-1,49
 1411 269 1411 269 1421 162 c 1,50,51
 1421 143 1421 143 1410 130 c 128,-1,52
 1399 117 1399 117 1380 117 c 0,53,54
 1364 117 1364 117 1352.5 128.5 c 128,-1,55
 1341 140 1341 140 1339 156 c 0,56,57
 1330 247 1330 247 1289.5 321 c 128,-1,58
 1249 395 1249 395 1187 448 c 128,-1,59
 1125 501 1125 501 1047.5 538 c 128,-1,60
 970 575 970 575 877 600 c 1,61,-1
 545 -199 l 1,62,-1
 1384 -199 l 2,63,64
 1400 -199 1400 -199 1410.5 -211 c 128,-1,65
 1421 -223 1421 -223 1421 -240 c 0,66,67
 1421 -255 1421 -255 1410.5 -268 c 128,-1,68
 1400 -281 1400 -281 1384 -281 c 2,69,-1
 510 -281 l 1,70,-1
 379 -596 l 2,71,72
 368 -621 368 -621 342 -621 c 0,73,74
 325 -621 325 -621 313 -608 c 128,-1,75
 301 -595 301 -595 301 -580 c 0,0,1
758 711 m 1,76,77
 794 705 794 705 827 696 c 1,78,-1
 842 727 l 1,79,80
 780 714 780 714 758 711 c 1,76,77
EndSplineSet
EndChar

StartChar: uni00B2
Encoding: 178 178 111
Width: 1591
GlyphClass: 2
Flags: W
LayerCount: 2
Fore
SplineSet
301 -580 m 0,0,1
 301 -569 301 -569 303 -565 c 2,2,-1
 422 -281 l 1,3,-1
 209 -281 l 2,4,5
 192 -281 192 -281 181 -268 c 128,-1,6
 170 -255 170 -255 170 -240 c 0,7,8
 170 -223 170 -223 181 -211 c 128,-1,9
 192 -199 192 -199 209 -199 c 2,10,-1
 455 -199 l 1,11,-1
 797 621 l 1,12,13
 573 572 573 572 423.5 463 c 128,-1,14
 274 354 274 354 252 156 c 0,15,16
 250 140 250 140 238.5 128.5 c 128,-1,17
 227 117 227 117 211 117 c 0,18,19
 192 117 192 117 181 130 c 128,-1,20
 170 143 170 143 170 162 c 1,21,22
 187 327 187 327 283.5 440.5 c 128,-1,23
 380 554 380 554 520.5 616.5 c 128,-1,24
 661 679 661 679 834 711 c 1,25,26
 663 741 663 741 521.5 804 c 128,-1,27
 380 867 380 867 283.5 980 c 128,-1,28
 187 1093 187 1093 170 1260 c 1,29,30
 170 1277 170 1277 181 1290 c 128,-1,31
 192 1303 192 1303 211 1303 c 0,32,33
 228 1303 228 1303 239.5 1291.5 c 128,-1,34
 251 1280 251 1280 252 1266 c 0,35,36
 265 1151 265 1151 321 1068.5 c 128,-1,37
 377 986 377 986 462 931 c 128,-1,38
 547 876 547 876 650 842 c 128,-1,39
 753 808 753 808 866 788 c 1,40,-1
 1212 1620 l 1,41,42
 1224 1645 1224 1645 1249 1645 c 0,43,44
 1266 1645 1266 1645 1278 1633 c 128,-1,45
 1290 1621 1290 1621 1290 1604 c 0,46,47
 1290 1593 1290 1593 1288 1589 c 2,48,-1
 950 776 l 1,49,50
 1137 752 1137 752 1384 752 c 0,51,52
 1400 752 1400 752 1410.5 739 c 128,-1,53
 1421 726 1421 726 1421 711 c 0,54,55
 1421 694 1421 694 1410.5 682 c 128,-1,56
 1400 670 1400 670 1384 670 c 0,57,58
 1102 670 1102 670 893 637 c 1,59,-1
 545 -199 l 1,60,-1
 1384 -199 l 2,61,62
 1400 -199 1400 -199 1410.5 -211 c 128,-1,63
 1421 -223 1421 -223 1421 -240 c 0,64,65
 1421 -255 1421 -255 1410.5 -268 c 128,-1,66
 1400 -281 1400 -281 1384 -281 c 2,67,-1
 510 -281 l 1,68,-1
 379 -596 l 2,69,70
 368 -621 368 -621 342 -621 c 0,71,72
 325 -621 325 -621 313 -608 c 128,-1,73
 301 -595 301 -595 301 -580 c 0,0,1
EndSplineSet
EndChar

StartChar: uni00B3
Encoding: 179 179 112
Width: 1591
GlyphClass: 2
Flags: W
LayerCount: 2
Fore
SplineSet
143 -463 m 0,0,1
 121 -463 121 -463 115 -412 c 1,2,-1
 115 -399 l 2,3,4
 115 -300 115 -300 156 -204 c 128,-1,5
 197 -108 197 -108 274.5 -47 c 128,-1,6
 352 14 352 14 455 14 c 0,7,8
 518 14 518 14 576 -10 c 128,-1,9
 634 -34 634 -34 681.5 -68.5 c 128,-1,10
 729 -103 729 -103 788 -154 c 1,11,-1
 1006 244 l 2,12,13
 1015 262 1015 262 1040 262 c 0,14,15
 1058 262 1058 262 1069.5 251 c 128,-1,16
 1081 240 1081 240 1081 221 c 0,17,18
 1081 210 1081 210 1075 201 c 2,19,-1
 850 -209 l 1,20,21
 924 -274 924 -274 992.5 -311 c 128,-1,22
 1061 -348 1061 -348 1137 -348 c 0,23,24
 1218 -348 1218 -348 1282.5 -304.5 c 128,-1,25
 1347 -261 1347 -261 1383 -188.5 c 128,-1,26
 1419 -116 1419 -116 1419 -37 c 1,27,28
 1425 14 1425 14 1448 14 c 256,29,30
 1471 14 1471 14 1477 -37 c 1,31,-1
 1477 -49 l 2,32,33
 1477 -148 1477 -148 1435.5 -244.5 c 128,-1,34
 1394 -341 1394 -341 1317 -402 c 128,-1,35
 1240 -463 1240 -463 1137 -463 c 0,36,37
 1051 -463 1051 -463 972.5 -419 c 128,-1,38
 894 -375 894 -375 803 -295 c 1,39,-1
 586 -692 l 1,40,41
 577 -711 577 -711 551 -711 c 0,42,43
 534 -711 534 -711 522 -698 c 128,-1,44
 510 -685 510 -685 510 -670 c 0,45,46
 510 -658 510 -658 516 -649 c 2,47,-1
 741 -240 l 1,48,49
 665 -173 665 -173 598 -136.5 c 128,-1,50
 531 -100 531 -100 455 -100 c 0,51,52
 375 -100 375 -100 309.5 -144 c 128,-1,53
 244 -188 244 -188 208 -260.5 c 128,-1,54
 172 -333 172 -333 172 -412 c 1,55,56
 166 -463 166 -463 143 -463 c 0,0,1
209 864 m 0,57,58
 192 864 192 864 181 877 c 128,-1,59
 170 890 170 890 170 905 c 0,60,61
 170 922 170 922 181 934 c 128,-1,62
 192 946 192 946 209 946 c 0,63,64
 392 946 392 946 568.5 961 c 128,-1,65
 745 976 745 976 915.5 1026 c 128,-1,66
 1086 1076 1086 1076 1204 1182.5 c 128,-1,67
 1322 1289 1322 1289 1339 1462 c 0,68,69
 1340 1478 1340 1478 1351.5 1488.5 c 128,-1,70
 1363 1499 1363 1499 1380 1499 c 0,71,72
 1399 1499 1399 1499 1410 1486 c 128,-1,73
 1421 1473 1421 1473 1421 1456 c 1,74,75
 1375 1016 1375 1016 758 905 c 1,76,77
 1027 858 1027 858 1211.5 728.5 c 128,-1,78
 1396 599 1396 599 1421 358 c 1,79,80
 1421 340 1421 340 1410 326.5 c 128,-1,81
 1399 313 1399 313 1380 313 c 0,82,83
 1363 313 1363 313 1352 324 c 128,-1,84
 1341 335 1341 335 1339 352 c 0,85,86
 1322 523 1322 523 1202 630 c 128,-1,87
 1082 737 1082 737 912.5 786 c 128,-1,88
 743 835 743 835 573 849.5 c 128,-1,89
 403 864 403 864 209 864 c 0,57,58
EndSplineSet
EndChar

StartChar: acute
Encoding: 180 180 113
Width: 1591
GlyphClass: 2
Flags: W
LayerCount: 2
Fore
SplineSet
143 -463 m 0,0,1
 121 -463 121 -463 115 -412 c 1,2,-1
 115 -399 l 2,3,4
 115 -300 115 -300 156 -204 c 128,-1,5
 197 -108 197 -108 274.5 -47 c 128,-1,6
 352 14 352 14 455 14 c 0,7,8
 518 14 518 14 576 -10 c 128,-1,9
 634 -34 634 -34 681.5 -68.5 c 128,-1,10
 729 -103 729 -103 788 -154 c 1,11,-1
 1006 244 l 2,12,13
 1015 262 1015 262 1040 262 c 0,14,15
 1058 262 1058 262 1069.5 251 c 128,-1,16
 1081 240 1081 240 1081 221 c 0,17,18
 1081 210 1081 210 1075 201 c 2,19,-1
 850 -209 l 1,20,21
 924 -274 924 -274 992.5 -311 c 128,-1,22
 1061 -348 1061 -348 1137 -348 c 0,23,24
 1218 -348 1218 -348 1282.5 -304.5 c 128,-1,25
 1347 -261 1347 -261 1383 -188.5 c 128,-1,26
 1419 -116 1419 -116 1419 -37 c 1,27,28
 1425 14 1425 14 1448 14 c 256,29,30
 1471 14 1471 14 1477 -37 c 1,31,-1
 1477 -49 l 2,32,33
 1477 -148 1477 -148 1435.5 -244.5 c 128,-1,34
 1394 -341 1394 -341 1317 -402 c 128,-1,35
 1240 -463 1240 -463 1137 -463 c 0,36,37
 1051 -463 1051 -463 972.5 -419 c 128,-1,38
 894 -375 894 -375 803 -295 c 1,39,-1
 586 -692 l 1,40,41
 577 -711 577 -711 551 -711 c 0,42,43
 534 -711 534 -711 522 -698 c 128,-1,44
 510 -685 510 -685 510 -670 c 0,45,46
 510 -658 510 -658 516 -649 c 2,47,-1
 741 -240 l 1,48,49
 665 -173 665 -173 598 -136.5 c 128,-1,50
 531 -100 531 -100 455 -100 c 0,51,52
 375 -100 375 -100 309.5 -144 c 128,-1,53
 244 -188 244 -188 208 -260.5 c 128,-1,54
 172 -333 172 -333 172 -412 c 1,55,56
 166 -463 166 -463 143 -463 c 0,0,1
211 313 m 0,57,58
 192 313 192 313 181 326.5 c 128,-1,59
 170 340 170 340 170 358 c 1,60,61
 187 523 187 523 283 636 c 128,-1,62
 379 749 379 749 521 812 c 128,-1,63
 663 875 663 875 834 905 c 1,64,65
 216 1016 216 1016 170 1456 c 1,66,67
 170 1473 170 1473 181 1486 c 128,-1,68
 192 1499 192 1499 211 1499 c 0,69,70
 228 1499 228 1499 239.5 1488.5 c 128,-1,71
 251 1478 251 1478 252 1462 c 0,72,73
 275 1237 275 1237 463.5 1123 c 128,-1,74
 652 1009 652 1009 887.5 977.5 c 128,-1,75
 1123 946 1123 946 1384 946 c 0,76,77
 1400 946 1400 946 1410.5 934 c 128,-1,78
 1421 922 1421 922 1421 905 c 0,79,80
 1421 890 1421 890 1410.5 877 c 128,-1,81
 1400 864 1400 864 1384 864 c 0,82,83
 1190 864 1190 864 1020 850 c 128,-1,84
 850 836 850 836 679.5 786.5 c 128,-1,85
 509 737 509 737 389.5 630.5 c 128,-1,86
 270 524 270 524 252 352 c 0,87,88
 251 336 251 336 239.5 324.5 c 128,-1,89
 228 313 228 313 211 313 c 0,57,58
EndSplineSet
EndChar

StartChar: uni00B5
Encoding: 181 181 114
Width: 1591
GlyphClass: 2
Flags: W
LayerCount: 2
Fore
SplineSet
143 -463 m 0,0,1
 121 -463 121 -463 115 -412 c 1,2,-1
 115 -399 l 2,3,4
 115 -300 115 -300 156 -204 c 128,-1,5
 197 -108 197 -108 274.5 -47 c 128,-1,6
 352 14 352 14 455 14 c 0,7,8
 518 14 518 14 576 -10 c 128,-1,9
 634 -34 634 -34 681.5 -68.5 c 128,-1,10
 729 -103 729 -103 788 -154 c 1,11,-1
 1006 244 l 2,12,13
 1015 262 1015 262 1040 262 c 0,14,15
 1058 262 1058 262 1069.5 251 c 128,-1,16
 1081 240 1081 240 1081 221 c 0,17,18
 1081 210 1081 210 1075 201 c 2,19,-1
 850 -209 l 1,20,21
 924 -274 924 -274 992.5 -311 c 128,-1,22
 1061 -348 1061 -348 1137 -348 c 0,23,24
 1218 -348 1218 -348 1282.5 -304.5 c 128,-1,25
 1347 -261 1347 -261 1383 -188.5 c 128,-1,26
 1419 -116 1419 -116 1419 -37 c 1,27,28
 1425 14 1425 14 1448 14 c 256,29,30
 1471 14 1471 14 1477 -37 c 1,31,-1
 1477 -49 l 2,32,33
 1477 -148 1477 -148 1435.5 -244.5 c 128,-1,34
 1394 -341 1394 -341 1317 -402 c 128,-1,35
 1240 -463 1240 -463 1137 -463 c 0,36,37
 1051 -463 1051 -463 972.5 -419 c 128,-1,38
 894 -375 894 -375 803 -295 c 1,39,-1
 586 -692 l 1,40,41
 577 -711 577 -711 551 -711 c 0,42,43
 534 -711 534 -711 522 -698 c 128,-1,44
 510 -685 510 -685 510 -670 c 0,45,46
 510 -658 510 -658 516 -649 c 2,47,-1
 741 -240 l 1,48,49
 665 -173 665 -173 598 -136.5 c 128,-1,50
 531 -100 531 -100 455 -100 c 0,51,52
 375 -100 375 -100 309.5 -144 c 128,-1,53
 244 -188 244 -188 208 -260.5 c 128,-1,54
 172 -333 172 -333 172 -412 c 1,55,56
 166 -463 166 -463 143 -463 c 0,0,1
190 872 m 1,57,58
 170 879 170 879 170 907 c 0,59,60
 170 934 170 934 197 944 c 1,61,-1
 1366 1497 l 2,62,63
 1370 1499 1370 1499 1380 1499 c 0,64,65
 1398 1499 1398 1499 1409.5 1488 c 128,-1,66
 1421 1477 1421 1477 1421 1458 c 0,67,68
 1421 1431 1421 1431 1397 1421 c 1,69,-1
 307 907 l 1,70,-1
 1403 389 l 2,71,72
 1421 380 1421 380 1421 354 c 0,73,74
 1421 337 1421 337 1409 325 c 128,-1,75
 1397 313 1397 313 1380 313 c 0,76,77
 1370 313 1370 313 1366 317 c 1,78,-1
 190 872 l 1,57,58
EndSplineSet
EndChar

StartChar: paragraph
Encoding: 182 182 115
Width: 1591
GlyphClass: 2
Flags: W
LayerCount: 2
Fore
SplineSet
143 -463 m 0,0,1
 121 -463 121 -463 115 -412 c 1,2,-1
 115 -399 l 2,3,4
 115 -300 115 -300 156 -204 c 128,-1,5
 197 -108 197 -108 274.5 -47 c 128,-1,6
 352 14 352 14 455 14 c 0,7,8
 518 14 518 14 576 -10 c 128,-1,9
 634 -34 634 -34 681.5 -68.5 c 128,-1,10
 729 -103 729 -103 788 -154 c 1,11,-1
 1006 244 l 2,12,13
 1015 262 1015 262 1040 262 c 0,14,15
 1058 262 1058 262 1069.5 251 c 128,-1,16
 1081 240 1081 240 1081 221 c 0,17,18
 1081 210 1081 210 1075 201 c 2,19,-1
 850 -209 l 1,20,21
 924 -274 924 -274 992.5 -311 c 128,-1,22
 1061 -348 1061 -348 1137 -348 c 0,23,24
 1218 -348 1218 -348 1282.5 -304.5 c 128,-1,25
 1347 -261 1347 -261 1383 -188.5 c 128,-1,26
 1419 -116 1419 -116 1419 -37 c 1,27,28
 1425 14 1425 14 1448 14 c 256,29,30
 1471 14 1471 14 1477 -37 c 1,31,-1
 1477 -49 l 2,32,33
 1477 -148 1477 -148 1435.5 -244.5 c 128,-1,34
 1394 -341 1394 -341 1317 -402 c 128,-1,35
 1240 -463 1240 -463 1137 -463 c 0,36,37
 1051 -463 1051 -463 972.5 -419 c 128,-1,38
 894 -375 894 -375 803 -295 c 1,39,-1
 586 -692 l 1,40,41
 577 -711 577 -711 551 -711 c 0,42,43
 534 -711 534 -711 522 -698 c 128,-1,44
 510 -685 510 -685 510 -670 c 0,45,46
 510 -658 510 -658 516 -649 c 2,47,-1
 741 -240 l 1,48,49
 665 -173 665 -173 598 -136.5 c 128,-1,50
 531 -100 531 -100 455 -100 c 0,51,52
 375 -100 375 -100 309.5 -144 c 128,-1,53
 244 -188 244 -188 208 -260.5 c 128,-1,54
 172 -333 172 -333 172 -412 c 1,55,56
 166 -463 166 -463 143 -463 c 0,0,1
170 354 m 0,57,58
 170 380 170 380 197 393 c 2,59,-1
 1284 907 l 1,60,-1
 190 1423 l 2,61,62
 170 1433 170 1433 170 1458 c 0,63,64
 170 1475 170 1475 181 1487 c 128,-1,65
 192 1499 192 1499 211 1499 c 0,66,67
 221 1499 221 1499 227 1497 c 2,68,-1
 1403 942 l 2,69,70
 1421 933 1421 933 1421 907 c 0,71,72
 1421 883 1421 883 1397 868 c 1,73,-1
 227 317 l 1,74,75
 221 313 221 313 211 313 c 0,76,77
 194 313 194 313 182 326 c 128,-1,78
 170 339 170 339 170 354 c 0,57,58
EndSplineSet
EndChar

StartChar: periodcentered
Encoding: 183 183 116
AltUni2: 002219.ffffffff.0
Width: 1591
GlyphClass: 2
Flags: W
LayerCount: 2
Fore
SplineSet
301 -819 m 0,0,1
 301 -809 301 -809 303 -805 c 2,2,-1
 457 -356 l 1,3,-1
 209 -356 l 2,4,5
 194 -356 194 -356 182 -343 c 128,-1,6
 170 -330 170 -330 170 -315 c 256,7,8
 170 -300 170 -300 181 -287 c 128,-1,9
 192 -274 192 -274 209 -274 c 2,10,-1
 485 -274 l 1,11,-1
 592 41 l 1,12,-1
 209 41 l 2,13,14
 194 41 194 41 182 54 c 128,-1,15
 170 67 170 67 170 82 c 256,16,17
 170 97 170 97 181 110 c 128,-1,18
 192 123 192 123 209 123 c 2,19,-1
 621 123 l 1,20,-1
 793 631 l 1,21,-1
 190 915 l 2,22,23
 170 925 170 925 170 950 c 0,24,25
 170 977 170 977 197 987 c 1,26,-1
 1053 1393 l 1,27,-1
 1212 1860 l 2,28,29
 1221 1884 1221 1884 1249 1884 c 0,30,31
 1267 1884 1267 1884 1278.5 1873 c 128,-1,32
 1290 1862 1290 1862 1290 1843 c 0,33,34
 1290 1833 1290 1833 1288 1829 c 2,35,-1
 1155 1442 l 1,36,-1
 1366 1540 l 2,37,38
 1370 1542 1370 1542 1380 1542 c 0,39,40
 1398 1542 1398 1542 1409.5 1531 c 128,-1,41
 1421 1520 1421 1520 1421 1501 c 0,42,43
 1421 1474 1421 1474 1397 1464 c 1,44,-1
 1118 1333 l 1,45,-1
 893 674 l 1,46,-1
 1403 432 l 2,47,48
 1421 423 1421 423 1421 397 c 0,49,50
 1421 380 1421 380 1409 368 c 128,-1,51
 1397 356 1397 356 1380 356 c 0,52,53
 1374 356 1374 356 1366 360 c 2,54,-1
 866 596 l 1,55,-1
 707 123 l 1,56,-1
 1384 123 l 2,57,58
 1400 123 1400 123 1410.5 110 c 128,-1,59
 1421 97 1421 97 1421 82 c 256,60,61
 1421 67 1421 67 1410 54 c 128,-1,62
 1399 41 1399 41 1384 41 c 2,63,-1
 678 41 l 1,64,-1
 571 -274 l 1,65,-1
 1384 -274 l 2,66,67
 1400 -274 1400 -274 1410.5 -287 c 128,-1,68
 1421 -300 1421 -300 1421 -315 c 256,69,70
 1421 -330 1421 -330 1410 -343 c 128,-1,71
 1399 -356 1399 -356 1384 -356 c 2,72,-1
 543 -356 l 1,73,-1
 379 -836 l 2,74,75
 376 -846 376 -846 364 -853 c 128,-1,76
 352 -860 352 -860 342 -860 c 0,77,78
 325 -860 325 -860 313 -848 c 128,-1,79
 301 -836 301 -836 301 -819 c 0,0,1
307 950 m 1,80,-1
 819 709 l 1,81,-1
 1016 1284 l 1,82,-1
 307 950 l 1,80,-1
EndSplineSet
EndChar

StartChar: cedilla
Encoding: 184 184 117
Width: 1591
GlyphClass: 2
Flags: W
LayerCount: 2
Fore
SplineSet
301 -819 m 0,0,1
 301 -809 301 -809 303 -805 c 2,2,-1
 457 -356 l 1,3,-1
 209 -356 l 2,4,5
 194 -356 194 -356 182 -343 c 128,-1,6
 170 -330 170 -330 170 -315 c 256,7,8
 170 -300 170 -300 181 -287 c 128,-1,9
 192 -274 192 -274 209 -274 c 2,10,-1
 485 -274 l 1,11,-1
 592 41 l 1,12,-1
 209 41 l 2,13,14
 194 41 194 41 182 54 c 128,-1,15
 170 67 170 67 170 82 c 256,16,17
 170 97 170 97 181 110 c 128,-1,18
 192 123 192 123 209 123 c 2,19,-1
 621 123 l 1,20,-1
 793 627 l 1,21,-1
 227 360 l 1,22,23
 215 356 215 356 211 356 c 0,24,25
 194 356 194 356 182 369 c 128,-1,26
 170 382 170 382 170 397 c 0,27,28
 170 423 170 423 197 436 c 2,29,-1
 829 735 l 1,30,-1
 954 1106 l 1,31,-1
 190 1466 l 2,32,33
 170 1476 170 1476 170 1501 c 0,34,35
 170 1518 170 1518 181 1530 c 128,-1,36
 192 1542 192 1542 211 1542 c 0,37,38
 221 1542 221 1542 227 1540 c 2,39,-1
 981 1184 l 1,40,-1
 1212 1860 l 2,41,42
 1221 1884 1221 1884 1249 1884 c 0,43,44
 1267 1884 1267 1884 1278.5 1873 c 128,-1,45
 1290 1862 1290 1862 1290 1843 c 0,46,47
 1290 1833 1290 1833 1288 1829 c 2,48,-1
 1057 1149 l 1,49,-1
 1403 985 l 2,50,51
 1421 976 1421 976 1421 950 c 0,52,53
 1421 926 1421 926 1397 911 c 1,54,-1
 895 676 l 1,55,-1
 707 123 l 1,56,-1
 1384 123 l 2,57,58
 1400 123 1400 123 1410.5 110 c 128,-1,59
 1421 97 1421 97 1421 82 c 256,60,61
 1421 67 1421 67 1410 54 c 128,-1,62
 1399 41 1399 41 1384 41 c 2,63,-1
 678 41 l 1,64,-1
 571 -274 l 1,65,-1
 1384 -274 l 2,66,67
 1400 -274 1400 -274 1410.5 -287 c 128,-1,68
 1421 -300 1421 -300 1421 -315 c 256,69,70
 1421 -330 1421 -330 1410 -343 c 128,-1,71
 1399 -356 1399 -356 1384 -356 c 2,72,-1
 543 -356 l 1,73,-1
 379 -836 l 2,74,75
 376 -846 376 -846 364 -853 c 128,-1,76
 352 -860 352 -860 342 -860 c 0,77,78
 325 -860 325 -860 313 -848 c 128,-1,79
 301 -836 301 -836 301 -819 c 0,0,1
932 782 m 1,80,-1
 1284 950 l 1,81,-1
 1030 1071 l 1,82,-1
 932 782 l 1,80,-1
EndSplineSet
EndChar

